<?xml version="1.0" standalone="no"?>
<!DOCTYPE svg PUBLIC "-//W3C//DTD SVG 1.1//EN" "http://www.w3.org/Graphics/SVG/1.1/DTD/svg11.dtd" >
<svg xmlns="http://www.w3.org/2000/svg" xmlns:xlink="http://www.w3.org/1999/xlink" version="1.1">
<metadata>
Created by FontForge 20160407 at Tue Sep 13 09:56:17 2016
 By Jimmy Warting
Modern and elegant sans serif font family.
</metadata>
<defs>
<font id="Code-Pro-Light" horiz-adv-x="624" >
  <font-face 
    font-family="Code Pro Light"
    font-weight="300"
    font-stretch="normal"
    units-per-em="1000"
    panose-1="2 0 0 0 0 0 0 0 0 0"
    ascent="750"
    descent="-250"
    x-height="697"
    cap-height="700"
    bbox="-87 -197 1691 866"
    underline-thickness="50"
    underline-position="-100"
    stemh="84"
    stemv="99"
    unicode-range="U+0020-FB04"
  />
<missing-glyph horiz-adv-x="550" 
d="M25 0v700h500v-700h-500zM275 395l170 255h-340zM305 350l170 -255v510zM75 95l170 255l-170 255v-510zM105 50h340l-170 255z" />
    <glyph glyph-name="f_j" unicode="fj" horiz-adv-x="777" 
d="M86 339v-339h-21v700h378v-21h-357v-319h316v-21h-316zM716 699v-403c0 -203 -153 -296 -344 -296v22c180 0 323 84 323 274v383h-208v20h229z" />
    <glyph glyph-name="f_f" unicode="ff" horiz-adv-x="869" 
d="M85 339v-339h-20v700h350v-21h-330v-318h330v-22h-330zM472 339v-339h-20v700h379v-21h-359v-318h332v-22h-332z" />
    <glyph glyph-name="fi" unicode="fi" horiz-adv-x="718" 
d="M85 339v-339h-20v700h379v-21h-359v-318h332v-22h-332zM673 700v-20h-147v-659h147v-21h-315v21h147v679h168z" />
    <glyph glyph-name="fl" unicode="fl" horiz-adv-x="927" 
d="M85 339v-339h-20v700h367v-21h-347v-318h332v-22h-332zM519 700v-677h372v-23h-394v700h22z" />
    <glyph glyph-name="f_f_i" unicode="ffi" horiz-adv-x="1097" 
d="M85 339v-339h-20v700h350v-21h-330v-318h330v-22h-330zM472 339v-339h-20v700h379v-21h-359v-318h332v-22h-332zM1057 700v-20h-147v-659h147v-21h-315v21h147v679h168z" />
    <glyph glyph-name="f_f_l" unicode="ffl" horiz-adv-x="1282" 
d="M85 339v-339h-20v700h344v-21h-324v-318h324v-22h-324zM472 339v-339h-20v700h349v-21h-329v-318h329v-22h-329zM867 700v-677h372v-23h-394v700h22z" />
    <glyph glyph-name=".notdef" horiz-adv-x="550" 
d="M25 0v700h500v-700h-500zM275 395l170 255h-340zM305 350l170 -255v510zM75 95l170 255l-170 255v-510zM105 50h340l-170 255z" />
    <glyph glyph-name=".null" horiz-adv-x="0" 
 />
    <glyph glyph-name="CR" horiz-adv-x="249" 
 />
    <glyph glyph-name="space" unicode=" " horiz-adv-x="249" 
 />
    <glyph glyph-name="uni00A0" unicode="&#xa0;" horiz-adv-x="257" 
 />
    <glyph glyph-name="exclam" unicode="!" horiz-adv-x="166" 
d="M70 701h24v-613h-24v613zM82 37c10 0 19 -9 19 -20c0 -9 -9 -19 -19 -19s-20 10 -20 19c0 11 10 20 20 20z" />
    <glyph glyph-name="quotedbl" unicode="&#x22;" horiz-adv-x="204" 
d="M56 699h22v-202h-22v202zM131 699h22v-202h-22v202z" />
    <glyph glyph-name="numbersign" unicode="#" horiz-adv-x="512" 
d="M474 470v-16h-97l-33 -202h95v-17h-98l-38 -235h-19l39 235h-182l-38 -235h-20l39 235h-101v17h104l32 202h-102v16h105l38 231h20l-38 -231h181l38 231h19l-38 -231h94zM358 454h-181l-33 -202h182z" />
    <glyph glyph-name="dollar" unicode="$" horiz-adv-x="569" 
d="M272 706v58h21v-58c100 -2 196 -54 215 -153l1 -11l-21 -4l-1 11v0c-6 28 -18 53 -37 74c-39 40 -99 61 -157 62v-324c103 -11 207 -22 231 -131c3 -14 5 -27 5 -41c0 -120 -120 -191 -236 -196v-64h-21v64c-101 4 -218 61 -230 172l-1 10l22 2l1 -10
c14 -94 118 -150 208 -153v327c-106 11 -210 36 -224 161c-3 40 9 85 34 118c41 53 116 83 190 86zM503 225c-21 93 -115 104 -210 114v-325c106 4 214 65 214 175c0 11 -1 23 -4 36zM99 607c-24 -29 -31 -68 -29 -104c11 -111 103 -130 202 -141v323
c-64 -3 -135 -27 -173 -78z" />
    <glyph glyph-name="percent" unicode="%" horiz-adv-x="675" 
d="M330 560c0 -79 -65 -144 -143 -144s-143 62 -143 144c0 83 65 145 143 145s143 -62 143 -145zM543 716h23l-438 -727h-24zM310 560c0 71 -52 126 -123 126c-70 0 -122 -55 -122 -126c0 -69 52 -125 122 -125c71 0 123 56 123 125zM627 138c0 -79 -65 -144 -143 -144
s-143 62 -143 144c0 83 65 145 143 145s143 -62 143 -145zM607 138c0 71 -52 126 -123 126c-70 0 -122 -55 -122 -126c0 -69 52 -125 122 -125c71 0 123 56 123 125z" />
    <glyph glyph-name="ampersand" unicode="&#x26;" horiz-adv-x="582" 
d="M237 382l192 -224l61 100l16 -9l-64 -105l115 -135h-26l-102 116c-61 -80 -117 -131 -196 -131c-97 0 -188 70 -188 180c0 74 50 162 159 216c-40 47 -86 104 -86 167c0 104 72 150 144 150c67 0 139 -46 139 -140c0 -85 -86 -142 -164 -185zM417 140l-199 235
c-84 -38 -152 -123 -152 -201c0 -101 82 -159 170 -159c72 0 135 64 181 125zM262 687c-75 0 -123 -52 -123 -129c0 -57 46 -119 86 -163c63 32 155 87 155 171c0 78 -52 121 -118 121z" />
    <glyph glyph-name="quotesingle" unicode="'" horiz-adv-x="157" 
d="M67 699h21v-201h-21v201z" />
    <glyph glyph-name="parenleft" unicode="(" horiz-adv-x="343" 
d="M91 352c0 -167 90 -353 229 -445v-23c-150 91 -252 282 -252 468c0 193 99 375 245 460v-21c-141 -93 -222 -276 -222 -439z" />
    <glyph glyph-name="parenright" unicode=")" horiz-adv-x="357" 
d="M259 352c0 160 -81 346 -222 439v21c146 -85 245 -276 245 -460c0 -186 -102 -377 -252 -468v23c139 92 229 278 229 445z" />
    <glyph glyph-name="asterisk" unicode="*" horiz-adv-x="392" 
d="M349 616l-144 -46l96 -129l-14 -10l-95 129l-92 -128l-15 9l94 129l-138 45l5 16l138 -45v152h17v-153l143 47z" />
    <glyph glyph-name="plus" unicode="+" horiz-adv-x="522" 
d="M51 353v20h196v199h21v-199h195v-20h-195v-206h-21v206h-196z" />
    <glyph glyph-name="comma" unicode="," horiz-adv-x="145" 
d="M37 -95h-23l48 132h31z" />
    <glyph glyph-name="hyphen" unicode="-" horiz-adv-x="384" 
d="M62 339v22h246v-22h-246z" />
    <glyph glyph-name="period" unicode="." horiz-adv-x="150" 
d="M76 44c12 0 23 -11 23 -24c0 -11 -11 -22 -23 -22s-24 8 -24 22c0 16 12 24 24 24z" />
    <glyph glyph-name="slash" unicode="/" horiz-adv-x="377" 
d="M339 766l-282 -820h-22l283 820h21z" />
    <glyph glyph-name="zero" unicode="0" horiz-adv-x="592" 
d="M294 691c-158 0 -236 -167 -236 -341c0 -171 78 -337 236 -337s237 166 237 337c0 168 -79 341 -237 341zM294 -9c-172 0 -257 176 -257 359c0 185 85 363 257 363c171 0 257 -178 257 -363c0 -183 -86 -359 -257 -359z" />
    <glyph glyph-name="one" unicode="1" horiz-adv-x="277" 
d="M187 663l-156 -214l-15 11l172 240h21v-700h-22v663z" />
    <glyph glyph-name="two" unicode="2" horiz-adv-x="549" 
d="M60 483h-22c0 118 80 217 236 217c152 0 237 -97 234 -207c-1 -75 -42 -141 -97 -187l-335 -285h434v-21h-470v19l355 302c48 43 89 102 91 169c3 98 -73 189 -212 189c-143 0 -214 -92 -214 -196z" />
    <glyph glyph-name="three" unicode="3" horiz-adv-x="546" 
d="M342 364v-1c104 -21 169 -84 169 -181c0 -103 -86 -192 -248 -192c-144 0 -215 72 -228 163l20 3c12 -78 74 -145 208 -145c151 0 225 84 225 170c0 87 -73 171 -225 171h-49v20h49c131 0 190 76 190 158c-1 191 -331 209 -373 45l-20 4c47 191 414 169 414 -50
c0 -54 -24 -140 -132 -165z" />
    <glyph glyph-name="four" unicode="4" horiz-adv-x="544" 
d="M28 198l396 502h19v-500h65v-21h-65v-179h-20v179h-395v19zM56 200h367v451l1 16l-6 -11z" />
    <glyph glyph-name="five" unicode="5" horiz-adv-x="550" 
d="M462 700v-20h-386v-271c54 26 115 43 181 43c39 0 78 -7 114 -22c90 -38 136 -119 137 -203c1 -112 -80 -227 -242 -227c-124 0 -198 67 -228 151l20 7c27 -77 93 -136 208 -136c148 0 221 103 220 205c0 72 -43 148 -119 182c-34 14 -73 22 -107 22
c-64 0 -126 -19 -184 -45l-21 10v304h407z" />
    <glyph glyph-name="six" unicode="6" horiz-adv-x="564" 
d="M283 421c-147 0 -221 -102 -221 -204c0 -101 74 -203 221 -203c148 0 221 102 221 203c0 102 -73 204 -221 204zM82 348l243 352h26l-184 -268l-27 -33c8 6 16 12 24 17c33 17 69 27 119 27c162 0 242 -114 242 -226c0 -113 -80 -225 -242 -225c-161 0 -242 112 -242 225
c0 46 13 92 41 131z" />
    <glyph glyph-name="seven" unicode="7" horiz-adv-x="534" 
d="M29 700h470v-20l-371 -680h-26l370 679h-443v21z" />
    <glyph glyph-name="eight" unicode="8" horiz-adv-x="558" 
d="M277 12c148 0 221 85 221 171s-73 173 -221 173c-147 0 -221 -87 -221 -173s74 -171 221 -171zM277 692c-90 0 -187 -49 -187 -157c0 -79 61 -158 187 -158c127 0 187 79 187 159c0 108 -98 156 -187 156zM361 370l-19 -3l20 -2c110 -28 158 -102 158 -181
c0 -97 -81 -193 -243 -193c-161 0 -242 96 -242 193c0 78 54 156 157 183l19 2l-33 7c-73 31 -109 95 -109 160c1 120 109 177 208 177c139 0 209 -88 209 -178c0 -70 -41 -139 -125 -165z" />
    <glyph glyph-name="nine" unicode="9" horiz-adv-x="560" 
d="M281 280c148 0 222 102 222 203c0 102 -74 205 -222 205c-147 0 -221 -103 -221 -205c0 -101 74 -203 221 -203zM483 354l-243 -354h-25l183 269l27 33c-8 -6 -16 -12 -24 -17c-33 -17 -69 -27 -120 -27c-161 0 -242 112 -242 225c0 114 81 226 242 227
c162 0 243 -112 243 -226c0 -45 -13 -92 -41 -130z" />
    <glyph glyph-name="colon" unicode=":" horiz-adv-x="160" 
d="M79 44c12 0 23 -11 23 -24c0 -11 -11 -22 -23 -22s-24 8 -24 22c0 16 12 24 24 24zM80 365c12 0 23 -11 23 -24c0 -11 -11 -22 -23 -22s-24 8 -24 22c0 16 12 24 24 24z" />
    <glyph glyph-name="semicolon" unicode=";" horiz-adv-x="160" 
d="M21 -104h24l55 130h-32zM80 365c12 0 23 -11 23 -24c0 -11 -11 -22 -23 -22s-24 8 -24 22c0 16 12 24 24 24z" />
    <glyph glyph-name="less" unicode="&#x3c;" horiz-adv-x="457" 
d="M407 543v-25l-339 -179l339 -175v-25l-366 190v19z" />
    <glyph glyph-name="equal" unicode="=" horiz-adv-x="523" 
d="M57 196v20h397v-20h-397zM57 364v21h397v-21h-397z" />
    <glyph glyph-name="greater" unicode="&#x3e;" horiz-adv-x="454" 
d="M48 516v25l366 -195v-19l-366 -190v25l340 174z" />
    <glyph glyph-name="question" unicode="?" horiz-adv-x="537" 
d="M261 204v-116h-22v117c0 72 54 97 111 127c54 29 108 71 111 163c3 98 -73 189 -212 189c-98 0 -163 -49 -194 -115l-19 11c35 74 104 127 213 127c152 0 236 -101 234 -211c-2 -108 -69 -153 -129 -186c-50 -26 -94 -47 -93 -106zM250 37c10 0 19 -9 19 -20
c0 -9 -9 -19 -19 -19s-20 10 -20 19c0 11 10 20 20 20z" />
    <glyph glyph-name="at" unicode="@" horiz-adv-x="785" 
d="M665 574l5 -5c-58 75 -155 116 -252 116c-210 0 -338 -174 -341 -347c-2 -165 88 -320 314 -320c27 0 61 5 98 20l7 -19c-40 -16 -70 -20 -105 -20c-237 0 -339 161 -337 339c3 181 138 369 361 369c185 0 319 -120 321 -285c2 -135 -89 -288 -211 -274
c-29 3 -53 24 -46 75h-3c-28 -44 -83 -79 -138 -76c-63 3 -121 65 -121 148c0 137 77 251 212 251c28 0 103 -14 111 -97l23 64h20l-77 -253c-5 -12 -9 -29 -9 -45c0 -26 12 -45 47 -45c98 0 171 130 171 252c0 58 -17 110 -50 152zM239 295c0 -63 41 -124 103 -124
c49 0 94 20 134 80c20 49 38 108 50 163c0 68 -36 110 -101 110c-128 2 -186 -119 -186 -229z" />
    <glyph glyph-name="A" unicode="A" 
d="M312 678l-165 -424h329c-56 144 -108 280 -164 424zM580 0l-95 233h-347l-94 -233h-24l282 710h21l281 -710h-24z" />
    <glyph glyph-name="B" unicode="B" horiz-adv-x="607" 
d="M87 677v-292h261c66 0 109 39 129 86c7 18 11 41 11 59c0 19 -4 42 -11 61c-20 47 -63 86 -129 86h-261zM348 699c77 0 126 -44 149 -100c8 -21 12 -44 12 -68c0 -23 -4 -47 -12 -68c-14 -35 -39 -65 -73 -84c91 -20 136 -104 136 -187c0 -95 -62 -192 -184 -192h-311
v699h283zM87 363v-342h289c108 0 163 85 163 170c0 86 -55 172 -163 172h-289z" />
    <glyph glyph-name="C" unicode="C" horiz-adv-x="744" 
d="M698 490h-24c-16 38 -39 70 -66 98c-57 60 -138 96 -227 96c-88 0 -169 -36 -227 -96c-57 -59 -94 -141 -94 -239c0 -99 37 -177 94 -235c58 -60 139 -97 227 -97c89 0 170 37 227 97c27 27 50 58 66 97h24c-18 -42 -44 -81 -75 -113c-62 -64 -146 -103 -242 -103
c-95 0 -179 39 -242 103c-61 64 -101 142 -101 251c0 105 40 190 101 254c63 64 147 103 242 103c96 0 180 -39 242 -103c31 -32 57 -70 75 -113z" />
    <glyph glyph-name="D" unicode="D" horiz-adv-x="691" 
d="M85 21h216c215 0 323 163 323 328s-108 330 -323 330h-216v-658zM64 700h237c229 0 344 -176 344 -351s-115 -349 -344 -349h-237v700z" />
    <glyph glyph-name="E" unicode="E" horiz-adv-x="501" 
d="M86 339v-318h369v-21h-390v700h388v-21h-367v-318h359v-22h-359z" />
    <glyph glyph-name="F" unicode="F" horiz-adv-x="481" 
d="M85 339v-339h-20v700h379v-21h-359v-318h318v-22h-318z" />
    <glyph glyph-name="G" unicode="G" horiz-adv-x="765" 
d="M704 486h-23c-48 124 -166 198 -293 198c-88 0 -169 -40 -228 -99c-54 -60 -93 -145 -93 -236c0 -90 39 -176 93 -236c59 -60 140 -99 228 -99c137 0 282 106 309 251h-306v22h333c-2 -27 -8 -53 -17 -74c-49 -126 -196 -222 -319 -222c-95 0 -180 41 -243 106
c-61 65 -100 153 -100 252c0 98 40 186 100 252c63 65 148 105 243 105c138 0 269 -84 316 -220z" />
    <glyph glyph-name="H" unicode="H" horiz-adv-x="603" 
d="M86 700v-335h429v335h22v-700h-22v344h-429v-344h-21v700h21z" />
    <glyph glyph-name="I" unicode="I" horiz-adv-x="381" 
d="M348 700v-19h-148v-661h148v-20h-316v20h147v661h-147v19h316z" />
    <glyph glyph-name="J" unicode="J" horiz-adv-x="435" 
d="M372 699v-403c0 -203 -153 -296 -344 -296v22c180 0 323 84 323 274v383h-214v20h235z" />
    <glyph glyph-name="K" unicode="K" horiz-adv-x="535" 
d="M64 700h22v-700h-22v700zM104 341v18l372 341h35l-386 -349l396 -351h-35z" />
    <glyph glyph-name="L" unicode="L" horiz-adv-x="495" 
d="M87 700v-677h372v-23h-394v700h22z" />
    <glyph glyph-name="M" unicode="M" horiz-adv-x="739" 
d="M86 664v-664h-21v700h20l286 -423l288 423h20v-700h-21v665l-279 -414h-14z" />
    <glyph glyph-name="N" unicode="N" horiz-adv-x="622" 
d="M87 0h-22v700h18l457 -660v660h21v-700h-20l-454 656v-656z" />
    <glyph glyph-name="O" unicode="O" horiz-adv-x="798" 
d="M732 350c0 93 -38 177 -98 238s-145 100 -238 100c-92 0 -176 -39 -237 -100c-59 -61 -98 -145 -98 -238s39 -177 98 -238c61 -61 145 -100 237 -100c93 0 178 39 238 100s98 145 98 238zM39 350c0 99 42 188 106 254s153 106 251 106c100 0 189 -40 253 -106
s105 -155 105 -254s-41 -188 -105 -254s-153 -106 -253 -106c-98 0 -187 40 -251 106s-106 155 -106 254z" />
    <glyph glyph-name="P" unicode="P" horiz-adv-x="561" 
d="M65 700h243c140 0 211 -110 211 -218c0 -110 -71 -218 -211 -218h-221v-264h-22v700zM87 285h221c127 0 190 98 190 196s-63 197 -190 197h-221v-393z" />
    <glyph glyph-name="Q" unicode="Q" horiz-adv-x="806" 
d="M737 350c0 93 -39 177 -99 238s-144 100 -238 100c-92 0 -176 -39 -237 -100c-59 -61 -98 -145 -98 -238s39 -177 98 -238c61 -61 145 -100 237 -100c85 0 164 34 222 85l-213 189h33l198 -172c59 61 97 144 97 236zM655 98l111 -98h-34l-94 82
c-63 -58 -145 -92 -238 -92c-98 0 -187 40 -251 106s-106 155 -106 254s42 188 106 254s153 106 251 106c100 0 189 -40 253 -106s105 -155 105 -254c0 -98 -40 -186 -103 -252z" />
    <glyph glyph-name="R" unicode="R" horiz-adv-x="567" 
d="M86 678v-678h-21v700h243c141 0 211 -104 211 -206c0 -103 -70 -205 -211 -205h-105l320 -289h-32l-321 291v18h138c127 0 190 93 190 185s-63 184 -190 184h-222z" />
    <glyph glyph-name="S" unicode="S" horiz-adv-x="589" 
d="M500 540l-2 10c-6 27 -19 55 -37 75c-41 42 -112 63 -171 62c-65 -1 -139 -25 -180 -78c-24 -30 -32 -67 -29 -104c9 -116 121 -132 222 -143c100 -10 210 -25 233 -131c3 -14 5 -29 5 -43c0 -124 -128 -195 -248 -195c-102 0 -227 59 -239 173l-1 9l22 2l1 -9
c13 -100 126 -154 218 -154c108 0 224 63 224 175c0 11 -1 24 -4 37c-20 91 -122 105 -215 115c-107 11 -229 27 -239 163c-3 39 8 84 34 118c44 57 123 86 202 86c103 0 204 -50 223 -153l2 -12z" />
    <glyph glyph-name="T" unicode="T" horiz-adv-x="561" 
d="M288 0h-21v678h-240v22h501v-22h-240v-678z" />
    <glyph glyph-name="U" unicode="U" 
d="M314 -8c-116 0 -246 68 -246 199v509h22v-510c0 -118 119 -176 224 -176s224 58 224 177v509h22v-510c0 -130 -131 -198 -246 -198z" />
    <glyph glyph-name="V" unicode="V" horiz-adv-x="630" 
d="M314 21l268 678h24l-281 -710h-21l-282 710h24z" />
    <glyph glyph-name="W" unicode="W" horiz-adv-x="891" 
d="M612 -7l-170 478c-55 -160 -113 -319 -168 -478h-18l-234 706h22l221 -668l164 466h26l165 -465l222 667h22l-234 -706h-18z" />
    <glyph glyph-name="X" unicode="X" horiz-adv-x="582" 
d="M25 700h26l240 -330l241 330h25l-254 -351l254 -349h-25l-241 330l-240 -330h-26l254 349z" />
    <glyph glyph-name="Y" unicode="Y" horiz-adv-x="579" 
d="M19 699h27l242 -387l242 387h27l-258 -411v-288h-22v288z" />
    <glyph glyph-name="Z" unicode="Z" horiz-adv-x="593" 
d="M35 0v28l494 652h-479v20h501v-29l-494 -650h502v-21h-524z" />
    <glyph glyph-name="bracketleft" unicode="[" horiz-adv-x="268" 
d="M232 772v-20h-112v-801h108v-20h-129v841h133z" />
    <glyph glyph-name="backslash" unicode="\" horiz-adv-x="401" 
d="M327 -56l-283 828h22l283 -828h-22z" />
    <glyph glyph-name="bracketright" unicode="]" horiz-adv-x="253" 
d="M34 752v20h133v-841h-129v20h108v801h-112z" />
    <glyph glyph-name="asciicircum" unicode="^" horiz-adv-x="489" 
d="M52 324l186 376h16l187 -376h-24l-171 346l-172 -346h-22z" />
    <glyph glyph-name="underscore" unicode="_" horiz-adv-x="578" 
d="M57 -9h459v-21h-459v21z" />
    <glyph glyph-name="grave" unicode="`" horiz-adv-x="273" 
d="M171 718h-24l-69 80h30z" />
    <glyph glyph-name="a" unicode="a" horiz-adv-x="628" 
d="M311 676l-164 -423h328c-56 143 -107 280 -164 423zM579 0l-95 232h-346l-94 -232h-23l280 708h21l281 -708h-24z" />
    <glyph glyph-name="b" unicode="b" horiz-adv-x="602" 
d="M87 675v-292h261c65 0 108 40 128 86c7 18 11 41 11 60s-4 41 -11 60c-20 46 -63 86 -128 86h-261zM348 697c76 0 125 -44 148 -100c8 -21 12 -44 12 -67c0 -24 -4 -48 -12 -68c-14 -35 -38 -66 -73 -84c91 -20 135 -104 135 -186c0 -95 -61 -192 -182 -192h-311v697h283
zM87 362v-341h289c107 0 162 85 162 170s-55 171 -162 171h-289z" />
    <glyph glyph-name="c" unicode="c" horiz-adv-x="744" 
d="M698 490h-24c-16 38 -39 70 -66 98c-57 60 -138 96 -227 96c-88 0 -169 -36 -227 -96c-57 -59 -94 -141 -94 -239c0 -99 37 -177 94 -235c58 -60 139 -97 227 -97c89 0 170 37 227 97c27 27 50 58 66 97h24c-18 -42 -44 -81 -75 -113c-62 -64 -146 -103 -242 -103
c-95 0 -179 39 -242 103c-61 64 -101 142 -101 251c0 105 40 190 101 254c63 64 147 103 242 103c96 0 180 -39 242 -103c31 -32 57 -70 75 -113z" />
    <glyph glyph-name="d" unicode="d" horiz-adv-x="691" 
d="M85 21h216c214 0 322 163 322 327s-108 328 -322 328h-216v-655zM64 697h237c228 0 343 -175 343 -349c0 -175 -115 -348 -343 -348h-237v697z" />
    <glyph glyph-name="e" unicode="e" horiz-adv-x="501" 
d="M87 339v-318h367v-21h-389v701h387v-21h-365v-320h357v-21h-357z" />
    <glyph glyph-name="f" unicode="f" horiz-adv-x="481" 
d="M86 339v-339h-21v700h378v-21h-357v-319h316v-21h-316z" />
    <glyph glyph-name="g" unicode="g" horiz-adv-x="761" 
d="M702 487h-23c-47 124 -165 198 -291 198c-88 0 -169 -40 -227 -99c-55 -60 -93 -144 -93 -235c0 -90 38 -176 93 -235c58 -61 139 -99 227 -99c136 0 280 106 307 250h-304v22h331c-2 -27 -8 -53 -17 -74c-48 -125 -195 -221 -317 -221c-95 0 -180 41 -242 106
c-62 64 -100 152 -100 251c0 98 39 186 100 251c62 65 147 105 242 105c137 0 268 -84 314 -220z" />
    <glyph glyph-name="h" unicode="h" horiz-adv-x="603" 
d="M86 701v-337h428v337h22v-701h-22v343h-428v-343h-21v701h21z" />
    <glyph glyph-name="i" unicode="i" horiz-adv-x="400" 
d="M357 697v-20h-147v-656h147v-21h-315v21h147v656h-147v20h315z" />
    <glyph glyph-name="j" unicode="j" horiz-adv-x="430" 
d="M368 697v-401c0 -203 -152 -296 -343 -296v22c180 0 322 84 322 274v381h-213v20h234z" />
    <glyph glyph-name="k" unicode="k" horiz-adv-x="522" 
d="M65 697h21v-697h-21v697zM103 340v18l375 342h31l-386 -350l388 -350h-32z" />
    <glyph glyph-name="l" unicode="l" horiz-adv-x="495" 
d="M87 702v-680h371v-22h-393v702h22z" />
    <glyph glyph-name="m" unicode="m" horiz-adv-x="739" 
d="M86 662v-662h-20v698h19l286 -422l287 422h19v-698h-20v663l-278 -413h-15z" />
    <glyph glyph-name="n" unicode="n" horiz-adv-x="621" 
d="M87 0h-22v699l18 -1l456 -658v658h20v-698h-19l-453 654v-654z" />
    <glyph glyph-name="o" unicode="o" horiz-adv-x="810" 
d="M738 349c0 93 -38 177 -97 237c-60 61 -145 100 -237 100s-176 -39 -236 -100c-60 -60 -98 -144 -98 -237s38 -177 98 -237c60 -62 144 -100 236 -100s177 38 237 100c59 60 97 144 97 237zM48 349c0 99 41 188 105 253c64 66 153 106 251 106c99 0 188 -40 252 -106
c63 -65 105 -154 105 -253s-42 -188 -105 -253c-64 -66 -153 -106 -252 -106c-98 0 -187 40 -251 106c-64 65 -105 154 -105 253z" />
    <glyph glyph-name="p" unicode="p" horiz-adv-x="565" 
d="M65 700h242c141 0 211 -110 211 -218c0 -109 -70 -217 -211 -217h-220v-265h-22v700zM87 286h220c127 0 190 97 190 195s-63 197 -190 197h-220v-392z" />
    <glyph glyph-name="q" unicode="q" horiz-adv-x="806" 
d="M731 349c0 185 -151 337 -335 337s-334 -153 -334 -337s150 -337 334 -337c84 0 163 33 221 85l-212 188h32l198 -171c58 60 96 143 96 235zM650 98l110 -98h-34l-93 82c-63 -58 -145 -92 -237 -92c-197 0 -356 162 -356 359s159 359 356 359c195 0 359 -159 359 -359
c0 -98 -43 -186 -105 -251z" />
    <glyph glyph-name="r" unicode="r" horiz-adv-x="569" 
d="M86 676v-676h-21v698h242c141 0 211 -104 211 -206c0 -103 -70 -204 -211 -204h-105l320 -288h-32l-320 290v18h137c127 0 190 92 190 184s-63 184 -190 184h-221z" />
    <glyph glyph-name="s" unicode="s" horiz-adv-x="579" 
d="M493 541l-2 10c-6 27 -19 55 -37 75c-42 43 -112 64 -173 63c-108 -2 -219 -67 -210 -184c9 -121 122 -133 222 -144c101 -10 212 -25 236 -132c3 -16 5 -29 5 -43c0 -125 -129 -197 -250 -197c-102 0 -229 59 -241 174l-1 10l23 2l1 -10c13 -100 127 -155 219 -155
c109 0 226 64 226 177c0 11 -1 23 -4 37c-20 92 -123 106 -217 116c-107 11 -227 18 -243 164c-9 140 120 206 240 206c104 0 206 -51 226 -155l2 -10z" />
    <glyph glyph-name="t" unicode="t" horiz-adv-x="561" 
d="M287 0h-20v676h-240v22h500v-22h-240v-676z" />
    <glyph glyph-name="u" unicode="u" horiz-adv-x="618" 
d="M309 -8c-115 0 -245 68 -245 199v506h22v-507c0 -118 119 -176 223 -176c105 0 224 58 224 177v506h21v-507c0 -130 -130 -198 -245 -198z" />
    <glyph glyph-name="v" unicode="v" horiz-adv-x="630" 
d="M313 21l268 682h24l-281 -714h-21l-280 714h23z" />
    <glyph glyph-name="w" unicode="w" horiz-adv-x="891" 
d="M611 -7l-169 476c-56 -159 -113 -318 -168 -476h-18l-234 708h22l221 -670l164 464h25l164 -463l222 669h22l-234 -708h-17z" />
    <glyph glyph-name="x" unicode="x" horiz-adv-x="582" 
d="M26 697h25l239 -330c80 109 162 220 241 330h24l-253 -349l253 -348h-24l-241 330l-239 -330h-25l253 348z" />
    <glyph glyph-name="y" unicode="y" horiz-adv-x="579" 
d="M20 700h26l241 -389l242 389h26l-257 -413v-287h-21v287z" />
    <glyph glyph-name="z" unicode="z" horiz-adv-x="593" 
d="M35 0v28l494 652h-479v20h501v-29l-494 -650h502v-21h-524z" />
    <glyph glyph-name="braceleft" unicode="{" horiz-adv-x="270" 
d="M76 349v-1c53 -24 73 -84 73 -150v-170c0 -60 29 -77 77 -78v-18c-75 0 -99 36 -99 94v170c0 66 -20 119 -69 138v30c52 18 69 75 69 142v175c0 54 24 94 81 94h18v-19c-47 2 -77 -9 -77 -75v-176c0 -86 -24 -133 -73 -156z" />
    <glyph glyph-name="bar" unicode="|" horiz-adv-x="212" 
d="M95 -149v908h23v-908h-23z" />
    <glyph glyph-name="asciitilde" unicode="~" horiz-adv-x="523" 
d="M450 385l15 -9c-53 -90 -128 -85 -210 -40c-77 42 -132 48 -191 -32l-14 10c60 97 135 83 216 39c72 -41 134 -47 184 32z" />
    <glyph glyph-name="Euro" unicode="&#x20ac;" horiz-adv-x="758" 
d="M23 310v20h46v41h-46v20h48c7 80 44 147 97 202c63 64 147 103 242 103c94 0 178 -39 241 -103c30 -32 56 -70 74 -113h-24c-16 38 -38 70 -65 98c-57 59 -138 96 -226 96s-169 -37 -227 -96c-49 -51 -84 -113 -92 -187h180v-20h-182v-41h182v-20h-181
c8 -76 43 -142 93 -192c58 -60 139 -97 227 -97s169 37 226 97c27 26 49 58 65 96h24c-18 -42 -44 -81 -74 -112c-63 -64 -147 -103 -241 -103c-95 0 -179 39 -242 103c-53 55 -90 125 -98 208h-47z" />
    <glyph glyph-name="quotesinglbase" unicode="&#x201a;" horiz-adv-x="220" 
d="M48 -112l53 155h30l-60 -155h-23z" />
    <glyph glyph-name="florin" unicode="&#x192;" horiz-adv-x="465" 
d="M429 703v-19c-88 1 -120 -50 -137 -152l-12 -65h113l-4 -17h-112l-95 -494c-16 -81 -57 -153 -167 -153h-18l3 19h17c91 0 129 61 144 137l95 491h-95l4 17h94l12 64c22 140 71 173 158 172z" />
    <glyph glyph-name="quotedblbase" unicode="&#x201e;" horiz-adv-x="297" 
d="M53 -112l53 155h27l-61 -155h-19zM132 -112l53 155h27l-61 -155h-19z" />
    <glyph glyph-name="ellipsis" unicode="&#x2026;" horiz-adv-x="410" 
d="M86 42c14 0 23 -9 23 -23c0 -11 -9 -21 -23 -21c-12 0 -20 10 -20 21c0 14 8 23 20 23zM202 42c14 0 23 -9 23 -23c0 -11 -9 -21 -23 -21c-12 0 -21 10 -21 21c0 14 9 23 21 23zM316 42c13 0 22 -9 22 -23c0 -11 -9 -21 -22 -21c-12 0 -21 10 -21 21c0 14 9 23 21 23z
" />
    <glyph glyph-name="dagger" unicode="&#x2020;" horiz-adv-x="489" 
d="M231 -42v500h-199v19h199v222h20v-222h201v-19h-201v-500h-20z" />
    <glyph glyph-name="daggerdbl" unicode="&#x2021;" horiz-adv-x="481" 
d="M246 461v-259h188v-19h-188v-225h-20v225h-183v19h183v259h-179v19h179v218h20v-218h194v-19h-194z" />
    <glyph glyph-name="circumflex" unicode="&#x2c6;" horiz-adv-x="331" 
d="M104 723h-26l73 67h32l73 -67h-26l-63 52z" />
    <glyph glyph-name="perthousand" unicode="&#x2030;" horiz-adv-x="1018" 
d="M354 560c0 -79 -65 -144 -143 -144s-143 62 -143 144c0 83 65 145 143 145s143 -62 143 -145zM565 716h23l-460 -727h-24zM334 560c0 71 -52 126 -123 126c-70 0 -122 -55 -122 -126c0 -69 52 -125 122 -125c71 0 123 56 123 125zM632 138c0 -79 -65 -144 -143 -144
s-143 62 -143 144c0 83 65 145 143 145s143 -62 143 -145zM612 138c0 71 -52 126 -123 126c-70 0 -122 -55 -122 -126c0 -69 52 -125 122 -125c71 0 123 56 123 125zM957 138c0 -79 -65 -144 -143 -144s-143 62 -143 144c0 83 65 145 143 145s143 -62 143 -145zM937 138
c0 71 -52 126 -123 126c-70 0 -122 -55 -122 -126c0 -69 52 -125 122 -125c71 0 123 56 123 125z" />
    <glyph glyph-name="guilsinglleft" unicode="&#x2039;" horiz-adv-x="285" 
d="M202 149l-157 193l157 196h27l-157 -196l157 -193h-27z" />
    <glyph glyph-name="OE" unicode="&#x152;" horiz-adv-x="879" 
d="M472 339v-320h369v-21h-378c-21 -4 -46 -6 -68 -6c-99 0 -188 31 -252 97s-105 162 -105 261c0 105 41 197 105 263s153 95 252 95c19 0 41 -2 59 -5h385v-21h-367v-321h359v-22h-359zM395 686c-93 0 -177 -28 -237 -89s-99 -148 -99 -247c0 -93 39 -184 99 -245
s144 -91 237 -91c18 0 36 0 55 3v665c-18 3 -37 4 -55 4z" />
    <glyph glyph-name="quoteleft" unicode="&#x2018;" horiz-adv-x="200" 
d="M114 702h24l-47 -130h-32z" />
    <glyph glyph-name="quoteright" unicode="&#x2019;" horiz-adv-x="197" 
d="M85 572h-24l47 130h32z" />
    <glyph glyph-name="quotedblleft" unicode="&#x201c;" horiz-adv-x="290" 
d="M114 702h24l-47 -130h-32zM204 702h24l-47 -130h-32z" />
    <glyph glyph-name="quotedblright" unicode="&#x201d;" horiz-adv-x="283" 
d="M172 572h-24l47 130h32zM82 572h-24l47 130h32z" />
    <glyph glyph-name="bullet" unicode="&#x2022;" horiz-adv-x="302" 
d="M147 257c-44 0 -77 34 -77 78s33 79 77 79c43 0 77 -35 77 -79s-34 -78 -77 -78z" />
    <glyph glyph-name="endash" unicode="&#x2013;" horiz-adv-x="619" 
d="M68 346v21h478v-21h-478z" />
    <glyph glyph-name="emdash" unicode="&#x2014;" horiz-adv-x="808" 
d="M73 343v21h669v-21h-669z" />
    <glyph glyph-name="tilde" unicode="&#x2dc;" horiz-adv-x="298" 
d="M76 719l-16 5c2 20 16 35 33 42c53 22 69 -45 108 -30c11 5 20 15 24 30l17 -5c-5 -20 -16 -35 -34 -42c-51 -20 -70 48 -110 29c-9 -4 -19 -13 -22 -29z" />
    <glyph glyph-name="trademark" unicode="&#x2122;" horiz-adv-x="875" 
d="M344 683h-143v-384h-21v384h-140v17h304v-17zM585 390l-162 297h-1v-388h-20v401h37l157 -288l157 288h39v-401h-22v388h-1l-162 -297h-22z" />
    <glyph glyph-name="guilsinglright" unicode="&#x203a;" horiz-adv-x="290" 
d="M242 340l-155 -193h-27l157 193l-157 196h27z" />
    <glyph glyph-name="oe" unicode="&#x153;" horiz-adv-x="879" 
d="M472 339v-320h369v-21h-378c-21 -4 -46 -6 -68 -6c-99 0 -188 31 -252 97s-105 162 -105 261c0 105 41 197 105 263s153 95 252 95c19 0 41 -2 59 -5h385v-21h-367v-321h359v-22h-359zM395 686c-93 0 -177 -28 -237 -89s-99 -148 -99 -247c0 -93 39 -184 99 -245
s144 -91 237 -91c18 0 36 0 55 3v665c-18 3 -37 4 -55 4z" />
    <glyph glyph-name="exclamdown" unicode="&#xa1;" horiz-adv-x="167" 
d="M67 -190h24v613h-24v-613zM79 474c-10 0 -19 9 -19 20c0 9 9 19 19 19s20 -10 20 -19c0 -11 -10 -20 -20 -20z" />
    <glyph glyph-name="cent" unicode="&#xa2;" horiz-adv-x="752" 
d="M371 695v85h22v-84c92 -2 174 -41 235 -103c31 -32 56 -70 74 -113h-24c-15 38 -38 70 -65 98c-56 57 -135 94 -220 96v-653c85 1 164 38 220 97c27 26 50 58 65 96h24c-18 -42 -43 -81 -74 -112c-61 -63 -143 -102 -235 -103v-101h-22v102c-89 3 -167 41 -225 102
c-62 63 -100 149 -100 246c0 96 38 182 100 245c58 60 136 98 225 102zM160 578c-57 -59 -93 -141 -93 -230c0 -90 36 -172 93 -230c54 -57 129 -93 211 -97v652c-82 -4 -157 -40 -211 -95z" />
    <glyph glyph-name="sterling" unicode="&#xa3;" horiz-adv-x="524" 
d="M474 578l-20 -5c-25 85 -90 112 -162 112c-79 0 -157 -45 -157 -166v-164h222v-20h-222v-314h351v-21h-453v21h79v314h-77v20h77v164c0 131 88 187 178 187c76 0 153 -22 184 -128z" />
    <glyph glyph-name="yen" unicode="&#xa5;" horiz-adv-x="579" 
d="M109 178v20h168v91h-167v20h154l-245 390h27l242 -388l242 388h27l-245 -390h159v-20h-172v-91h171v-20h-171v-178h-22v178h-168z" />
    <glyph glyph-name="brokenbar" unicode="&#xa6;" horiz-adv-x="196" 
d="M86 -143v390h23v-390h-23zM109 776v-395h-23v395h23z" />
    <glyph glyph-name="section" unicode="&#xa7;" horiz-adv-x="440" 
d="M214 259c22 -4 46 -12 79 -24c44 18 76 56 76 100c-1 80 -86 99 -154 112c-21 4 -43 8 -60 13c-47 -22 -79 -55 -78 -100c0 -73 82 -91 137 -101zM135 470c-43 24 -62 68 -62 104c0 91 79 146 164 146c42 0 92 -10 129 -38l-10 -18c-38 28 -80 34 -122 35
c-73 1 -140 -51 -139 -125c0 -76 70 -98 135 -108c85 -12 162 -48 162 -131c0 -32 -13 -79 -76 -110c48 -34 60 -61 60 -102c0 -93 -101 -136 -176 -136c-59 0 -113 18 -151 59l16 16c34 -33 85 -53 135 -53c70 -1 153 40 152 114c0 78 -89 105 -145 116
c-79 11 -154 45 -154 121c0 37 22 84 82 110z" />
    <glyph glyph-name="dieresis" unicode="&#xa8;" horiz-adv-x="365" 
d="M96 806c12 0 23 -11 23 -24c0 -11 -11 -22 -23 -22s-24 8 -24 22c0 16 12 24 24 24zM252 806c12 0 23 -11 23 -24c0 -11 -11 -22 -23 -22s-24 8 -24 22c0 16 12 24 24 24z" />
    <glyph glyph-name="copyright" unicode="&#xa9;" horiz-adv-x="792" 
d="M547 281h25c-12 -28 -26 -51 -44 -69c-34 -35 -81 -57 -133 -57s-98 22 -132 57c-34 34 -55 82 -55 134c0 53 21 100 55 136c34 35 80 56 132 56s99 -21 133 -56c18 -18 32 -41 44 -70h-25c-9 23 -22 40 -36 53c-29 31 -70 50 -116 50s-87 -19 -117 -50
c-29 -30 -48 -71 -48 -119c0 -46 19 -88 48 -118c30 -31 71 -49 117 -49s87 18 116 49c14 13 27 31 36 53zM57 350c0 201 153 347 335 347c184 0 337 -146 337 -347s-153 -349 -337 -349c-182 0 -335 148 -335 349zM79 350c0 -192 141 -328 313 -328c174 0 315 136 315 328
s-141 326 -315 326c-172 0 -313 -134 -313 -326z" />
    <glyph glyph-name="ordfeminine" unicode="&#xaa;" horiz-adv-x="628" 
d="M21 -60v21h587v-21h-587zM311 676l-164 -423h328c-56 143 -107 280 -164 423zM579 0l-95 232h-346l-94 -232h-23l280 708h21l281 -708h-24z" />
    <glyph glyph-name="guillemotleft" unicode="&#xab;" horiz-adv-x="424" 
d="M207 168l-156 193l156 196h27l-157 -196l157 -193h-27zM335 168l-156 193l156 196h27l-157 -196l157 -193h-27z" />
    <glyph glyph-name="logicalnot" unicode="&#xac;" horiz-adv-x="556" 
d="M46 382v20h439v-235h-20v215h-419z" />
    <glyph glyph-name="uni00AD" unicode="&#xad;" horiz-adv-x="396" 
d="M47 340v20h279v-20h-279z" />
    <glyph glyph-name="registered" unicode="&#xae;" horiz-adv-x="802" 
d="M315 516v-343h-20v362h114c66 0 117 -38 118 -102c0 -51 -40 -104 -118 -106h-37l149 -154h-28l-143 153v0v19h59c69 1 98 45 98 89s-30 82 -98 82h-94zM56 352c0 204 155 352 340 352c188 0 343 -148 343 -352c0 -205 -155 -355 -343 -355c-185 0 -340 150 -340 355z
M77 352c0 -196 144 -335 319 -335c178 0 322 139 322 335c0 195 -144 332 -322 332c-175 0 -319 -137 -319 -332z" />
    <glyph glyph-name="macron" unicode="&#xaf;" horiz-adv-x="373" 
d="M67 766v19h241v-19h-241z" />
    <glyph glyph-name="degree" unicode="&#xb0;" horiz-adv-x="332" 
d="M168 496c-59 0 -105 47 -105 105s46 105 105 105s106 -47 106 -105s-47 -105 -106 -105zM168 515c47 0 85 41 85 86c0 44 -38 85 -85 85s-85 -41 -85 -85c0 -45 38 -86 85 -86z" />
    <glyph glyph-name="plusminus" unicode="&#xb1;" horiz-adv-x="532" 
d="M54 19h425v-19h-425v19zM54 338v20h198v199h21v-199h198v-20h-198v-206h-21v206h-198z" />
    <glyph glyph-name="twosuperior" unicode="&#xb2;" horiz-adv-x="409" 
d="M74 618h-21c0 74 49 137 144 137c92 0 144 -59 142 -126c-1 -45 -26 -87 -58 -114c-63 -53 -127 -106 -190 -160h251v-22h-288v18l211 179c34 28 51 65 52 97c2 58 -41 106 -120 106c-81 0 -123 -54 -123 -115z" />
    <glyph glyph-name="threesuperior" unicode="&#xb3;" horiz-adv-x="413" 
d="M325 642c0 -30 -22 -82 -78 -98c59 -10 99 -53 99 -106c0 -64 -53 -118 -151 -118c-89 0 -131 48 -140 106l22 1c6 -46 43 -86 118 -86c86 0 128 42 128 96c0 51 -42 97 -128 97h-33v20h33c75 0 107 44 107 89c0 58 -55 88 -109 88c-45 0 -92 -20 -100 -66l-21 1
c9 61 66 87 121 87c65 0 132 -37 132 -111z" />
    <glyph glyph-name="acute" unicode="&#xb4;" horiz-adv-x="244" 
d="M114 718h-24l65 80h30z" />
    <glyph glyph-name="_181" unicode="&#xb5;" horiz-adv-x="739" 
d="M86 662v-662h-20v698h19l286 -422l287 422h19v-698h-20v663l-278 -413h-15z" />
    <glyph glyph-name="paragraph" unicode="&#xb6;" horiz-adv-x="597" 
d="M253 -111v432c-138 6 -207 98 -207 187c0 96 69 192 207 192h272v-811h-20v792h-232v-792h-20z" />
    <glyph glyph-name="periodcentered" unicode="&#xb7;" horiz-adv-x="205" 
d="M101 360c12 0 23 -11 23 -24c0 -11 -11 -22 -23 -22s-24 8 -24 22c0 16 12 24 24 24z" />
    <glyph glyph-name="cedilla" unicode="&#xb8;" horiz-adv-x="292" 
d="M161 5l-33 -58c68 0 89 -42 84 -72c-6 -34 -39 -52 -81 -52c-19 0 -41 5 -63 18l3 17c37 -23 113 -21 120 20c7 40 -48 58 -92 53c13 26 28 49 41 74h21z" />
    <glyph glyph-name="onesuperior" unicode="&#xb9;" horiz-adv-x="265" 
d="M156 715l-86 -119l-17 12l103 144h21v-418h-21v381z" />
    <glyph glyph-name="ordmasculine" unicode="&#xba;" horiz-adv-x="398" 
d="M196 425c-77 0 -136 57 -136 136c0 76 59 133 135 133c77 0 137 -57 137 -133c0 -79 -60 -136 -136 -136zM196 444c62 0 114 47 114 117c0 68 -52 113 -114 113c-63 0 -115 -45 -115 -113c0 -70 52 -117 115 -117zM67 303v21h263v-21h-263z" />
    <glyph glyph-name="guillemotright" unicode="&#xbb;" horiz-adv-x="406" 
d="M353 361l-156 -193h-27l157 193l-157 196h27zM225 361l-156 -193h-27l157 193l-157 196h27z" />
    <glyph glyph-name="onequarter" unicode="&#xbc;" horiz-adv-x="793" 
d="M174 -23h-24l440 769h24zM673 419v-298h58v-20h-58v-101h-22v101h-212l-16 22l215 296h35zM447 121h205v283zM168 664l-86 -119l-17 12l103 144h21v-405h-21v368z" />
    <glyph glyph-name="onehalf" unicode="&#xbd;" horiz-adv-x="830" 
d="M154 -23h-24l440 769h24zM161 664l-86 -119l-17 12l103 144h21v-405h-21v368zM488 284h-21c0 74 47 137 142 137c92 0 144 -59 142 -126c-1 -45 -26 -87 -58 -114l-193 -162h254v-20h-288v18l211 179c34 28 51 65 52 97c2 58 -41 106 -120 106c-81 0 -121 -54 -121 -115z
" />
    <glyph glyph-name="threequarters" unicode="&#xbe;" horiz-adv-x="889" 
d="M778 419v-298h46v-21h-46v-100h-22v100h-218l-16 23l221 296h35zM546 121h211v283zM278 -23h-24l440 769h24zM346 604c0 -30 -22 -82 -78 -98c59 -10 99 -53 99 -106c0 -64 -53 -118 -151 -118c-89 0 -131 48 -140 106l22 1c6 -46 43 -86 118 -86c86 0 128 42 128 96
c0 51 -42 97 -128 97h-33v20h33c75 0 107 44 107 89c0 58 -55 88 -109 88c-45 0 -92 -20 -100 -66l-21 1c9 61 66 87 121 87c65 0 132 -37 132 -111z" />
    <glyph glyph-name="questiondown" unicode="&#xbf;" horiz-adv-x="555" 
d="M288 425v-116c1 -59 -43 -80 -93 -106c-60 -33 -127 -78 -129 -186c-1 -110 82 -211 234 -211c109 0 178 53 213 128l-19 10c-31 -66 -96 -115 -194 -115c-139 0 -215 90 -212 189c4 92 57 134 111 163c57 30 111 55 112 127l-1 117h-22zM299 477c-10 -1 -19 8 -19 19
c0 9 9 19 19 19c9 0 20 -10 20 -19c0 -11 -10 -20 -20 -19z" />
    <glyph glyph-name="Agrave" unicode="&#xc0;" 
d="M312 678l-165 -424h329c-56 144 -108 280 -164 424zM580 0l-95 233h-347l-94 -233h-24l282 710h21l281 -710h-24zM331 753h-24l-69 80h30z" />
    <glyph glyph-name="Aacute" unicode="&#xc1;" 
d="M312 678l-165 -424h329c-56 144 -108 280 -164 424zM580 0l-95 233h-347l-94 -233h-24l282 710h21l281 -710h-24zM323 752h-24l65 80h30z" />
    <glyph glyph-name="Acircumflex" unicode="&#xc2;" 
d="M312 678l-165 -424h329c-56 144 -108 280 -164 424zM580 0l-95 233h-347l-94 -233h-24l282 710h21l281 -710h-24zM249 749h-26l73 67h32l73 -67h-26l-63 52z" />
    <glyph glyph-name="Atilde" unicode="&#xc3;" 
d="M312 678l-165 -424h329c-56 144 -108 280 -164 424zM580 0l-95 233h-347l-94 -233h-24l282 710h21l281 -710h-24zM240 758l-16 5c2 20 16 35 33 42c53 22 69 -45 108 -30c11 5 20 15 24 30l17 -5c-5 -20 -16 -35 -34 -42c-51 -20 -70 48 -110 29c-9 -4 -19 -13 -22 -29z
" />
    <glyph glyph-name="Adieresis" unicode="&#xc4;" 
d="M312 678l-165 -424h329c-56 144 -108 280 -164 424zM580 0l-95 233h-347l-94 -233h-24l282 710h21l281 -710h-24zM235 795c12 0 23 -11 23 -24c0 -11 -11 -22 -23 -22s-24 8 -24 22c0 16 12 24 24 24zM391 795c12 0 23 -11 23 -24c0 -11 -11 -22 -23 -22s-24 8 -24 22
c0 16 12 24 24 24z" />
    <glyph glyph-name="AE" unicode="&#xc6;" horiz-adv-x="868" 
d="M454 339v-318h369v-21h-390v261h-239l-146 -261h-24l391 700h406v-21h-367v-319h359v-21h-359zM433 683h-5l-224 -401h229v401z" />
    <glyph glyph-name="Ccedilla" unicode="&#xc7;" horiz-adv-x="744" 
d="M698 482h-24c-16 38 -39 70 -66 98c-57 60 -138 96 -227 96c-88 0 -169 -36 -227 -96c-57 -59 -94 -142 -94 -231c0 -90 37 -173 94 -231c58 -60 139 -97 227 -97c89 0 170 37 227 97c27 27 50 58 66 97h24c-18 -42 -44 -81 -75 -113c-59 -61 -138 -100 -229 -103
l-29 -52c68 0 89 -42 84 -72c-6 -34 -39 -52 -81 -52c-19 0 -41 5 -63 18l3 17c37 -23 113 -21 120 20c7 40 -48 58 -92 53c12 24 25 45 38 68c-92 2 -174 40 -235 103c-61 64 -100 150 -100 247c0 96 39 182 100 246c63 64 147 103 242 103c96 0 180 -39 242 -103
c31 -32 57 -70 75 -113z" />
    <glyph glyph-name="Egrave" unicode="&#xc8;" horiz-adv-x="501" 
d="M86 21v318h359v22h-359v318h367v21h-388v-700h390v21h-369zM305 751h-24l-69 80h30z" />
    <glyph glyph-name="Eacute" unicode="&#xc9;" horiz-adv-x="501" 
d="M86 339v-318h369v-21h-390v700h388v-21h-367v-318h359v-22h-359zM273 749h-24l65 80h30z" />
    <glyph glyph-name="Ecircumflex" unicode="&#xca;" horiz-adv-x="501" 
d="M86 339v-318h369v-21h-390v700h388v-21h-367v-318h359v-22h-359zM207 751h-26l73 67h32l73 -67h-26l-63 52z" />
    <glyph glyph-name="Edieresis" unicode="&#xcb;" horiz-adv-x="501" 
d="M86 21v318h359v22h-359v318h367v21h-388v-700h390v21h-369zM189 795c12 0 23 -11 23 -24c0 -11 -11 -22 -23 -22s-24 8 -24 22c0 16 12 24 24 24zM345 795c12 0 23 -11 23 -24c0 -11 -11 -22 -23 -22s-24 8 -24 22c0 16 12 24 24 24z" />
    <glyph glyph-name="Igrave" unicode="&#xcc;" horiz-adv-x="381" 
d="M348 681v19h-316v-19h147v-661h-147v-20h316v20h-148v661h148zM211 748h-24l-69 80h30z" />
    <glyph glyph-name="Iacute" unicode="&#xcd;" horiz-adv-x="381" 
d="M348 700v-19h-148v-661h148v-20h-316v20h147v661h-147v19h316zM204 747h-24l65 80h30z" />
    <glyph glyph-name="Icircumflex" unicode="&#xce;" horiz-adv-x="381" 
d="M348 700v-19h-148v-661h148v-20h-316v20h147v661h-147v19h316zM127 749h-26l73 67h32l73 -67h-26l-63 52z" />
    <glyph glyph-name="Idieresis" unicode="&#xcf;" horiz-adv-x="381" 
d="M348 681v19h-316v-19h147v-661h-147v-20h316v20h-148v661h148zM113 793c12 0 23 -11 23 -24c0 -11 -11 -22 -23 -22s-24 8 -24 22c0 16 12 24 24 24zM269 793c12 0 23 -11 23 -24c0 -11 -11 -22 -23 -22s-24 8 -24 22c0 16 12 24 24 24z" />
    <glyph glyph-name="Eth" unicode="&#xd0;" horiz-adv-x="724" 
d="M22 342v19h75v338h237c229 0 344 -175 344 -350s-115 -349 -344 -349h-237v342h-75zM118 21h216c215 0 323 163 323 328s-108 329 -323 329h-216v-317h139v-19h-139v-321z" />
    <glyph glyph-name="Ntilde" unicode="&#xd1;" horiz-adv-x="622" 
d="M87 0h-22v700h18l457 -660v660h21v-700h-20l-454 656v-656zM248 745l-17 6c2 21 17 37 35 45c57 23 74 -48 116 -32c12 5 21 16 26 32l18 -6c-6 -21 -17 -37 -37 -45c-54 -21 -75 52 -117 31c-10 -4 -21 -13 -24 -31z" />
    <glyph glyph-name="Ograve" unicode="&#xd2;" horiz-adv-x="798" 
d="M732 350c0 -93 -38 -177 -98 -238s-145 -100 -238 -100c-92 0 -176 39 -237 100c-59 61 -98 145 -98 238s39 177 98 238c61 61 145 100 237 100c93 0 178 -39 238 -100s98 -145 98 -238zM39 350c0 -99 42 -188 106 -254s153 -106 251 -106c100 0 189 40 253 106
s105 155 105 254s-41 188 -105 254s-153 106 -253 106c-98 0 -187 -40 -251 -106s-106 -155 -106 -254zM426 757h-24l-69 80h30z" />
    <glyph glyph-name="Oacute" unicode="&#xd3;" horiz-adv-x="798" 
d="M732 350c0 93 -38 177 -98 238s-145 100 -238 100c-92 0 -176 -39 -237 -100c-59 -61 -98 -145 -98 -238s39 -177 98 -238c61 -61 145 -100 237 -100c93 0 178 39 238 100s98 145 98 238zM39 350c0 99 42 188 106 254s153 106 251 106c100 0 189 -40 253 -106
s105 -155 105 -254s-41 -188 -105 -254s-153 -106 -253 -106c-98 0 -187 40 -251 106s-106 155 -106 254zM410 755h-24l65 80h30z" />
    <glyph glyph-name="Ocircumflex" unicode="&#xd4;" horiz-adv-x="798" 
d="M732 350c0 93 -38 177 -98 238s-145 100 -238 100c-92 0 -176 -39 -237 -100c-59 -61 -98 -145 -98 -238s39 -177 98 -238c61 -61 145 -100 237 -100c93 0 178 39 238 100s98 145 98 238zM39 350c0 99 42 188 106 254s153 106 251 106c100 0 189 -40 253 -106
s105 -155 105 -254s-41 -188 -105 -254s-153 -106 -253 -106c-98 0 -187 40 -251 106s-106 155 -106 254zM333 760h-26l73 67h32l73 -67h-26l-63 52z" />
    <glyph glyph-name="Otilde" unicode="&#xd5;" horiz-adv-x="798" 
d="M732 350c0 93 -38 177 -98 238s-145 100 -238 100c-92 0 -176 -39 -237 -100c-59 -61 -98 -145 -98 -238s39 -177 98 -238c61 -61 145 -100 237 -100c93 0 178 39 238 100s98 145 98 238zM39 350c0 99 42 188 106 254s153 106 251 106c100 0 189 -40 253 -106
s105 -155 105 -254s-41 -188 -105 -254s-153 -106 -253 -106c-98 0 -187 40 -251 106s-106 155 -106 254zM318 761l-17 6c2 21 17 37 35 45c56 23 73 -48 115 -32c12 5 21 16 26 32l18 -6c-6 -21 -17 -37 -37 -45c-54 -21 -74 52 -117 31c-9 -4 -20 -13 -23 -31z" />
    <glyph glyph-name="Odieresis" unicode="&#xd6;" horiz-adv-x="798" 
d="M732 350c0 -93 -38 -177 -98 -238s-145 -100 -238 -100c-92 0 -176 39 -237 100c-59 61 -98 145 -98 238s39 177 98 238c61 61 145 100 237 100c93 0 178 -39 238 -100s98 -145 98 -238zM39 350c0 -99 42 -188 106 -254s153 -106 251 -106c100 0 189 40 253 106
s105 155 105 254s-41 188 -105 254s-153 106 -253 106c-98 0 -187 -40 -251 -106s-106 -155 -106 -254zM323 812c12 0 23 -11 23 -24c0 -11 -11 -22 -23 -22s-24 8 -24 22c0 16 12 24 24 24zM479 812c12 0 23 -11 23 -24c0 -11 -11 -22 -23 -22s-24 8 -24 22
c0 16 12 24 24 24z" />
    <glyph glyph-name="multiply" unicode="&#xd7;" horiz-adv-x="441" 
d="M64 487l14 12l150 -150l144 144l14 -12l-145 -146l150 -150l-13 -12l-150 150l-153 -154l-14 13l153 154z" />
    <glyph glyph-name="Oslash" unicode="&#xd8;" horiz-adv-x="798" 
d="M39 350c0 99 42 188 106 254s153 106 251 106c68 0 131 -19 185 -52l57 89h25l-65 -100c18 -13 35 -27 51 -43c64 -66 105 -155 105 -254s-41 -188 -105 -254s-153 -106 -253 -106c-68 0 -131 19 -185 52l-63 -99h-26l71 111c-17 13 -33 26 -48 42
c-64 66 -106 155 -106 254zM732 350c0 93 -38 177 -98 238c-15 14 -31 28 -48 40l-363 -567c51 -31 110 -49 173 -49c93 0 178 39 238 100s98 145 98 238zM396 688c-92 0 -176 -39 -237 -100c-59 -61 -98 -145 -98 -238s39 -177 98 -238c14 -15 30 -28 46 -39l364 566
c-51 31 -110 49 -173 49z" />
    <glyph glyph-name="Ugrave" unicode="&#xd9;" horiz-adv-x="629" 
d="M314 -8c115 0 246 68 246 198v510h-22v-509c0 -119 -119 -177 -224 -177s-224 58 -224 176v510h-22v-509c0 -131 130 -199 246 -199zM340 750h-24l-69 80h30z" />
    <glyph glyph-name="Uacute" unicode="&#xda;" horiz-adv-x="629" 
d="M314 -8c-116 0 -246 68 -246 199v509h22v-510c0 -118 119 -176 224 -176s224 58 224 177v509h22v-510c0 -130 -131 -198 -246 -198zM306 748h-24l65 80h30z" />
    <glyph glyph-name="Ucircumflex" unicode="&#xdb;" horiz-adv-x="629" 
d="M314 -8c-116 0 -246 68 -246 199v509h22v-510c0 -118 119 -176 224 -176s224 58 224 177v509h22v-510c0 -130 -131 -198 -246 -198zM252 749h-26l73 67h32l73 -67h-26l-63 52z" />
    <glyph glyph-name="Udieresis" unicode="&#xdc;" horiz-adv-x="629" 
d="M314 -8c115 0 246 68 246 198v510h-22v-509c0 -119 -119 -177 -224 -177s-224 58 -224 176v510h-22v-509c0 -131 130 -199 246 -199zM239 791c12 0 23 -11 23 -24c0 -11 -11 -22 -23 -22s-24 8 -24 22c0 16 12 24 24 24zM395 791c12 0 23 -11 23 -24
c0 -11 -11 -22 -23 -22s-24 8 -24 22c0 16 12 24 24 24z" />
    <glyph glyph-name="Yacute" unicode="&#xdd;" horiz-adv-x="579" 
d="M19 699h27l242 -387l242 387h27l-258 -411v-288h-22v288zM284 745h-24l65 80h30z" />
    <glyph glyph-name="Thorn" unicode="&#xde;" horiz-adv-x="565" 
d="M65 0v700h22v-134h220c141 0 211 -110 211 -218c0 -109 -70 -217 -211 -217h-220v-131h-22zM87 152h220c127 0 190 97 190 195s-63 197 -190 197h-220v-392z" />
    <glyph glyph-name="germandbls" unicode="&#xdf;" horiz-adv-x="532" 
d="M317 378v-1c113 -13 170 -111 170 -186c0 -170 -176 -226 -315 -183v24c34 -13 52 -15 87 -15c135 0 205 79 205 172c0 87 -71 175 -205 176h-53v22h53c109 2 159 86 154 155c0 91 -79 144 -158 144c-83 0 -168 -46 -168 -150v-538h-23v538c-1 118 96 171 191 171
c92 0 182 -59 182 -166c0 -25 2 -131 -120 -163z" />
    <glyph glyph-name="agrave" unicode="&#xe0;" 
d="M312 678l-165 -424h329c-56 144 -108 280 -164 424zM580 0l-95 233h-347l-94 -233h-24l282 710h21l281 -710h-24zM331 753h-24l-69 80h30z" />
    <glyph glyph-name="aacute" unicode="&#xe1;" 
d="M312 678l-165 -424h329c-56 144 -108 280 -164 424zM580 0l-95 233h-347l-94 -233h-24l282 710h21l281 -710h-24zM323 752h-24l65 80h30z" />
    <glyph glyph-name="acircumflex" unicode="&#xe2;" 
d="M312 678l-165 -424h329c-56 144 -108 280 -164 424zM580 0l-95 233h-347l-94 -233h-24l282 710h21l281 -710h-24zM249 749h-26l73 67h32l73 -67h-26l-63 52z" />
    <glyph glyph-name="atilde" unicode="&#xe3;" 
d="M312 678l-165 -424h329c-56 144 -108 280 -164 424zM580 0l-95 233h-347l-94 -233h-24l282 710h21l281 -710h-24zM240 758l-16 5c2 20 16 35 33 42c53 22 69 -45 108 -30c11 5 20 15 24 30l17 -5c-5 -20 -16 -35 -34 -42c-51 -20 -70 48 -110 29c-9 -4 -19 -13 -22 -29z
" />
    <glyph glyph-name="adieresis" unicode="&#xe4;" 
d="M312 678l-165 -424h329c-56 144 -108 280 -164 424zM580 0l-95 233h-347l-94 -233h-24l282 710h21l281 -710h-24zM235 795c12 0 23 -11 23 -24c0 -11 -11 -22 -23 -22s-24 8 -24 22c0 16 12 24 24 24zM391 795c12 0 23 -11 23 -24c0 -11 -11 -22 -23 -22s-24 8 -24 22
c0 16 12 24 24 24z" />
    <glyph glyph-name="ae" unicode="&#xe6;" horiz-adv-x="868" 
d="M454 339v-318h369v-21h-390v261h-239l-146 -261h-24l391 700h406v-21h-367v-319h359v-21h-359zM433 683h-5l-224 -401h229v401z" />
    <glyph glyph-name="ccedilla" unicode="&#xe7;" horiz-adv-x="744" 
d="M698 482h-24c-16 38 -39 70 -66 98c-57 60 -138 96 -227 96c-88 0 -169 -36 -227 -96c-57 -59 -94 -142 -94 -231c0 -90 37 -173 94 -231c58 -60 139 -97 227 -97c89 0 170 37 227 97c27 27 50 58 66 97h24c-18 -42 -44 -81 -75 -113c-59 -61 -138 -100 -229 -103
l-29 -52c68 0 89 -42 84 -72c-6 -34 -39 -52 -81 -52c-19 0 -41 5 -63 18l3 17c37 -23 113 -21 120 20c7 40 -48 58 -92 53c12 24 25 45 38 68c-92 2 -174 40 -235 103c-61 64 -100 150 -100 247c0 96 39 182 100 246c63 64 147 103 242 103c96 0 180 -39 242 -103
c31 -32 57 -70 75 -113z" />
    <glyph glyph-name="egrave" unicode="&#xe8;" horiz-adv-x="501" 
d="M86 21v318h359v22h-359v318h367v21h-388v-700h390v21h-369zM305 751h-24l-69 80h30z" />
    <glyph glyph-name="eacute" unicode="&#xe9;" horiz-adv-x="501" 
d="M86 339v-318h369v-21h-390v700h388v-21h-367v-318h359v-22h-359zM273 749h-24l65 80h30z" />
    <glyph glyph-name="ecircumflex" unicode="&#xea;" horiz-adv-x="501" 
d="M86 339v-318h369v-21h-390v700h388v-21h-367v-318h359v-22h-359zM207 751h-26l73 67h32l73 -67h-26l-63 52z" />
    <glyph glyph-name="edieresis" unicode="&#xeb;" horiz-adv-x="501" 
d="M86 21v318h359v22h-359v318h367v21h-388v-700h390v21h-369zM189 795c12 0 23 -11 23 -24c0 -11 -11 -22 -23 -22s-24 8 -24 22c0 16 12 24 24 24zM345 795c12 0 23 -11 23 -24c0 -11 -11 -22 -23 -22s-24 8 -24 22c0 16 12 24 24 24z" />
    <glyph glyph-name="igrave" unicode="&#xec;" horiz-adv-x="381" 
d="M348 681v19h-316v-19h147v-661h-147v-20h316v20h-148v661h148zM211 748h-24l-69 80h30z" />
    <glyph glyph-name="iacute" unicode="&#xed;" horiz-adv-x="381" 
d="M348 700v-19h-148v-661h148v-20h-316v20h147v661h-147v19h316zM204 747h-24l65 80h30z" />
    <glyph glyph-name="icircumflex" unicode="&#xee;" horiz-adv-x="381" 
d="M348 700v-19h-148v-661h148v-20h-316v20h147v661h-147v19h316zM127 749h-26l73 67h32l73 -67h-26l-63 52z" />
    <glyph glyph-name="idieresis" unicode="&#xef;" horiz-adv-x="381" 
d="M348 681v19h-316v-19h147v-661h-147v-20h316v20h-148v661h148zM113 793c12 0 23 -11 23 -24c0 -11 -11 -22 -23 -22s-24 8 -24 22c0 16 12 24 24 24zM269 793c12 0 23 -11 23 -24c0 -11 -11 -22 -23 -22s-24 8 -24 22c0 16 12 24 24 24z" />
    <glyph glyph-name="eth" unicode="&#xf0;" horiz-adv-x="724" 
d="M22 342v19h75v338h237c229 0 344 -175 344 -350s-115 -349 -344 -349h-237v342h-75zM118 21h216c215 0 323 163 323 328s-108 329 -323 329h-216v-317h139v-19h-139v-321z" />
    <glyph glyph-name="ntilde" unicode="&#xf1;" horiz-adv-x="622" 
d="M87 0h-22v700h18l457 -660v660h21v-700h-20l-454 656v-656zM248 745l-17 6c2 21 17 37 35 45c57 23 74 -48 116 -32c12 5 21 16 26 32l18 -6c-6 -21 -17 -37 -37 -45c-54 -21 -75 52 -117 31c-10 -4 -21 -13 -24 -31z" />
    <glyph glyph-name="ograve" unicode="&#xf2;" horiz-adv-x="798" 
d="M732 350c0 -93 -38 -177 -98 -238s-145 -100 -238 -100c-92 0 -176 39 -237 100c-59 61 -98 145 -98 238s39 177 98 238c61 61 145 100 237 100c93 0 178 -39 238 -100s98 -145 98 -238zM39 350c0 -99 42 -188 106 -254s153 -106 251 -106c100 0 189 40 253 106
s105 155 105 254s-41 188 -105 254s-153 106 -253 106c-98 0 -187 -40 -251 -106s-106 -155 -106 -254zM426 757h-24l-69 80h30z" />
    <glyph glyph-name="oacute" unicode="&#xf3;" horiz-adv-x="798" 
d="M732 350c0 93 -38 177 -98 238s-145 100 -238 100c-92 0 -176 -39 -237 -100c-59 -61 -98 -145 -98 -238s39 -177 98 -238c61 -61 145 -100 237 -100c93 0 178 39 238 100s98 145 98 238zM39 350c0 99 42 188 106 254s153 106 251 106c100 0 189 -40 253 -106
s105 -155 105 -254s-41 -188 -105 -254s-153 -106 -253 -106c-98 0 -187 40 -251 106s-106 155 -106 254zM410 755h-24l65 80h30z" />
    <glyph glyph-name="ocircumflex" unicode="&#xf4;" horiz-adv-x="798" 
d="M732 350c0 93 -38 177 -98 238s-145 100 -238 100c-92 0 -176 -39 -237 -100c-59 -61 -98 -145 -98 -238s39 -177 98 -238c61 -61 145 -100 237 -100c93 0 178 39 238 100s98 145 98 238zM39 350c0 99 42 188 106 254s153 106 251 106c100 0 189 -40 253 -106
s105 -155 105 -254s-41 -188 -105 -254s-153 -106 -253 -106c-98 0 -187 40 -251 106s-106 155 -106 254zM333 760h-26l73 67h32l73 -67h-26l-63 52z" />
    <glyph glyph-name="otilde" unicode="&#xf5;" horiz-adv-x="798" 
d="M732 350c0 93 -38 177 -98 238s-145 100 -238 100c-92 0 -176 -39 -237 -100c-59 -61 -98 -145 -98 -238s39 -177 98 -238c61 -61 145 -100 237 -100c93 0 178 39 238 100s98 145 98 238zM39 350c0 99 42 188 106 254s153 106 251 106c100 0 189 -40 253 -106
s105 -155 105 -254s-41 -188 -105 -254s-153 -106 -253 -106c-98 0 -187 40 -251 106s-106 155 -106 254zM318 761l-17 6c2 21 17 37 35 45c56 23 73 -48 115 -32c12 5 21 16 26 32l18 -6c-6 -21 -17 -37 -37 -45c-54 -21 -74 52 -117 31c-9 -4 -20 -13 -23 -31z" />
    <glyph glyph-name="odieresis" unicode="&#xf6;" horiz-adv-x="798" 
d="M732 350c0 -93 -38 -177 -98 -238s-145 -100 -238 -100c-92 0 -176 39 -237 100c-59 61 -98 145 -98 238s39 177 98 238c61 61 145 100 237 100c93 0 178 -39 238 -100s98 -145 98 -238zM39 350c0 -99 42 -188 106 -254s153 -106 251 -106c100 0 189 40 253 106
s105 155 105 254s-41 188 -105 254s-153 106 -253 106c-98 0 -187 -40 -251 -106s-106 -155 -106 -254zM323 812c12 0 23 -11 23 -24c0 -11 -11 -22 -23 -22s-24 8 -24 22c0 16 12 24 24 24zM479 812c12 0 23 -11 23 -24c0 -11 -11 -22 -23 -22s-24 8 -24 22
c0 16 12 24 24 24z" />
    <glyph glyph-name="divide" unicode="&#xf7;" horiz-adv-x="511" 
d="M38 366v-21h418v21h-418zM250 216c12 0 23 -11 23 -24c0 -11 -11 -22 -23 -22s-24 8 -24 22c0 16 12 24 24 24zM250 530c12 0 23 -11 23 -24c0 -11 -11 -22 -23 -22s-24 8 -24 22c0 16 12 24 24 24z" />
    <glyph glyph-name="oslash" unicode="&#xf8;" horiz-adv-x="798" 
d="M39 350c0 99 42 188 106 254s153 106 251 106c68 0 131 -19 185 -52l57 89h25l-65 -100c18 -13 35 -27 51 -43c64 -66 105 -155 105 -254s-41 -188 -105 -254s-153 -106 -253 -106c-68 0 -131 19 -185 52l-63 -99h-26l71 111c-17 13 -33 26 -48 42
c-64 66 -106 155 -106 254zM732 350c0 93 -38 177 -98 238c-15 14 -31 28 -48 40l-363 -567c51 -31 110 -49 173 -49c93 0 178 39 238 100s98 145 98 238zM396 688c-92 0 -176 -39 -237 -100c-59 -61 -98 -145 -98 -238s39 -177 98 -238c14 -15 30 -28 46 -39l364 566
c-51 31 -110 49 -173 49z" />
    <glyph glyph-name="ugrave" unicode="&#xf9;" horiz-adv-x="629" 
d="M314 -8c115 0 246 68 246 198v510h-22v-509c0 -119 -119 -177 -224 -177s-224 58 -224 176v510h-22v-509c0 -131 130 -199 246 -199zM340 750h-24l-69 80h30z" />
    <glyph glyph-name="uacute" unicode="&#xfa;" horiz-adv-x="629" 
d="M314 -8c-116 0 -246 68 -246 199v509h22v-510c0 -118 119 -176 224 -176s224 58 224 177v509h22v-510c0 -130 -131 -198 -246 -198zM306 748h-24l65 80h30z" />
    <glyph glyph-name="ucircumflex" unicode="&#xfb;" horiz-adv-x="629" 
d="M314 -8c-116 0 -246 68 -246 199v509h22v-510c0 -118 119 -176 224 -176s224 58 224 177v509h22v-510c0 -130 -131 -198 -246 -198zM252 749h-26l73 67h32l73 -67h-26l-63 52z" />
    <glyph glyph-name="udieresis" unicode="&#xfc;" horiz-adv-x="629" 
d="M314 -8c115 0 246 68 246 198v510h-22v-509c0 -119 -119 -177 -224 -177s-224 58 -224 176v510h-22v-509c0 -131 130 -199 246 -199zM239 791c12 0 23 -11 23 -24c0 -11 -11 -22 -23 -22s-24 8 -24 22c0 16 12 24 24 24zM395 791c12 0 23 -11 23 -24
c0 -11 -11 -22 -23 -22s-24 8 -24 22c0 16 12 24 24 24z" />
    <glyph glyph-name="yacute" unicode="&#xfd;" horiz-adv-x="579" 
d="M19 699h27l242 -387l242 387h27l-258 -411v-288h-22v288zM284 745h-24l65 80h30z" />
    <glyph glyph-name="thorn" unicode="&#xfe;" horiz-adv-x="565" 
d="M65 0v700h22v-134h220c141 0 211 -110 211 -218c0 -109 -70 -217 -211 -217h-220v-131h-22zM87 152h220c127 0 190 97 190 195s-63 197 -190 197h-220v-392z" />
    <glyph glyph-name="ydieresis" unicode="&#xff;" horiz-adv-x="579" 
d="M46 699h-27l258 -411v-288h22v288l258 411h-27l-242 -387zM213 791c12 0 23 -11 23 -24c0 -11 -11 -22 -23 -22s-24 8 -24 22c0 16 12 24 24 24zM369 791c12 0 23 -11 23 -24c0 -11 -11 -22 -23 -22s-24 8 -24 22c0 16 12 24 24 24z" />
    <glyph glyph-name="zero.tnum" horiz-adv-x="592" 
d="M294 681c-158 0 -236 -166 -236 -331s78 -330 236 -330s237 165 237 330s-79 331 -237 331zM294 -2c-172 0 -257 175 -257 352c0 176 85 353 257 353c171 0 257 -177 257 -353c0 -177 -86 -352 -257 -352z" />
    <glyph glyph-name="one.tnum" horiz-adv-x="277" 
d="M187 663l-156 -214l-15 11l172 240h21v-700h-22v663z" />
    <glyph glyph-name="two.tnum" horiz-adv-x="549" 
d="M60 483h-22c0 118 80 217 236 217c152 0 237 -97 234 -207c-1 -75 -42 -141 -97 -187l-335 -285h434v-21h-470v19l355 302c48 43 89 102 91 169c3 98 -73 189 -212 189c-143 0 -214 -92 -214 -196z" />
    <glyph glyph-name="three.tnum" horiz-adv-x="546" 
d="M342 364v-1c104 -21 169 -84 169 -181c0 -103 -86 -192 -248 -192c-144 0 -215 72 -228 163l20 3c12 -78 74 -145 208 -145c151 0 225 84 225 170c0 87 -73 171 -225 171h-49v20h49c131 0 190 76 190 158c-1 191 -331 209 -373 45l-20 4c47 191 414 169 414 -50
c0 -54 -24 -140 -132 -165z" />
    <glyph glyph-name="four.tnum" horiz-adv-x="544" 
d="M28 198l396 502h19v-500h65v-21h-65v-179h-20v179h-395v19zM56 200h367v451l1 16l-6 -11z" />
    <glyph glyph-name="five.tnum" horiz-adv-x="555" 
d="M467 697v-21h-386v-267c54 26 115 43 181 43c39 0 78 -7 114 -22c90 -38 136 -119 137 -203c1 -112 -80 -227 -242 -227c-124 0 -198 67 -228 151l20 7c27 -77 93 -136 208 -136c148 0 221 103 220 205c0 72 -43 148 -119 182c-34 14 -73 22 -107 22
c-64 0 -126 -19 -184 -45l-21 10v301h407z" />
    <glyph glyph-name="six.tnum" horiz-adv-x="564" 
d="M283 421c-147 0 -221 -102 -221 -204c0 -101 74 -203 221 -203c148 0 221 102 221 203c0 102 -73 204 -221 204zM82 348l243 352h26l-184 -268l-27 -33c8 6 16 12 24 17c33 17 69 27 119 27c162 0 242 -114 242 -226c0 -113 -80 -225 -242 -225c-161 0 -242 112 -242 225
c0 46 13 92 41 131z" />
    <glyph glyph-name="seven.tnum" horiz-adv-x="534" 
d="M29 700h470v-20l-371 -680h-26l370 679h-443v21z" />
    <glyph glyph-name="eight.tnum" horiz-adv-x="558" 
d="M277 12c148 0 221 85 221 171s-73 173 -221 173c-147 0 -221 -87 -221 -173s74 -171 221 -171zM277 692c-90 0 -187 -49 -187 -157c0 -79 61 -158 187 -158c127 0 187 79 187 159c0 108 -98 156 -187 156zM361 370l-19 -3l20 -2c110 -28 158 -102 158 -181
c0 -97 -81 -193 -243 -193c-161 0 -242 96 -242 193c0 78 54 156 157 183l19 2l-33 7c-73 31 -109 95 -109 160c1 120 109 177 208 177c139 0 209 -88 209 -178c0 -70 -41 -139 -125 -165z" />
    <glyph glyph-name="nine.tnum" horiz-adv-x="560" 
d="M281 280c148 0 222 102 222 203c0 102 -74 205 -222 205c-147 0 -221 -103 -221 -205c0 -101 74 -203 221 -203zM483 354l-243 -354h-25l183 269l27 33c-8 -6 -16 -12 -24 -17c-33 -17 -69 -27 -120 -27c-161 0 -242 112 -242 225c0 114 81 226 242 227
c162 0 243 -112 243 -226c0 -45 -13 -92 -41 -130z" />
    <glyph glyph-name="zero.p_osf" horiz-adv-x="592" 
d="M294 681c-158 0 -236 -166 -236 -331s78 -330 236 -330s237 165 237 330s-79 331 -237 331zM294 -2c-172 0 -257 175 -257 352c0 176 85 353 257 353c171 0 257 -177 257 -353c0 -177 -86 -352 -257 -352z" />
    <glyph glyph-name="one.p_osf" horiz-adv-x="277" 
d="M187 663l-156 -214l-15 11l172 240h21v-700h-22v663z" />
    <glyph glyph-name="two.p_osf" horiz-adv-x="549" 
d="M60 483h-22c0 118 80 217 236 217c152 0 237 -97 234 -207c-1 -75 -42 -141 -97 -187l-335 -285h434v-21h-470v19l355 302c48 43 89 102 91 169c3 98 -73 189 -212 189c-143 0 -214 -92 -214 -196z" />
    <glyph glyph-name="three.p_osf" horiz-adv-x="546" 
d="M342 364v-1c104 -21 169 -84 169 -181c0 -103 -86 -192 -248 -192c-144 0 -215 72 -228 163l20 3c12 -78 74 -145 208 -145c151 0 225 84 225 170c0 87 -73 171 -225 171h-49v20h49c131 0 190 76 190 158c-1 191 -331 209 -373 45l-20 4c47 191 414 169 414 -50
c0 -54 -24 -140 -132 -165z" />
    <glyph glyph-name="four.p_osf" horiz-adv-x="544" 
d="M28 198l396 502h19v-500h65v-21h-65v-179h-20v179h-395v19zM56 200h367v451l1 16l-6 -11z" />
    <glyph glyph-name="five.p_osf" horiz-adv-x="555" 
d="M467 697v-21h-386v-267c54 26 115 43 181 43c39 0 78 -7 114 -22c90 -38 136 -119 137 -203c1 -112 -80 -227 -242 -227c-124 0 -198 67 -228 151l20 7c27 -77 93 -136 208 -136c148 0 221 103 220 205c0 72 -43 148 -119 182c-34 14 -73 22 -107 22
c-64 0 -126 -19 -184 -45l-21 10v301h407z" />
    <glyph glyph-name="six.p_osf" horiz-adv-x="564" 
d="M283 421c-147 0 -221 -102 -221 -204c0 -101 74 -203 221 -203c148 0 221 102 221 203c0 102 -73 204 -221 204zM82 348l243 352h26l-184 -268l-27 -33c8 6 16 12 24 17c33 17 69 27 119 27c162 0 242 -114 242 -226c0 -113 -80 -225 -242 -225c-161 0 -242 112 -242 225
c0 46 13 92 41 131z" />
    <glyph glyph-name="seven.p_osf" horiz-adv-x="534" 
d="M29 700h470v-20l-371 -680h-26l370 679h-443v21z" />
    <glyph glyph-name="eight.p_osf" horiz-adv-x="558" 
d="M277 12c148 0 221 85 221 171s-73 173 -221 173c-147 0 -221 -87 -221 -173s74 -171 221 -171zM277 692c-90 0 -187 -49 -187 -157c0 -79 61 -158 187 -158c127 0 187 79 187 159c0 108 -98 156 -187 156zM361 370l-19 -3l20 -2c110 -28 158 -102 158 -181
c0 -97 -81 -193 -243 -193c-161 0 -242 96 -242 193c0 78 54 156 157 183l19 2l-33 7c-73 31 -109 95 -109 160c1 120 109 177 208 177c139 0 209 -88 209 -178c0 -70 -41 -139 -125 -165z" />
    <glyph glyph-name="nine.p_osf" horiz-adv-x="560" 
d="M281 280c148 0 222 102 222 203c0 102 -74 205 -222 205c-147 0 -221 -103 -221 -205c0 -101 74 -203 221 -203zM483 354l-243 -354h-25l183 269l27 33c-8 -6 -16 -12 -24 -17c-33 -17 -69 -27 -120 -27c-161 0 -242 112 -242 225c0 114 81 226 242 227
c162 0 243 -112 243 -226c0 -45 -13 -92 -41 -130z" />
    <glyph glyph-name="zero.t_osf" horiz-adv-x="592" 
d="M294 681c-158 0 -236 -166 -236 -331s78 -330 236 -330s237 165 237 330s-79 331 -237 331zM294 -2c-172 0 -257 175 -257 352c0 176 85 353 257 353c171 0 257 -177 257 -353c0 -177 -86 -352 -257 -352z" />
    <glyph glyph-name="one.t_osf" horiz-adv-x="277" 
d="M187 663l-156 -214l-15 11l172 240h21v-700h-22v663z" />
    <glyph glyph-name="two.t_osf" horiz-adv-x="549" 
d="M60 483h-22c0 118 80 217 236 217c152 0 237 -97 234 -207c-1 -75 -42 -141 -97 -187l-335 -285h434v-21h-470v19l355 302c48 43 89 102 91 169c3 98 -73 189 -212 189c-143 0 -214 -92 -214 -196z" />
    <glyph glyph-name="three.t_osf" horiz-adv-x="546" 
d="M342 364v-1c104 -21 169 -84 169 -181c0 -103 -86 -192 -248 -192c-144 0 -215 72 -228 163l20 3c12 -78 74 -145 208 -145c151 0 225 84 225 170c0 87 -73 171 -225 171h-49v20h49c131 0 190 76 190 158c-1 191 -331 209 -373 45l-20 4c47 191 414 169 414 -50
c0 -54 -24 -140 -132 -165z" />
    <glyph glyph-name="four.t_osf" horiz-adv-x="544" 
d="M28 198l396 502h19v-500h65v-21h-65v-179h-20v179h-395v19zM56 200h367v451l1 16l-6 -11z" />
    <glyph glyph-name="five.t_osf" horiz-adv-x="555" 
d="M467 697v-21h-386v-267c54 26 115 43 181 43c39 0 78 -7 114 -22c90 -38 136 -119 137 -203c1 -112 -80 -227 -242 -227c-124 0 -198 67 -228 151l20 7c27 -77 93 -136 208 -136c148 0 221 103 220 205c0 72 -43 148 -119 182c-34 14 -73 22 -107 22
c-64 0 -126 -19 -184 -45l-21 10v301h407z" />
    <glyph glyph-name="six.t_osf" horiz-adv-x="564" 
d="M283 421c-147 0 -221 -102 -221 -204c0 -101 74 -203 221 -203c148 0 221 102 221 203c0 102 -73 204 -221 204zM82 348l243 352h26l-184 -268l-27 -33c8 6 16 12 24 17c33 17 69 27 119 27c162 0 242 -114 242 -226c0 -113 -80 -225 -242 -225c-161 0 -242 112 -242 225
c0 46 13 92 41 131z" />
    <glyph glyph-name="seven.t_osf" horiz-adv-x="534" 
d="M29 700h470v-20l-371 -680h-26l370 679h-443v21z" />
    <glyph glyph-name="eight.t_osf" horiz-adv-x="558" 
d="M277 12c148 0 221 85 221 171s-73 173 -221 173c-147 0 -221 -87 -221 -173s74 -171 221 -171zM277 692c-90 0 -187 -49 -187 -157c0 -79 61 -158 187 -158c127 0 187 79 187 159c0 108 -98 156 -187 156zM361 370l-19 -3l20 -2c110 -28 158 -102 158 -181
c0 -97 -81 -193 -243 -193c-161 0 -242 96 -242 193c0 78 54 156 157 183l19 2l-33 7c-73 31 -109 95 -109 160c1 120 109 177 208 177c139 0 209 -88 209 -178c0 -70 -41 -139 -125 -165z" />
    <glyph glyph-name="nine.t_osf" horiz-adv-x="560" 
d="M281 280c148 0 222 102 222 203c0 102 -74 205 -222 205c-147 0 -221 -103 -221 -205c0 -101 74 -203 221 -203zM483 354l-243 -354h-25l183 269l27 33c-8 -6 -16 -12 -24 -17c-33 -17 -69 -27 -120 -27c-161 0 -242 112 -242 225c0 114 81 226 242 227
c162 0 243 -112 243 -226c0 -45 -13 -92 -41 -130z" />
    <glyph glyph-name="dollar.osf" horiz-adv-x="569" 
d="M272 706v58h21v-58c100 -2 196 -54 215 -153l1 -11l-21 -4l-1 11v0c-6 28 -18 53 -37 74c-39 40 -99 61 -157 62v-324c103 -11 207 -22 231 -131c3 -14 5 -27 5 -41c0 -120 -120 -191 -236 -196v-64h-21v64c-101 4 -218 61 -230 172l-1 10l22 2l1 -10
c14 -94 118 -150 208 -153v327c-106 11 -210 36 -224 161c-3 40 9 85 34 118c41 53 116 83 190 86zM503 225c-21 93 -115 104 -210 114v-325c106 4 214 65 214 175c0 11 -1 23 -4 36zM99 607c-24 -29 -31 -68 -29 -104c11 -111 103 -130 202 -141v323
c-64 -3 -135 -27 -173 -78z" />
    <glyph glyph-name="cent.osf" horiz-adv-x="752" 
d="M371 695v85h22v-84c92 -2 174 -41 235 -103c31 -32 56 -70 74 -113h-24c-15 38 -38 70 -65 98c-56 57 -135 94 -220 96v-653c85 1 164 38 220 97c27 26 50 58 65 96h24c-18 -42 -43 -81 -74 -112c-61 -63 -143 -102 -235 -103v-101h-22v102c-89 3 -167 41 -225 102
c-62 63 -100 149 -100 246c0 96 38 182 100 245c58 60 136 98 225 102zM160 578c-57 -59 -93 -141 -93 -230c0 -90 36 -172 93 -230c54 -57 129 -93 211 -97v652c-82 -4 -157 -40 -211 -95z" />
    <glyph glyph-name="sterling.osf" horiz-adv-x="524" 
d="M474 578l-20 -5c-25 85 -90 112 -162 112c-79 0 -157 -45 -157 -166v-164h222v-20h-222v-314h351v-21h-453v21h79v314h-77v20h77v164c0 131 88 187 178 187c76 0 153 -22 184 -128z" />
    <glyph glyph-name="yen.osf" horiz-adv-x="579" 
d="M109 178v20h168v91h-167v20h154l-245 390h27l242 -388l242 388h27l-245 -390h159v-20h-172v-91h171v-20h-171v-178h-22v178h-168z" />
    <glyph glyph-name="florin.osf" horiz-adv-x="465" 
d="M429 703v-19c-88 1 -120 -50 -137 -152l-12 -65h113l-4 -17h-112l-95 -494c-16 -81 -57 -153 -167 -153h-18l3 19h17c91 0 129 61 144 137l95 491h-95l4 17h94l12 64c22 140 71 173 158 172z" />
    <glyph glyph-name="Euro.osf" horiz-adv-x="758" 
d="M23 310v20h46v41h-46v20h48c7 80 44 147 97 202c63 64 147 103 242 103c94 0 178 -39 241 -103c30 -32 56 -70 74 -113h-24c-16 38 -38 70 -65 98c-57 59 -138 96 -226 96s-169 -37 -227 -96c-49 -51 -84 -113 -92 -187h180v-20h-182v-41h182v-20h-181
c8 -76 43 -142 93 -192c58 -60 139 -97 227 -97s169 37 226 97c27 26 49 58 65 96h24c-18 -42 -44 -81 -74 -112c-63 -64 -147 -103 -241 -103c-95 0 -179 39 -242 103c-53 55 -90 125 -98 208h-47z" />
    <glyph glyph-name="zero.numerator" horiz-adv-x="592" 
d="M294 681c-158 0 -236 -166 -236 -331s78 -330 236 -330s237 165 237 330s-79 331 -237 331zM294 -2c-172 0 -257 175 -257 352c0 176 85 353 257 353c171 0 257 -177 257 -353c0 -177 -86 -352 -257 -352z" />
    <glyph glyph-name="one.numerator" horiz-adv-x="277" 
d="M187 663l-156 -214l-15 11l172 240h21v-700h-22v663z" />
    <glyph glyph-name="two.numerator" horiz-adv-x="549" 
d="M60 483h-22c0 118 80 217 236 217c152 0 237 -97 234 -207c-1 -75 -42 -141 -97 -187l-335 -285h434v-21h-470v19l355 302c48 43 89 102 91 169c3 98 -73 189 -212 189c-143 0 -214 -92 -214 -196z" />
    <glyph glyph-name="three.numerator" horiz-adv-x="546" 
d="M342 364v-1c104 -21 169 -84 169 -181c0 -103 -86 -192 -248 -192c-144 0 -215 72 -228 163l20 3c12 -78 74 -145 208 -145c151 0 225 84 225 170c0 87 -73 171 -225 171h-49v20h49c131 0 190 76 190 158c-1 191 -331 209 -373 45l-20 4c47 191 414 169 414 -50
c0 -54 -24 -140 -132 -165z" />
    <glyph glyph-name="four.numerator" horiz-adv-x="544" 
d="M28 198l396 502h19v-500h65v-21h-65v-179h-20v179h-395v19zM56 200h367v451l1 16l-6 -11z" />
    <glyph glyph-name="five.numerator" horiz-adv-x="555" 
d="M467 697v-21h-386v-267c54 26 115 43 181 43c39 0 78 -7 114 -22c90 -38 136 -119 137 -203c1 -112 -80 -227 -242 -227c-124 0 -198 67 -228 151l20 7c27 -77 93 -136 208 -136c148 0 221 103 220 205c0 72 -43 148 -119 182c-34 14 -73 22 -107 22
c-64 0 -126 -19 -184 -45l-21 10v301h407z" />
    <glyph glyph-name="six.numerator" horiz-adv-x="564" 
d="M283 421c-147 0 -221 -102 -221 -204c0 -101 74 -203 221 -203c148 0 221 102 221 203c0 102 -73 204 -221 204zM82 348l243 352h26l-184 -268l-27 -33c8 6 16 12 24 17c33 17 69 27 119 27c162 0 242 -114 242 -226c0 -113 -80 -225 -242 -225c-161 0 -242 112 -242 225
c0 46 13 92 41 131z" />
    <glyph glyph-name="seven.numerator" horiz-adv-x="534" 
d="M29 700h470v-20l-371 -680h-26l370 679h-443v21z" />
    <glyph glyph-name="eight.numerator" horiz-adv-x="558" 
d="M277 12c148 0 221 85 221 171s-73 173 -221 173c-147 0 -221 -87 -221 -173s74 -171 221 -171zM277 692c-90 0 -187 -49 -187 -157c0 -79 61 -158 187 -158c127 0 187 79 187 159c0 108 -98 156 -187 156zM361 370l-19 -3l20 -2c110 -28 158 -102 158 -181
c0 -97 -81 -193 -243 -193c-161 0 -242 96 -242 193c0 78 54 156 157 183l19 2l-33 7c-73 31 -109 95 -109 160c1 120 109 177 208 177c139 0 209 -88 209 -178c0 -70 -41 -139 -125 -165z" />
    <glyph glyph-name="nine.numerator" horiz-adv-x="560" 
d="M281 280c148 0 222 102 222 203c0 102 -74 205 -222 205c-147 0 -221 -103 -221 -205c0 -101 74 -203 221 -203zM483 354l-243 -354h-25l183 269l27 33c-8 -6 -16 -12 -24 -17c-33 -17 -69 -27 -120 -27c-161 0 -242 112 -242 225c0 114 81 226 242 227
c162 0 243 -112 243 -226c0 -45 -13 -92 -41 -130z" />
    <glyph glyph-name="zero.denominator" horiz-adv-x="592" 
d="M294 681c-158 0 -236 -166 -236 -331s78 -330 236 -330s237 165 237 330s-79 331 -237 331zM294 -2c-172 0 -257 175 -257 352c0 176 85 353 257 353c171 0 257 -177 257 -353c0 -177 -86 -352 -257 -352z" />
    <glyph glyph-name="one.denominator" horiz-adv-x="277" 
d="M187 663l-156 -214l-15 11l172 240h21v-700h-22v663z" />
    <glyph glyph-name="two.denominator" horiz-adv-x="549" 
d="M60 483h-22c0 118 80 217 236 217c152 0 237 -97 234 -207c-1 -75 -42 -141 -97 -187l-335 -285h434v-21h-470v19l355 302c48 43 89 102 91 169c3 98 -73 189 -212 189c-143 0 -214 -92 -214 -196z" />
    <glyph glyph-name="three.denominator" horiz-adv-x="546" 
d="M342 364v-1c104 -21 169 -84 169 -181c0 -103 -86 -192 -248 -192c-144 0 -215 72 -228 163l20 3c12 -78 74 -145 208 -145c151 0 225 84 225 170c0 87 -73 171 -225 171h-49v20h49c131 0 190 76 190 158c-1 191 -331 209 -373 45l-20 4c47 191 414 169 414 -50
c0 -54 -24 -140 -132 -165z" />
    <glyph glyph-name="four.denominator" horiz-adv-x="544" 
d="M28 198l396 502h19v-500h65v-21h-65v-179h-20v179h-395v19zM56 200h367v451l1 16l-6 -11z" />
    <glyph glyph-name="five.denominator" horiz-adv-x="555" 
d="M467 697v-21h-386v-267c54 26 115 43 181 43c39 0 78 -7 114 -22c90 -38 136 -119 137 -203c1 -112 -80 -227 -242 -227c-124 0 -198 67 -228 151l20 7c27 -77 93 -136 208 -136c148 0 221 103 220 205c0 72 -43 148 -119 182c-34 14 -73 22 -107 22
c-64 0 -126 -19 -184 -45l-21 10v301h407z" />
    <glyph glyph-name="six.denominator" horiz-adv-x="564" 
d="M283 421c-147 0 -221 -102 -221 -204c0 -101 74 -203 221 -203c148 0 221 102 221 203c0 102 -73 204 -221 204zM82 348l243 352h26l-184 -268l-27 -33c8 6 16 12 24 17c33 17 69 27 119 27c162 0 242 -114 242 -226c0 -113 -80 -225 -242 -225c-161 0 -242 112 -242 225
c0 46 13 92 41 131z" />
    <glyph glyph-name="seven.denominator" horiz-adv-x="534" 
d="M29 700h470v-20l-371 -680h-26l370 679h-443v21z" />
    <glyph glyph-name="eight.denominator" horiz-adv-x="558" 
d="M277 12c148 0 221 85 221 171s-73 173 -221 173c-147 0 -221 -87 -221 -173s74 -171 221 -171zM277 692c-90 0 -187 -49 -187 -157c0 -79 61 -158 187 -158c127 0 187 79 187 159c0 108 -98 156 -187 156zM361 370l-19 -3l20 -2c110 -28 158 -102 158 -181
c0 -97 -81 -193 -243 -193c-161 0 -242 96 -242 193c0 78 54 156 157 183l19 2l-33 7c-73 31 -109 95 -109 160c1 120 109 177 208 177c139 0 209 -88 209 -178c0 -70 -41 -139 -125 -165z" />
    <glyph glyph-name="nine.denominator" horiz-adv-x="560" 
d="M281 280c148 0 222 102 222 203c0 102 -74 205 -222 205c-147 0 -221 -103 -221 -205c0 -101 74 -203 221 -203zM483 354l-243 -354h-25l183 269l27 33c-8 -6 -16 -12 -24 -17c-33 -17 -69 -27 -120 -27c-161 0 -242 112 -242 225c0 114 81 226 242 227
c162 0 243 -112 243 -226c0 -45 -13 -92 -41 -130z" />
    <glyph glyph-name="Amacron" unicode="&#x100;" 
d="M203 754v21h216v-21h-216zM312 678l-165 -424h329c-56 144 -108 280 -164 424zM580 0l-95 233h-347l-94 -233h-24l282 710h21l281 -710h-24z" />
    <glyph glyph-name="amacron" unicode="&#x101;" 
d="M312 678l-165 -424h329c-56 144 -108 280 -164 424zM580 0l-95 233h-347l-94 -233h-24l282 710h21l281 -710h-24zM204 754v21h216v-21h-216z" />
    <glyph glyph-name="Abreve" unicode="&#x102;" 
d="M312 678l-165 -424h329c-56 144 -108 280 -164 424zM580 0l-95 233h-347l-94 -233h-24l282 710h21l281 -710h-24zM390 829h18c0 -51 -48 -77 -96 -77c-51 0 -96 24 -96 77h18c0 -39 40 -58 79 -58s77 20 77 58z" />
    <glyph glyph-name="abreve" unicode="&#x103;" 
d="M312 678l-165 -424h329c-56 144 -108 280 -164 424zM580 0l-95 233h-347l-94 -233h-24l282 710h21l281 -710h-24zM390 828h18c0 -51 -48 -77 -96 -77c-51 0 -96 24 -96 77h18c0 -39 40 -58 79 -58s77 20 77 58z" />
    <glyph glyph-name="Aogonek" unicode="&#x104;" 
d="M312 678l-165 -424h329c-56 144 -108 280 -164 424zM580 0l-95 233h-347l-94 -233h-24l282 710h21l284 -715c-61 -25 -82 -50 -82 -86c0 -40 46 -53 75 -55l-5 -17c-126 11 -116 126 -15 163z" />
    <glyph glyph-name="aogonek" unicode="&#x105;" 
d="M312 678l-165 -424h329c-56 144 -108 280 -164 424zM580 0l-95 233h-347l-94 -233h-24l282 710h21l284 -715c-61 -25 -82 -50 -82 -86c0 -40 46 -53 75 -55l-5 -17c-126 11 -116 126 -15 163z" />
    <glyph glyph-name="Cacute" unicode="&#x106;" horiz-adv-x="744" 
d="M698 490h-24c-16 38 -39 70 -66 98c-57 60 -138 96 -227 96c-88 0 -169 -36 -227 -96c-57 -59 -94 -141 -94 -239c0 -99 37 -177 94 -235c58 -60 139 -97 227 -97c89 0 170 37 227 97c27 27 50 58 66 97h24c-18 -42 -44 -81 -75 -113c-62 -64 -146 -103 -242 -103
c-95 0 -179 39 -242 103c-61 64 -101 142 -101 251c0 105 40 190 101 254c63 64 147 103 242 103c96 0 180 -39 242 -103c31 -32 57 -70 75 -113zM395 754h-24l65 80h30z" />
    <glyph glyph-name="cacute" unicode="&#x107;" horiz-adv-x="744" 
d="M698 490h-24c-16 38 -39 70 -66 98c-57 60 -138 96 -227 96c-88 0 -169 -36 -227 -96c-57 -59 -94 -141 -94 -239c0 -99 37 -177 94 -235c58 -60 139 -97 227 -97c89 0 170 37 227 97c27 27 50 58 66 97h24c-18 -42 -44 -81 -75 -113c-62 -64 -146 -103 -242 -103
c-95 0 -179 39 -242 103c-61 64 -101 142 -101 251c0 105 40 190 101 254c63 64 147 103 242 103c96 0 180 -39 242 -103c31 -32 57 -70 75 -113zM389 754h-24l65 80h30z" />
    <glyph glyph-name="Ccircumflex" unicode="&#x108;" horiz-adv-x="744" 
d="M698 490h-24c-16 38 -39 70 -66 98c-57 60 -138 96 -227 96c-88 0 -169 -36 -227 -96c-57 -59 -94 -141 -94 -239c0 -99 37 -177 94 -235c58 -60 139 -97 227 -97c89 0 170 37 227 97c27 27 50 58 66 97h24c-18 -42 -44 -81 -75 -113c-62 -64 -146 -103 -242 -103
c-95 0 -179 39 -242 103c-61 64 -101 142 -101 251c0 105 40 190 101 254c63 64 147 103 242 103c96 0 180 -39 242 -103c31 -32 57 -70 75 -113zM319 756h-26l73 67h32l73 -67h-26l-63 52z" />
    <glyph glyph-name="ccircumflex" unicode="&#x109;" horiz-adv-x="744" 
d="M698 490h-24c-16 38 -39 70 -66 98c-57 60 -138 96 -227 96c-88 0 -169 -36 -227 -96c-57 -59 -94 -141 -94 -239c0 -99 37 -177 94 -235c58 -60 139 -97 227 -97c89 0 170 37 227 97c27 27 50 58 66 97h24c-18 -42 -44 -81 -75 -113c-62 -64 -146 -103 -242 -103
c-95 0 -179 39 -242 103c-61 64 -101 142 -101 251c0 105 40 190 101 254c63 64 147 103 242 103c96 0 180 -39 242 -103c31 -32 57 -70 75 -113zM326 756h-26l73 67h32l73 -67h-26l-63 52z" />
    <glyph glyph-name="Cdotaccent" unicode="&#x10a;" horiz-adv-x="744" 
d="M674 490h24c-18 43 -44 81 -75 113c-62 64 -146 103 -242 103c-95 0 -179 -39 -242 -103c-61 -64 -101 -149 -101 -254c0 -109 40 -187 101 -251c63 -64 147 -103 242 -103c96 0 180 39 242 103c31 32 57 71 75 113h-24c-16 -39 -39 -70 -66 -97
c-57 -60 -138 -97 -227 -97c-88 0 -169 37 -227 97c-57 58 -94 136 -94 235c0 98 37 180 94 239c58 60 139 96 227 96c89 0 170 -36 227 -96c27 -28 50 -60 66 -98zM384 801c12 0 23 -11 23 -24c0 -11 -11 -22 -23 -22s-24 8 -24 22c0 16 12 24 24 24z" />
    <glyph glyph-name="cdotaccent" unicode="&#x10b;" horiz-adv-x="744" 
d="M674 490h24c-18 43 -44 81 -75 113c-62 64 -146 103 -242 103c-95 0 -179 -39 -242 -103c-61 -64 -101 -149 -101 -254c0 -109 40 -187 101 -251c63 -64 147 -103 242 -103c96 0 180 39 242 103c31 32 57 71 75 113h-24c-16 -39 -39 -70 -66 -97
c-57 -60 -138 -97 -227 -97c-88 0 -169 37 -227 97c-57 58 -94 136 -94 235c0 98 37 180 94 239c58 60 139 96 227 96c89 0 170 -36 227 -96c27 -28 50 -60 66 -98zM382 801c12 0 23 -11 23 -24c0 -11 -11 -22 -23 -22s-24 8 -24 22c0 16 12 24 24 24z" />
    <glyph glyph-name="Ccaron" unicode="&#x10c;" horiz-adv-x="744" 
d="M698 490h-24c-16 38 -39 70 -66 98c-57 60 -138 96 -227 96c-88 0 -169 -36 -227 -96c-57 -59 -94 -141 -94 -239c0 -99 37 -177 94 -235c58 -60 139 -97 227 -97c89 0 170 37 227 97c27 27 50 58 66 97h24c-18 -42 -44 -81 -75 -113c-62 -64 -146 -103 -242 -103
c-95 0 -179 39 -242 103c-61 64 -101 142 -101 251c0 105 40 190 101 254c63 64 147 103 242 103c96 0 180 -39 242 -103c31 -32 57 -70 75 -113zM445 822h26l-73 -67h-32l-73 67h26l63 -52z" />
    <glyph glyph-name="ccaron" unicode="&#x10d;" horiz-adv-x="744" 
d="M698 490h-24c-16 38 -39 70 -66 98c-57 60 -138 96 -227 96c-88 0 -169 -36 -227 -96c-57 -59 -94 -141 -94 -239c0 -99 37 -177 94 -235c58 -60 139 -97 227 -97c89 0 170 37 227 97c27 27 50 58 66 97h24c-18 -42 -44 -81 -75 -113c-62 -64 -146 -103 -242 -103
c-95 0 -179 39 -242 103c-61 64 -101 142 -101 251c0 105 40 190 101 254c63 64 147 103 242 103c96 0 180 -39 242 -103c31 -32 57 -70 75 -113zM445 822h26l-73 -67h-32l-73 67h26l63 -52z" />
    <glyph glyph-name="Dcaron" unicode="&#x10e;" horiz-adv-x="691" 
d="M85 21h216c215 0 323 163 323 328s-108 330 -323 330h-216v-658zM64 700h237c229 0 344 -176 344 -351s-115 -349 -344 -349h-237v700zM369 822h26l-73 -67h-32l-73 67h26l63 -52z" />
    <glyph glyph-name="dcaron" unicode="&#x10f;" horiz-adv-x="691" 
d="M85 21h216c215 0 323 163 323 328s-108 330 -323 330h-216v-658zM64 700h237c229 0 344 -176 344 -351s-115 -349 -344 -349h-237v700zM369 822h26l-73 -67h-32l-73 67h26l63 -52z" />
    <glyph glyph-name="Dcroat" unicode="&#x110;" horiz-adv-x="724" 
d="M22 342v19h75v338h237c229 0 344 -175 344 -350s-115 -349 -344 -349h-237v342h-75zM118 21h216c215 0 323 163 323 328s-108 329 -323 329h-216v-317h139v-19h-139v-321z" />
    <glyph glyph-name="dcroat" unicode="&#x111;" horiz-adv-x="724" 
d="M22 342v19h75v338h237c229 0 344 -175 344 -350s-115 -349 -344 -349h-237v342h-75zM118 21h216c215 0 323 163 323 328s-108 329 -323 329h-216v-317h139v-19h-139v-321z" />
    <glyph glyph-name="Emacron" unicode="&#x112;" horiz-adv-x="501" 
d="M167 770v22h209v-22h-209zM86 339v-318h369v-21h-390v700h388v-21h-367v-318h359v-22h-359z" />
    <glyph glyph-name="emacron" unicode="&#x113;" horiz-adv-x="501" 
d="M86 339v-318h369v-21h-390v700h388v-21h-367v-318h359v-22h-359zM167 770v22h209v-22h-209z" />
    <glyph glyph-name="Ebreve" unicode="&#x114;" horiz-adv-x="501" 
d="M86 339v-318h369v-21h-390v700h388v-21h-367v-318h359v-22h-359zM342 833h18c0 -51 -48 -77 -96 -77c-51 0 -96 24 -96 77h18c0 -39 40 -58 79 -58s77 20 77 58z" />
    <glyph glyph-name="ebreve" unicode="&#x115;" horiz-adv-x="501" 
d="M86 339v-318h369v-21h-390v700h388v-21h-367v-318h359v-22h-359zM340 831h18c0 -51 -48 -77 -96 -77c-51 0 -96 24 -96 77h18c0 -39 40 -58 79 -58s77 20 77 58z" />
    <glyph glyph-name="Edotaccent" unicode="&#x116;" horiz-adv-x="501" 
d="M86 21v318h359v22h-359v318h367v21h-388v-700h390v21h-369zM270 801c12 0 23 -11 23 -24c0 -11 -11 -22 -23 -22s-24 8 -24 22c0 16 12 24 24 24z" />
    <glyph glyph-name="edotaccent" unicode="&#x117;" horiz-adv-x="501" 
d="M86 21v318h359v22h-359v318h367v21h-388v-700h390v21h-369zM271 801c12 0 23 -11 23 -24c0 -11 -11 -22 -23 -22s-24 8 -24 22c0 16 12 24 24 24z" />
    <glyph glyph-name="Eogonek" unicode="&#x118;" horiz-adv-x="501" 
d="M86 339v-318h369v-22c-80 -25 -123 -133 -5 -133l-7 -16c-18 -3 -78 -3 -87 53c-4 43 31 77 68 97h-359v700h388v-21h-367v-318h359v-22h-359z" />
    <glyph glyph-name="eogonek" unicode="&#x119;" horiz-adv-x="501" 
d="M86 339v-318h369v-22c-80 -25 -123 -133 -5 -133l-7 -16c-18 -3 -78 -3 -87 53c-4 43 31 77 68 97h-359v700h388v-21h-367v-318h359v-22h-359z" />
    <glyph glyph-name="Ecaron" unicode="&#x11a;" horiz-adv-x="501" 
d="M86 339v-318h369v-21h-390v700h388v-21h-367v-318h359v-22h-359zM334 822h26l-73 -67h-32l-73 67h26l63 -52z" />
    <glyph glyph-name="ecaron" unicode="&#x11b;" horiz-adv-x="501" 
d="M86 339v-318h369v-21h-390v700h388v-21h-367v-318h359v-22h-359zM334 822h26l-73 -67h-32l-73 67h26l63 -52z" />
    <glyph glyph-name="Gcircumflex" unicode="&#x11c;" horiz-adv-x="761" 
d="M702 487h-23c-47 124 -165 198 -291 198c-88 0 -169 -40 -227 -99c-55 -60 -93 -144 -93 -235c0 -90 38 -176 93 -235c58 -61 139 -99 227 -99c136 0 280 106 307 250h-304v22h331c-2 -27 -8 -53 -17 -74c-48 -125 -195 -221 -317 -221c-95 0 -180 41 -242 106
c-62 64 -100 152 -100 251c0 98 39 186 100 251c62 65 147 105 242 105c137 0 268 -84 314 -220zM329 753h-26l73 67h32l73 -67h-26l-63 52z" />
    <glyph glyph-name="gcircumflex" unicode="&#x11d;" horiz-adv-x="761" 
d="M702 487h-23c-47 124 -165 198 -291 198c-88 0 -169 -40 -227 -99c-55 -60 -93 -144 -93 -235c0 -90 38 -176 93 -235c58 -61 139 -99 227 -99c136 0 280 106 307 250h-304v22h331c-2 -27 -8 -53 -17 -74c-48 -125 -195 -221 -317 -221c-95 0 -180 41 -242 106
c-62 64 -100 152 -100 251c0 98 39 186 100 251c62 65 147 105 242 105c137 0 268 -84 314 -220zM328 753h-26l73 67h32l73 -67h-26l-63 52z" />
    <glyph glyph-name="Gbreve" unicode="&#x11e;" horiz-adv-x="761" 
d="M702 487h-23c-47 124 -165 198 -291 198c-88 0 -169 -40 -227 -99c-55 -60 -93 -144 -93 -235c0 -90 38 -176 93 -235c58 -61 139 -99 227 -99c136 0 280 106 307 250h-304v22h331c-2 -27 -8 -53 -17 -74c-48 -125 -195 -221 -317 -221c-95 0 -180 41 -242 106
c-62 64 -100 152 -100 251c0 98 39 186 100 251c62 65 147 105 242 105c137 0 268 -84 314 -220zM465 830h18c0 -51 -48 -77 -96 -77c-51 0 -96 24 -96 77h18c0 -39 40 -58 79 -58s77 20 77 58z" />
    <glyph glyph-name="gbreve" unicode="&#x11f;" horiz-adv-x="761" 
d="M702 487h-23c-47 124 -165 198 -291 198c-88 0 -169 -40 -227 -99c-55 -60 -93 -144 -93 -235c0 -90 38 -176 93 -235c58 -61 139 -99 227 -99c136 0 280 106 307 250h-304v22h331c-2 -27 -8 -53 -17 -74c-48 -125 -195 -221 -317 -221c-95 0 -180 41 -242 106
c-62 64 -100 152 -100 251c0 98 39 186 100 251c62 65 147 105 242 105c137 0 268 -84 314 -220zM466 830h18c0 -51 -48 -77 -96 -77c-51 0 -96 24 -96 77h18c0 -39 40 -58 79 -58s77 20 77 58z" />
    <glyph glyph-name="Gdotaccent" unicode="&#x120;" horiz-adv-x="761" 
d="M679 487h23c-46 136 -177 220 -314 220c-95 0 -180 -40 -242 -105c-61 -65 -100 -153 -100 -251c0 -99 38 -187 100 -251c62 -65 147 -106 242 -106c122 0 269 96 317 221c9 21 15 47 17 74h-331v-22h304c-27 -144 -171 -250 -307 -250c-88 0 -169 38 -227 99
c-55 59 -93 145 -93 235c0 91 38 175 93 235c58 59 139 99 227 99c126 0 244 -74 291 -198zM389 801c12 0 23 -11 23 -24c0 -11 -11 -22 -23 -22s-24 8 -24 22c0 16 12 24 24 24z" />
    <glyph glyph-name="gdotaccent" unicode="&#x121;" horiz-adv-x="761" 
d="M679 487h23c-46 136 -177 220 -314 220c-95 0 -180 -40 -242 -105c-61 -65 -100 -153 -100 -251c0 -99 38 -187 100 -251c62 -65 147 -106 242 -106c122 0 269 96 317 221c9 21 15 47 17 74h-331v-22h304c-27 -144 -171 -250 -307 -250c-88 0 -169 38 -227 99
c-55 59 -93 145 -93 235c0 91 38 175 93 235c58 59 139 99 227 99c126 0 244 -74 291 -198zM388 801c12 0 23 -11 23 -24c0 -11 -11 -22 -23 -22s-24 8 -24 22c0 16 12 24 24 24z" />
    <glyph glyph-name="Gcommaaccent" unicode="&#x122;" horiz-adv-x="761" 
d="M375 -52h26c7 -29 7 -71 -11 -106h-19c14 43 14 63 4 106zM702 487h-23c-47 124 -165 198 -291 198c-88 0 -169 -40 -227 -99c-55 -60 -93 -144 -93 -235c0 -90 38 -176 93 -235c58 -61 139 -99 227 -99c136 0 280 106 307 250h-304v22h331c-2 -27 -8 -53 -17 -74
c-48 -125 -195 -221 -317 -221c-95 0 -180 41 -242 106c-62 64 -100 152 -100 251c0 98 39 186 100 251c62 65 147 105 242 105c137 0 268 -84 314 -220z" />
    <glyph glyph-name="gcommaaccent" unicode="&#x123;" horiz-adv-x="761" 
d="M702 487h-23c-47 124 -165 198 -291 198c-88 0 -169 -40 -227 -99c-55 -60 -93 -144 -93 -235c0 -90 38 -176 93 -235c58 -61 139 -99 227 -99c136 0 280 106 307 250h-304v22h331c-2 -27 -8 -53 -17 -74c-48 -125 -195 -221 -317 -221c-95 0 -180 41 -242 106
c-62 64 -100 152 -100 251c0 98 39 186 100 251c62 65 147 105 242 105c137 0 268 -84 314 -220zM375 -52h26c7 -29 7 -71 -11 -106h-19c14 43 14 63 4 106z" />
    <glyph glyph-name="Hcircumflex" unicode="&#x124;" horiz-adv-x="603" 
d="M86 700v-335h429v335h22v-700h-22v344h-429v-344h-21v700h21zM237 756h-26l73 67h32l73 -67h-26l-63 52z" />
    <glyph glyph-name="hcircumflex" unicode="&#x125;" horiz-adv-x="603" 
d="M86 700v-335h429v335h22v-700h-22v344h-429v-344h-21v700h21zM237 756h-26l73 67h32l73 -67h-26l-63 52z" />
    <glyph glyph-name="Hbar" unicode="&#x126;" horiz-adv-x="614" 
d="M19 518v19h53v163h21v-163h429v163h22v-163h50v-19h-50v-518h-22v344h-429v-344h-21v518h-53zM93 518v-153h429v153h-429z" />
    <glyph glyph-name="hbar" unicode="&#x127;" horiz-adv-x="614" 
d="M19 518v19h53v163h21v-163h429v163h22v-163h50v-19h-50v-518h-22v344h-429v-344h-21v518h-53zM93 518v-153h429v153h-429z" />
    <glyph glyph-name="Itilde" unicode="&#x128;" horiz-adv-x="381" 
d="M348 700v-19h-148v-661h148v-20h-316v20h147v661h-147v19h316zM117 751l-16 5c2 20 16 35 33 42c53 22 69 -45 108 -30c11 5 20 15 24 30l17 -5c-5 -20 -16 -35 -34 -42c-51 -20 -70 48 -110 29c-9 -4 -19 -13 -22 -29z" />
    <glyph glyph-name="itilde" unicode="&#x129;" horiz-adv-x="381" 
d="M348 700v-19h-148v-661h148v-20h-316v20h147v661h-147v19h316zM117 752l-16 5c2 20 16 35 33 42c53 22 69 -45 108 -30c11 5 20 15 24 30l17 -5c-5 -20 -16 -35 -34 -42c-51 -20 -70 48 -110 29c-9 -4 -19 -13 -22 -29z" />
    <glyph glyph-name="Imacron" unicode="&#x12a;" horiz-adv-x="381" 
d="M348 700v-19h-148v-661h148v-20h-316v20h147v661h-147v19h316zM83 769v19h214v-19h-214z" />
    <glyph glyph-name="imacron" unicode="&#x12b;" horiz-adv-x="381" 
d="M84 769v19h214v-19h-214zM348 700v-19h-148v-661h148v-20h-316v20h147v661h-147v19h316z" />
    <glyph glyph-name="Ibreve" unicode="&#x12c;" horiz-adv-x="381" 
d="M348 700v-19h-148v-661h148v-20h-316v20h147v661h-147v19h316zM265 827h18c0 -51 -48 -77 -96 -77c-51 0 -96 24 -96 77h18c0 -39 40 -58 79 -58s77 20 77 58z" />
    <glyph glyph-name="ibreve" unicode="&#x12d;" horiz-adv-x="381" 
d="M348 700v-19h-148v-661h148v-20h-316v20h147v661h-147v19h316zM266 827h18c0 -51 -48 -77 -96 -77c-51 0 -96 24 -96 77h18c0 -39 40 -58 79 -58s77 20 77 58z" />
    <glyph glyph-name="Iogonek" unicode="&#x12e;" horiz-adv-x="381" 
d="M348 700v-19h-148v-661h148v-20h-146v-6c-48 -23 -66 -53 -64 -83c2 -25 18 -48 69 -44l-3 -17c-56 -9 -85 23 -88 57c-3 32 16 67 65 90v3h-149v20h147v661h-147v19h316z" />
    <glyph glyph-name="iogonek" unicode="&#x12f;" horiz-adv-x="381" 
d="M348 700v-19h-148v-661h148v-20h-146v-6c-48 -23 -66 -53 -64 -83c2 -25 18 -48 69 -44l-3 -17c-56 -9 -85 23 -88 57c-3 32 16 67 65 90v3h-149v20h147v661h-147v19h316z" />
    <glyph glyph-name="Idotaccent" unicode="&#x130;" horiz-adv-x="381" 
d="M348 681v19h-316v-19h147v-661h-147v-20h316v20h-148v661h148zM190 801c12 0 23 -11 23 -24c0 -11 -11 -22 -23 -22s-24 8 -24 22c0 16 12 24 24 24z" />
    <glyph glyph-name="dotlessi" unicode="&#x131;" horiz-adv-x="381" 
d="M348 700v-19h-148v-661h148v-20h-316v20h147v661h-147v19h316z" />
    <glyph glyph-name="IJ" unicode="&#x132;" horiz-adv-x="713" 
d="M348 700v-19h-148v-661h148v-20h-316v20h147v661h-147v19h316zM390 0v21c157 0 240 100 240 276v383h-214v20h235v-403c0 -192 -91 -297 -261 -297z" />
    <glyph glyph-name="ij" unicode="&#x133;" horiz-adv-x="713" 
d="M348 700v-19h-148v-661h148v-20h-316v20h147v661h-147v19h316zM390 0v21c157 0 240 100 240 276v383h-214v20h235v-403c0 -192 -91 -297 -261 -297z" />
    <glyph glyph-name="Jcircumflex" unicode="&#x134;" horiz-adv-x="435" 
d="M372 700v-404c0 -203 -153 -296 -344 -296v22c180 0 323 84 323 274v384h-214v20h235zM191 754h-26l73 67h32l73 -67h-26l-63 52z" />
    <glyph glyph-name="jcircumflex" unicode="&#x135;" horiz-adv-x="435" 
d="M372 700v-404c0 -203 -153 -296 -344 -296v22c180 0 323 84 323 274v384h-214v20h235zM189 754h-26l73 67h32l73 -67h-26l-63 52z" />
    <glyph glyph-name="Kcommaaccent" unicode="&#x136;" horiz-adv-x="535" 
d="M255 -12h26c8 -41 -1 -84 -19 -117h-17c15 43 20 75 10 117zM64 700h22v-700h-22v700zM104 341v18l345 341h30l-354 -349l396 -351h-35z" />
    <glyph glyph-name="kcommaaccent" unicode="&#x137;" horiz-adv-x="535" 
d="M64 700h22v-700h-22v700zM104 341v18l345 341h30l-354 -349l396 -351h-35zM253 -12h26c8 -41 -1 -84 -19 -117h-17c15 43 20 75 10 117z" />
    <glyph glyph-name="kgreenlandic" unicode="&#x138;" horiz-adv-x="535" 
d="M64 700h22v-700h-22v700zM104 341v18l345 341h30l-354 -349l396 -351h-35z" />
    <glyph glyph-name="Lacute" unicode="&#x139;" horiz-adv-x="495" 
d="M87 700v-677h372v-23h-394v700h22zM89 750h-24l65 80h30z" />
    <glyph glyph-name="lacute" unicode="&#x13a;" horiz-adv-x="495" 
d="M87 700v-677h372v-23h-394v700h22zM91 750h-24l65 80h30z" />
    <glyph glyph-name="Lcommaaccent" unicode="&#x13b;" horiz-adv-x="495" 
d="M87 700v-677h372v-23h-394v700h22zM246 -32h26c8 -41 -1 -84 -19 -117h-17c15 43 20 75 10 117z" />
    <glyph glyph-name="lcommaaccent" unicode="&#x13c;" horiz-adv-x="495" 
d="M87 700v-677h372v-23h-394v700h22zM246 -32h25c8 -41 0 -84 -18 -117h-17c15 43 20 75 10 117z" />
    <glyph glyph-name="Lcaron" unicode="&#x13d;" horiz-adv-x="495" 
d="M87 700v-677h372v-23h-394v700h22zM381 703h26c8 -41 -1 -84 -19 -117h-17c15 43 20 75 10 117z" />
    <glyph glyph-name="lcaron" unicode="&#x13e;" horiz-adv-x="495" 
d="M87 700v-677h372v-23h-394v700h22zM381 703h26c8 -41 -1 -84 -19 -117h-17c15 43 20 75 10 117z" />
    <glyph glyph-name="Ldot" unicode="&#x13f;" horiz-adv-x="495" 
d="M87 700v-677h372v-23h-394v700h22zM279 408c12 0 23 -11 23 -24c0 -11 -11 -22 -23 -22s-24 8 -24 22c0 16 12 24 24 24z" />
    <glyph glyph-name="ldot" unicode="&#x140;" horiz-adv-x="495" 
d="M87 700v-677h372v-23h-394v700h22zM279 408c12 0 23 -11 23 -24c0 -11 -11 -22 -23 -22s-24 8 -24 22c0 16 12 24 24 24z" />
    <glyph glyph-name="Lslash" unicode="&#x141;" horiz-adv-x="499" 
d="M91 327v-304h372v-23h-394v315l-53 -27v23l53 28v361h22v-350l162 84v-24z" />
    <glyph glyph-name="lslash" unicode="&#x142;" horiz-adv-x="499" 
d="M91 327v-304h372v-23h-394v315l-53 -27v23l53 28v361h22v-350l162 84v-24z" />
    <glyph glyph-name="Nacute" unicode="&#x143;" horiz-adv-x="622" 
d="M87 0h-22v700h18l457 -660v660h21v-700h-20l-454 656v-656zM314 750h-24l65 80h30z" />
    <glyph glyph-name="nacute" unicode="&#x144;" horiz-adv-x="622" 
d="M87 0h-22v700h18l457 -660v660h21v-700h-20l-454 656v-656zM316 750h-24l65 80h30z" />
    <glyph glyph-name="Ncommaaccent" unicode="&#x145;" horiz-adv-x="622" 
d="M87 0h-22v700h18l457 -660v660h21v-700h-20l-454 656v-656zM293 -18h25c8 -41 0 -84 -18 -117h-17c15 43 20 75 10 117z" />
    <glyph glyph-name="ncommaaccent" unicode="&#x146;" horiz-adv-x="622" 
d="M87 0h-22v700h18l457 -660v660h21v-700h-20l-454 656v-656zM293 -18h25c8 -41 0 -84 -18 -117h-17c15 43 20 75 10 117z" />
    <glyph glyph-name="Ncaron" unicode="&#x147;" horiz-adv-x="622" 
d="M87 0h-22v700h18l457 -660v660h21v-700h-20l-454 656v-656zM385 814h26l-73 -67h-32l-73 67h26l63 -52z" />
    <glyph glyph-name="ncaron" unicode="&#x148;" horiz-adv-x="622" 
d="M87 0h-22v700h18l457 -660v660h21v-700h-20l-454 656v-656zM385 814h26l-73 -67h-32l-73 67h26l63 -52z" />
    <glyph glyph-name="napostrophe" unicode="&#x149;" horiz-adv-x="669" 
d="M32 700h25c10 -37 0 -90 -16 -118h-16c12 42 18 76 7 118zM134 0h-22v700h18l457 -660v660h21v-700h-20l-454 656v-656z" />
    <glyph glyph-name="Eng" unicode="&#x14a;" horiz-adv-x="622" 
d="M87 0h-22v700h18l457 -660v660h22v-707c0 -94 -33 -136 -127 -136v20c79 0 105 31 105 116v8l-453 655v-656z" />
    <glyph glyph-name="eng" unicode="&#x14b;" horiz-adv-x="622" 
d="M87 0h-22v700h18l457 -660v660h22v-707c0 -94 -33 -136 -127 -136v20c79 0 105 31 105 116v8l-453 655v-656z" />
    <glyph glyph-name="Omacron" unicode="&#x14c;" horiz-adv-x="798" 
d="M732 350c0 93 -38 177 -98 238s-145 100 -238 100c-92 0 -176 -39 -237 -100c-59 -61 -98 -145 -98 -238s39 -177 98 -238c61 -61 145 -100 237 -100c93 0 178 39 238 100s98 145 98 238zM39 350c0 99 42 188 106 254s153 106 251 106c100 0 189 -40 253 -106
s105 -155 105 -254s-41 -188 -105 -254s-153 -106 -253 -106c-98 0 -187 40 -251 106s-106 155 -106 254zM290 782v22h219v-22h-219z" />
    <glyph glyph-name="omacron" unicode="&#x14d;" horiz-adv-x="798" 
d="M290 782v22h219v-22h-219zM732 350c0 93 -38 177 -98 238s-145 100 -238 100c-92 0 -176 -39 -237 -100c-59 -61 -98 -145 -98 -238s39 -177 98 -238c61 -61 145 -100 237 -100c93 0 178 39 238 100s98 145 98 238zM39 350c0 99 42 188 106 254s153 106 251 106
c100 0 189 -40 253 -106s105 -155 105 -254s-41 -188 -105 -254s-153 -106 -253 -106c-98 0 -187 40 -251 106s-106 155 -106 254z" />
    <glyph glyph-name="Obreve" unicode="&#x14e;" horiz-adv-x="798" 
d="M732 350c0 93 -38 177 -98 238s-145 100 -238 100c-92 0 -176 -39 -237 -100c-59 -61 -98 -145 -98 -238s39 -177 98 -238c61 -61 145 -100 237 -100c93 0 178 39 238 100s98 145 98 238zM39 350c0 99 42 188 106 254s153 106 251 106c100 0 189 -40 253 -106
s105 -155 105 -254s-41 -188 -105 -254s-153 -106 -253 -106c-98 0 -187 40 -251 106s-106 155 -106 254zM475 834h18c0 -51 -48 -77 -96 -77c-51 0 -96 24 -96 77h18c0 -39 40 -58 79 -58s77 20 77 58z" />
    <glyph glyph-name="obreve" unicode="&#x14f;" horiz-adv-x="798" 
d="M732 350c0 93 -38 177 -98 238s-145 100 -238 100c-92 0 -176 -39 -237 -100c-59 -61 -98 -145 -98 -238s39 -177 98 -238c61 -61 145 -100 237 -100c93 0 178 39 238 100s98 145 98 238zM39 350c0 99 42 188 106 254s153 106 251 106c100 0 189 -40 253 -106
s105 -155 105 -254s-41 -188 -105 -254s-153 -106 -253 -106c-98 0 -187 40 -251 106s-106 155 -106 254zM476 834h18c0 -51 -48 -77 -96 -77c-51 0 -96 24 -96 77h18c0 -39 40 -58 79 -58s77 20 77 58z" />
    <glyph glyph-name="Ohungarumlaut" unicode="&#x150;" horiz-adv-x="798" 
d="M732 350c0 93 -38 177 -98 238s-145 100 -238 100c-92 0 -176 -39 -237 -100c-59 -61 -98 -145 -98 -238s39 -177 98 -238c61 -61 145 -100 237 -100c93 0 178 39 238 100s98 145 98 238zM39 350c0 99 42 188 106 254s153 106 251 106c100 0 189 -40 253 -106
s105 -155 105 -254s-41 -188 -105 -254s-153 -106 -253 -106c-98 0 -187 40 -251 106s-106 155 -106 254zM324 753l49 89h31l-59 -89h-21zM436 753l49 89h31l-59 -89h-21z" />
    <glyph glyph-name="ohungarumlaut" unicode="&#x151;" horiz-adv-x="798" 
d="M325 753l49 89h31l-59 -89h-21zM437 753l49 89h31l-59 -89h-21zM732 350c0 93 -38 177 -98 238s-145 100 -238 100c-92 0 -176 -39 -237 -100c-59 -61 -98 -145 -98 -238s39 -177 98 -238c61 -61 145 -100 237 -100c93 0 178 39 238 100s98 145 98 238zM39 350
c0 99 42 188 106 254s153 106 251 106c100 0 189 -40 253 -106s105 -155 105 -254s-41 -188 -105 -254s-153 -106 -253 -106c-98 0 -187 40 -251 106s-106 155 -106 254z" />
    <glyph glyph-name="Racute" unicode="&#x154;" horiz-adv-x="567" 
d="M86 678v-678h-21v700h243c141 0 211 -104 211 -206c0 -103 -70 -205 -211 -205h-105l320 -289h-32l-321 291v18h138c127 0 190 93 190 185s-63 184 -190 184h-222zM264 750h-24l65 80h30z" />
    <glyph glyph-name="racute" unicode="&#x155;" horiz-adv-x="567" 
d="M86 678v-678h-21v700h243c141 0 211 -104 211 -206c0 -103 -70 -205 -211 -205h-105l320 -289h-32l-321 291v18h138c127 0 190 93 190 185s-63 184 -190 184h-222zM264 750h-24l65 80h30z" />
    <glyph glyph-name="Rcommaaccent" unicode="&#x156;" horiz-adv-x="567" 
d="M86 678v-678h-21v700h243c141 0 211 -104 211 -206c0 -103 -70 -205 -211 -205h-105l320 -289h-32l-321 291v18h138c127 0 190 93 190 185s-63 184 -190 184h-222zM285 -18h-25c10 -42 5 -74 -10 -117h17c18 33 26 76 18 117z" />
    <glyph glyph-name="rcommaaccent" unicode="&#x157;" horiz-adv-x="567" 
d="M86 678v-678h-21v700h243c141 0 211 -104 211 -206c0 -103 -70 -205 -211 -205h-105l320 -289h-32l-321 291v18h138c127 0 190 93 190 185s-63 184 -190 184h-222zM284 -17h-25c10 -42 5 -74 -10 -117h17c18 33 26 76 18 117z" />
    <glyph glyph-name="Rcaron" unicode="&#x158;" horiz-adv-x="567" 
d="M86 678v-678h-21v700h243c141 0 211 -104 211 -206c0 -103 -70 -205 -211 -205h-105l320 -289h-32l-321 291v18h138c127 0 190 93 190 185s-63 184 -190 184h-222zM331 817h26l-73 -67h-32l-73 67h26l63 -52z" />
    <glyph glyph-name="rcaron" unicode="&#x159;" horiz-adv-x="567" 
d="M86 678v-678h-21v700h243c141 0 211 -104 211 -206c0 -103 -70 -205 -211 -205h-105l320 -289h-32l-321 291v18h138c127 0 190 93 190 185s-63 184 -190 184h-222zM335 817h26l-73 -67h-32l-73 67h26l63 -52z" />
    <glyph glyph-name="Sacute" unicode="&#x15a;" horiz-adv-x="579" 
d="M491 539l-2 10c-6 26 -19 54 -37 74c-41 42 -111 63 -171 62c-107 -2 -217 -66 -208 -182c9 -119 121 -131 220 -142c100 -10 210 -25 233 -131c3 -15 5 -28 5 -42c0 -124 -127 -195 -247 -195c-101 0 -226 58 -238 172l-1 10l22 2l1 -10c13 -99 126 -153 217 -153
c108 0 224 63 224 175c0 11 -1 23 -4 36c-20 91 -122 105 -215 115c-106 11 -225 18 -240 162c-9 139 118 204 237 204c103 0 204 -50 223 -153l2 -10zM294 761h-24l65 80h30z" />
    <glyph glyph-name="sacute" unicode="&#x15b;" horiz-adv-x="579" 
d="M491 539l-2 10c-6 26 -19 54 -37 74c-41 42 -111 63 -171 62c-107 -2 -217 -66 -208 -182c9 -119 121 -131 220 -142c100 -10 210 -25 233 -131c3 -15 5 -28 5 -42c0 -124 -127 -195 -247 -195c-101 0 -226 58 -238 172l-1 10l22 2l1 -10c13 -99 126 -153 217 -153
c108 0 224 63 224 175c0 11 -1 23 -4 36c-20 91 -122 105 -215 115c-106 11 -225 18 -240 162c-9 139 118 204 237 204c103 0 204 -50 223 -153l2 -10zM293 759h-24l65 80h30z" />
    <glyph glyph-name="Scircumflex" unicode="&#x15c;" horiz-adv-x="579" 
d="M491 539l-2 10c-6 26 -19 54 -37 74c-41 42 -111 63 -171 62c-107 -2 -217 -66 -208 -182c9 -119 121 -131 220 -142c100 -10 210 -25 233 -131c3 -15 5 -28 5 -42c0 -124 -127 -195 -247 -195c-101 0 -226 58 -238 172l-1 10l22 2l1 -10c13 -99 126 -153 217 -153
c108 0 224 63 224 175c0 11 -1 23 -4 36c-20 91 -122 105 -215 115c-106 11 -225 18 -240 162c-9 139 118 204 237 204c103 0 204 -50 223 -153l2 -10zM227 756h-26l73 67h32l73 -67h-26l-63 52z" />
    <glyph glyph-name="scircumflex" unicode="&#x15d;" horiz-adv-x="579" 
d="M491 539l-2 10c-6 26 -19 54 -37 74c-41 42 -111 63 -171 62c-107 -2 -217 -66 -208 -182c9 -119 121 -131 220 -142c100 -10 210 -25 233 -131c3 -15 5 -28 5 -42c0 -124 -127 -195 -247 -195c-101 0 -226 58 -238 172l-1 10l22 2l1 -10c13 -99 126 -153 217 -153
c108 0 224 63 224 175c0 11 -1 23 -4 36c-20 91 -122 105 -215 115c-106 11 -225 18 -240 162c-9 139 118 204 237 204c103 0 204 -50 223 -153l2 -10zM228 756h-26l73 67h32l73 -67h-26l-63 52z" />
    <glyph glyph-name="Scedilla" unicode="&#x15e;" horiz-adv-x="579" 
d="M491 539l-2 10c-6 26 -19 54 -37 74c-41 42 -111 63 -171 62c-107 -2 -217 -66 -208 -182c9 -119 121 -131 220 -142c100 -10 210 -25 233 -131c3 -15 5 -28 5 -42c0 -119 -118 -189 -233 -194l-16 -38c119 -3 108 -118 10 -118c-20 0 -43 5 -66 18l3 15
c20 -11 41 -15 59 -15c89 0 74 85 -10 85c-8 0 -16 0 -23 -1l25 53c-100 2 -222 59 -234 172l-1 10l22 2l1 -10c13 -99 126 -153 217 -153c108 0 224 63 224 175c0 11 -1 23 -4 36c-20 91 -122 105 -215 115c-106 11 -225 18 -240 162c-9 139 118 204 237 204
c103 0 204 -50 223 -153l2 -10z" />
    <glyph glyph-name="scedilla" unicode="&#x15f;" horiz-adv-x="579" 
d="M491 539l-2 10c-6 26 -19 54 -37 74c-41 42 -111 63 -171 62c-107 -2 -217 -66 -208 -182c9 -119 121 -131 220 -142c100 -10 210 -25 233 -131c3 -15 5 -28 5 -42c0 -119 -118 -189 -233 -194l-16 -38c119 -3 108 -118 10 -118c-20 0 -43 5 -66 18l3 15
c20 -11 41 -15 59 -15c89 0 74 85 -10 85c-8 0 -16 0 -23 -1l25 53c-100 2 -222 59 -234 172l-1 10l22 2l1 -10c13 -99 126 -153 217 -153c108 0 224 63 224 175c0 11 -1 23 -4 36c-20 91 -122 105 -215 115c-106 11 -225 18 -240 162c-9 139 118 204 237 204
c103 0 204 -50 223 -153l2 -10z" />
    <glyph glyph-name="Tcommaaccent" unicode="&#x162;" horiz-adv-x="561" 
d="M270 0h-3v678h-240v22h501v-22h-240v-692c58 -1 80 -32 79 -63c-1 -38 -38 -65 -84 -65c-18 0 -37 4 -55 12c0 2 1 15 2 17c37 -21 115 -15 115 36c0 29 -32 53 -75 48v29z" />
    <glyph glyph-name="tcommaaccent" unicode="&#x163;" horiz-adv-x="561" 
d="M270 0h-3v678h-240v22h501v-22h-240v-692c58 -1 80 -32 79 -63c-1 -38 -38 -65 -84 -65c-18 0 -37 4 -55 12c0 2 1 15 2 17c37 -21 115 -15 115 36c0 29 -32 53 -75 48v29z" />
    <glyph glyph-name="Tcaron" unicode="&#x164;" horiz-adv-x="561" 
d="M288 0h-21v678h-240v22h501v-22h-240v-678zM340 817h26l-73 -67h-32l-73 67h26l63 -52z" />
    <glyph glyph-name="tcaron" unicode="&#x165;" horiz-adv-x="561" 
d="M288 0h-21v678h-240v22h501v-22h-240v-678zM342 817h26l-73 -67h-32l-73 67h26l63 -52z" />
    <glyph glyph-name="Tbar" unicode="&#x166;" horiz-adv-x="561" 
d="M288 0h-21v339h-139v18h139v321h-240v22h501v-22h-240v-321h141v-18h-141v-339z" />
    <glyph glyph-name="tbar" unicode="&#x167;" horiz-adv-x="561" 
d="M288 0h-21v339h-139v18h139v321h-240v22h501v-22h-240v-321h141v-18h-141v-339z" />
    <glyph glyph-name="Utilde" unicode="&#x168;" 
d="M314 -8c-116 0 -246 68 -246 199v509h22v-510c0 -118 119 -176 224 -176s224 58 224 177v509h22v-510c0 -130 -131 -198 -246 -198zM246 746l-16 5c2 20 16 35 33 42c53 22 69 -45 108 -30c11 5 20 15 24 30l17 -5c-5 -20 -16 -35 -34 -42c-51 -20 -70 48 -110 29
c-9 -4 -19 -13 -22 -29z" />
    <glyph glyph-name="utilde" unicode="&#x169;" 
d="M314 -8c-116 0 -246 68 -246 199v509h22v-510c0 -118 119 -176 224 -176s224 58 224 177v509h22v-510c0 -130 -131 -198 -246 -198zM246 746l-16 5c2 20 16 35 33 42c53 22 69 -45 108 -30c11 5 20 15 24 30l17 -5c-5 -20 -16 -35 -34 -42c-51 -20 -70 48 -110 29
c-9 -4 -19 -13 -22 -29z" />
    <glyph glyph-name="Umacron" unicode="&#x16a;" 
d="M314 -8c-116 0 -246 68 -246 199v509h22v-510c0 -118 119 -176 224 -176s224 58 224 177v509h22v-510c0 -130 -131 -198 -246 -198zM220 759v22h202v-22h-202z" />
    <glyph glyph-name="umacron" unicode="&#x16b;" 
d="M221 759v22h202v-22h-202zM314 -8c-116 0 -246 68 -246 199v509h22v-510c0 -118 119 -176 224 -176s224 58 224 177v509h22v-510c0 -130 -131 -198 -246 -198z" />
    <glyph glyph-name="Ubreve" unicode="&#x16c;" 
d="M314 -8c-116 0 -246 68 -246 199v509h22v-510c0 -118 119 -176 224 -176s224 58 224 177v509h22v-510c0 -130 -131 -198 -246 -198zM399 823h18c0 -51 -48 -77 -96 -77c-51 0 -96 24 -96 77h18c0 -39 40 -58 79 -58s77 20 77 58z" />
    <glyph glyph-name="ubreve" unicode="&#x16d;" 
d="M314 -8c-116 0 -246 68 -246 199v509h22v-510c0 -118 119 -176 224 -176s224 58 224 177v509h22v-510c0 -130 -131 -198 -246 -198zM400 823h18c0 -51 -48 -77 -96 -77c-51 0 -96 24 -96 77h18c0 -39 40 -58 79 -58s77 20 77 58z" />
    <glyph glyph-name="Uring" unicode="&#x16e;" 
d="M314 -8c-116 0 -246 68 -246 199v509h22v-510c0 -118 119 -176 224 -176s224 58 224 177v509h22v-510c0 -130 -131 -198 -246 -198zM315 852c85 0 84 -112 0 -112c-86 0 -85 112 0 112zM315 834c-60 0 -59 -77 0 -77c57 0 58 77 0 77z" />
    <glyph glyph-name="uring" unicode="&#x16f;" 
d="M315 852c85 0 84 -112 0 -112c-86 0 -85 112 0 112zM315 834c-60 0 -59 -77 0 -77c57 0 58 77 0 77zM314 -8c-116 0 -246 68 -246 199v509h22v-510c0 -118 119 -176 224 -176s224 58 224 177v509h22v-510c0 -130 -131 -198 -246 -198z" />
    <glyph glyph-name="Uhungarumlaut" unicode="&#x170;" 
d="M236 751l49 89h31l-59 -89h-21zM348 751l49 89h31l-59 -89h-21zM314 -8c-116 0 -246 68 -246 199v509h22v-510c0 -118 119 -176 224 -176s224 58 224 177v509h22v-510c0 -130 -131 -198 -246 -198z" />
    <glyph glyph-name="uhungarumlaut" unicode="&#x171;" 
d="M314 -8c-116 0 -246 68 -246 199v509h22v-510c0 -118 119 -176 224 -176s224 58 224 177v509h22v-510c0 -130 -131 -198 -246 -198zM230 751l49 89h31l-59 -89h-21zM342 751l49 89h31l-59 -89h-21z" />
    <glyph glyph-name="Uogonek" unicode="&#x172;" 
d="M314 -8c-116 0 -246 68 -246 199v509h22v-510c0 -118 119 -176 224 -176s224 58 224 177v509h22v-510c0 -89 -61 -149 -136 -178c-61 -49 -48 -133 32 -130l-13 -20c-80 1 -111 84 -51 140c-26 -7 -52 -10 -78 -10z" />
    <glyph glyph-name="uogonek" unicode="&#x173;" 
d="M314 -8c-116 0 -246 68 -246 199v509h22v-510c0 -118 119 -176 224 -176s224 58 224 177v509h22v-510c0 -89 -61 -149 -136 -178c-61 -49 -48 -133 32 -130l-13 -20c-80 1 -111 84 -51 140c-26 -7 -52 -10 -78 -10z" />
    <glyph glyph-name="Wcircumflex" unicode="&#x174;" horiz-adv-x="891" 
d="M612 -7l-170 478c-55 -160 -113 -319 -168 -478h-18l-234 706h22l221 -668l164 466h26l165 -465l222 667h22l-234 -706h-18zM382 749h-26l73 67h32l73 -67h-26l-63 52z" />
    <glyph glyph-name="wcircumflex" unicode="&#x175;" horiz-adv-x="891" 
d="M612 -7l-170 478c-55 -160 -113 -319 -168 -478h-18l-234 706h22l221 -668l164 466h26l165 -465l222 667h22l-234 -706h-18zM382 749h-26l73 67h32l73 -67h-26l-63 52z" />
    <glyph glyph-name="Ycircumflex" unicode="&#x176;" horiz-adv-x="579" 
d="M20 700h26l241 -389l242 389h26l-257 -413v-287h-21v287zM231 750h-26l73 67h32l73 -67h-26l-63 52z" />
    <glyph glyph-name="ycircumflex" unicode="&#x177;" horiz-adv-x="579" 
d="M20 700h26l241 -389l242 389h26l-257 -413v-287h-21v287zM231 750h-26l73 67h32l73 -67h-26l-63 52z" />
    <glyph glyph-name="Zacute" unicode="&#x179;" horiz-adv-x="593" 
d="M299 750h-24l65 80h30zM35 0v28l494 652h-479v20h501v-29l-494 -650h502v-21h-524z" />
    <glyph glyph-name="zacute" unicode="&#x17a;" horiz-adv-x="593" 
d="M293 751h-24l65 80h30zM35 0v28l494 652h-479v20h501v-29l-494 -650h502v-21h-524z" />
    <glyph glyph-name="Zdotaccent" unicode="&#x17b;" horiz-adv-x="593" 
d="M307 804c12 0 23 -11 23 -24c0 -11 -11 -22 -23 -22s-24 8 -24 22c0 16 12 24 24 24zM35 28v-28h524v21h-502l494 650v29h-501v-20h479z" />
    <glyph glyph-name="zdotaccent" unicode="&#x17c;" horiz-adv-x="593" 
d="M306 804c12 0 23 -11 23 -24c0 -11 -11 -22 -23 -22s-24 8 -24 22c0 16 12 24 24 24zM35 28v-28h524v21h-502l494 650v29h-501v-20h479z" />
    <glyph glyph-name="longs" unicode="&#x17f;" horiz-adv-x="481" 
d="M85 679v-679h-20v700h379v-21h-359z" />
    <glyph glyph-name="Scommaaccent" unicode="&#x218;" horiz-adv-x="589" 
d="M500 540l-2 10c-6 27 -19 55 -37 75c-41 42 -112 63 -171 62c-65 -1 -139 -25 -180 -78c-24 -30 -32 -67 -29 -104c9 -116 121 -132 222 -143c100 -10 210 -25 233 -131c3 -14 5 -29 5 -43c0 -124 -128 -195 -248 -195c-102 0 -227 59 -239 173l-1 9l22 2l1 -9
c13 -100 126 -154 218 -154c108 0 224 63 224 175c0 11 -1 24 -4 37c-20 91 -122 105 -215 115c-107 11 -229 27 -239 163c-3 39 8 84 34 118c44 57 123 86 202 86c103 0 204 -50 223 -153l2 -12zM283 -52h26c7 -29 7 -71 -11 -106h-19c14 43 14 63 4 106z" />
    <glyph glyph-name="scommaaccent" unicode="&#x219;" horiz-adv-x="589" 
d="M500 540l-2 10c-6 27 -19 55 -37 75c-41 42 -112 63 -171 62c-65 -1 -139 -25 -180 -78c-24 -30 -32 -67 -29 -104c9 -116 121 -132 222 -143c100 -10 210 -25 233 -131c3 -14 5 -29 5 -43c0 -124 -128 -195 -248 -195c-102 0 -227 59 -239 173l-1 9l22 2l1 -9
c13 -100 126 -154 218 -154c108 0 224 63 224 175c0 11 -1 24 -4 37c-20 91 -122 105 -215 115c-107 11 -229 27 -239 163c-3 39 8 84 34 118c44 57 123 86 202 86c103 0 204 -50 223 -153l2 -12zM283 -52h26c7 -29 7 -71 -11 -106h-19c14 43 14 63 4 106z" />
    <glyph glyph-name="uni021A" unicode="&#x21a;" horiz-adv-x="561" 
d="M288 0h-21v678h-240v22h501v-22h-240v-678zM265 -40h25c7 -38 2 -76 -15 -115h-17c14 41 17 75 7 115z" />
    <glyph glyph-name="uni021B" unicode="&#x21b;" horiz-adv-x="561" 
d="M265 -40h25c7 -38 2 -76 -15 -115h-17c14 41 17 75 7 115zM288 0h-21v678h-240v22h501v-22h-240v-678z" />
    <glyph glyph-name="caron" unicode="&#x2c7;" horiz-adv-x="315" 
d="M219 789h26l-73 -67h-32l-73 67h26l63 -52z" />
    <glyph glyph-name="breve" unicode="&#x2d8;" horiz-adv-x="539" 
d="M340 830h18c0 -51 -48 -77 -96 -77c-51 0 -96 24 -96 77h18c0 -39 40 -58 79 -58s77 20 77 58z" />
    <glyph glyph-name="dotaccent" unicode="&#x2d9;" horiz-adv-x="254" 
d="M131 807c12 0 23 -11 23 -24c0 -11 -11 -22 -23 -22s-24 8 -24 22c0 16 12 24 24 24z" />
    <glyph glyph-name="ring" unicode="&#x2da;" horiz-adv-x="322" 
d="M108 786c0 30 24 53 54 53c31 0 56 -23 56 -53s-25 -52 -57 -52c-29 0 -53 23 -53 52zM126 786c0 -19 16 -35 36 -35c21 0 38 16 38 35c0 20 -17 36 -38 36c-20 0 -36 -16 -36 -36z" />
    <glyph glyph-name="ogonek" unicode="&#x2db;" horiz-adv-x="257" 
d="M59 -92c-7 51 38 82 76 97l30 -2c-49 -17 -87 -54 -83 -88c4 -38 54 -46 78 -46l-13 -19s-79 -2 -88 58z" />
    <glyph glyph-name="hungarumlaut" unicode="&#x2dd;" horiz-adv-x="341" 
d="M82 750l49 89h36l-59 -89h-26zM194 750l49 89h36l-59 -89h-26z" />
    <glyph glyph-name="tonos" unicode="&#x384;" horiz-adv-x="333" 
d="M204 851l-66 -99h-21l57 99h30z" />
    <glyph glyph-name="dieresistonos" unicode="&#x385;" horiz-adv-x="539" 
d="M304 761l-66 -99h-26l57 99h35zM169 753c12 0 23 -11 23 -24c0 -11 -11 -22 -23 -22s-24 8 -24 22c0 16 12 24 24 24zM360 753c12 0 23 -11 23 -24c0 -11 -11 -22 -23 -22s-24 8 -24 22c0 16 12 24 24 24z" />
    <glyph glyph-name="Alphatonos" unicode="&#x386;" 
d="M312 678l-165 -424h329c-56 144 -108 280 -164 424zM580 0l-95 233h-347l-94 -233h-24l282 710h21l281 -710h-24zM88 626h23l59 80h-30z" />
    <glyph glyph-name="Epsilontonos" unicode="&#x388;" horiz-adv-x="571" 
d="M156 339v-318h369v-21h-390v700h388v-21h-367v-318h359v-22h-359zM40 615h-23l52 86h30z" />
    <glyph glyph-name="Etatonos" unicode="&#x389;" horiz-adv-x="674" 
d="M157 700v-335h429v335h22v-700h-22v344h-429v-344h-21v700h21zM37 615h-23l52 86h30z" />
    <glyph glyph-name="Iotatonos" unicode="&#x38a;" horiz-adv-x="470" 
d="M437 700v-19h-148v-661h148v-20h-316v20h147v661h-147v19h316zM35 615h-23l52 86h30z" />
    <glyph glyph-name="Omicrontonos" unicode="&#x38c;" horiz-adv-x="811" 
d="M745 350c0 93 -38 177 -98 238s-145 100 -238 100c-92 0 -176 -39 -237 -100c-59 -61 -98 -145 -98 -238s39 -177 98 -238c61 -61 145 -100 237 -100c93 0 178 39 238 100s98 145 98 238zM52 350c0 99 42 188 106 254s153 106 251 106c100 0 189 -40 253 -106
s105 -155 105 -254s-41 -188 -105 -254s-153 -106 -253 -106c-98 0 -187 40 -251 106s-106 155 -106 254zM69 615h-23l52 86h30z" />
    <glyph glyph-name="Upsilontonos" unicode="&#x38e;" horiz-adv-x="671" 
d="M114 700h27l242 -388l242 388h27l-258 -412v-288h-22v288zM37 614h-23l52 86h30z" />
    <glyph glyph-name="Omegatonos" unicode="&#x38f;" horiz-adv-x="830" 
d="M420 691c-197 0 -332 -143 -332 -335c0 -185 115 -298 241 -332l-7 -24h-279v19h245c-116 37 -222 156 -222 337c0 204 145 355 354 355c208 -1 353 -152 353 -355c0 -181 -105 -300 -221 -337h244v-19h-279l-7 24c126 34 241 150 241 332c0 191 -135 334 -331 335z
M60 616h-23l52 86h30z" />
    <glyph glyph-name="iotadieresistonos" unicode="&#x390;" horiz-adv-x="381" 
d="M348 681v19h-316v-19h147v-661h-147v-20h316v20h-148v661h148zM248 843l-66 -99h-26l57 99h35zM109 822c12 0 23 -11 23 -24c0 -11 -11 -22 -23 -22s-24 8 -24 22c0 16 12 24 24 24zM300 822c12 0 23 -11 23 -24c0 -11 -11 -22 -23 -22s-24 8 -24 22c0 16 12 24 24 24z
" />
    <glyph glyph-name="Alpha" unicode="&#x391;" 
d="M312 678l-165 -424h329c-56 144 -108 280 -164 424zM580 0l-95 233h-347l-94 -233h-24l282 710h21l281 -710h-24z" />
    <glyph glyph-name="Beta" unicode="&#x392;" horiz-adv-x="612" 
d="M92 677v-292h261c66 0 109 39 129 86c7 18 11 41 11 59c0 19 -4 42 -11 61c-20 47 -63 86 -129 86h-261zM70 699h283c77 0 126 -44 149 -100c8 -21 12 -44 12 -68c0 -23 -4 -47 -12 -68c-14 -35 -39 -65 -73 -84c91 -20 136 -104 136 -187c0 -95 -62 -192 -184 -192h-311
v699zM92 363v-342h289c108 0 163 85 163 170c0 86 -55 172 -163 172h-289z" />
    <glyph glyph-name="Gamma" unicode="&#x393;" horiz-adv-x="505" 
d="M90 679v-679h-21v700h388v-21h-367z" />
    <glyph glyph-name="Delta" unicode="&#x394;" 
d="M20 0l282 710h21l281 -710h-584zM312 678l-259 -656h517z" />
    <glyph glyph-name="Epsilon" unicode="&#x395;" horiz-adv-x="501" 
d="M86 339v-318h369v-21h-390v700h388v-21h-367v-318h359v-22h-359z" />
    <glyph glyph-name="Zeta" unicode="&#x396;" horiz-adv-x="593" 
d="M35 0v28l494 652h-479v20h501v-29l-494 -650h502v-21h-524z" />
    <glyph glyph-name="Eta" unicode="&#x397;" horiz-adv-x="603" 
d="M86 700v-335h429v335h22v-700h-22v344h-429v-344h-21v700h21z" />
    <glyph glyph-name="Theta" unicode="&#x398;" horiz-adv-x="798" 
d="M139 340v20h496v-20h-496zM732 350c0 93 -38 177 -98 238s-145 100 -238 100c-92 0 -176 -39 -237 -100c-59 -61 -98 -145 -98 -238s39 -177 98 -238c61 -61 145 -100 237 -100c93 0 178 39 238 100s98 145 98 238zM39 350c0 99 42 188 106 254s153 106 251 106
c100 0 189 -40 253 -106s105 -155 105 -254s-41 -188 -105 -254s-153 -106 -253 -106c-98 0 -187 40 -251 106s-106 155 -106 254z" />
    <glyph glyph-name="Iota" unicode="&#x399;" horiz-adv-x="381" 
d="M348 700v-19h-148v-661h148v-20h-316v20h147v661h-147v19h316z" />
    <glyph glyph-name="Kappa" unicode="&#x39a;" horiz-adv-x="535" 
d="M64 700h22v-700h-22v700zM104 341v18l345 341h30l-354 -349l396 -351h-35z" />
    <glyph glyph-name="Lambda" unicode="&#x39b;" 
d="M579 0l-267 677l-267 -677h-25l282 710h21l281 -710h-25z" />
    <glyph glyph-name="Mu" unicode="&#x39c;" horiz-adv-x="739" 
d="M86 664v-664h-21v700h20l286 -423l288 423h20v-700h-21v665l-279 -414h-14z" />
    <glyph glyph-name="Nu" unicode="&#x39d;" horiz-adv-x="622" 
d="M87 0h-22v700h18l457 -660v660h21v-700h-20l-454 656v-656z" />
    <glyph glyph-name="Xi" unicode="&#x39e;" horiz-adv-x="495" 
d="M447 679h-388v21h388v-21zM59 21h390v-21h-390v21zM437 339h-375v21h375v-21z" />
    <glyph glyph-name="Omicron" unicode="&#x39f;" horiz-adv-x="798" 
d="M732 350c0 93 -38 177 -98 238s-145 100 -238 100c-92 0 -176 -39 -237 -100c-59 -61 -98 -145 -98 -238s39 -177 98 -238c61 -61 145 -100 237 -100c93 0 178 39 238 100s98 145 98 238zM39 350c0 99 42 188 106 254s153 106 251 106c100 0 189 -40 253 -106
s105 -155 105 -254s-41 -188 -105 -254s-153 -106 -253 -106c-98 0 -187 40 -251 106s-106 155 -106 254z" />
    <glyph glyph-name="Pi" unicode="&#x3a0;" horiz-adv-x="601" 
d="M65 700h472v-700h-22v679h-429v-679h-21v700z" />
    <glyph glyph-name="Rho" unicode="&#x3a1;" horiz-adv-x="561" 
d="M65 700h243c140 0 211 -110 211 -218c0 -110 -71 -218 -211 -218h-221v-264h-22v700zM87 285h221c127 0 190 98 190 196s-63 197 -190 197h-221v-393z" />
    <glyph glyph-name="Sigma" unicode="&#x3a3;" horiz-adv-x="590" 
d="M309 366v-21l-246 -324h490v-21h-508l-12 17l256 339l-248 323l13 21h490v-22h-474z" />
    <glyph glyph-name="Tau" unicode="&#x3a4;" horiz-adv-x="561" 
d="M288 0h-21v678h-240v22h501v-22h-240v-678z" />
    <glyph glyph-name="Upsilon" unicode="&#x3a5;" horiz-adv-x="577" 
d="M19 699h27l242 -387l242 387h27l-258 -411v-288h-22v288z" />
    <glyph glyph-name="Phi" unicode="&#x3a6;" horiz-adv-x="777" 
d="M378 638v62h22v-62c444 0 443 -573 0 -573v-65h-22v65c-446 0 -446 573 0 573zM400 85c412 0 413 532 -1 532c-1 1 1 -532 1 -532zM379 85c0 0 0 531 -1 532c-419 0 -413 -532 1 -532z" />
    <glyph glyph-name="Chi" unicode="&#x3a7;" horiz-adv-x="582" 
d="M25 700h26l240 -330l241 330h25l-254 -351l254 -349h-25l-241 330l-240 -330h-26l254 349z" />
    <glyph glyph-name="Psi" unicode="&#x3a8;" horiz-adv-x="762" 
d="M368 174v526h22c-1 -82 0 -526 0 -526c205 0 285 132 286 265v261h23v-261c-1 -143 -89 -286 -309 -286v-153h-22v153c-222 0 -310 142 -311 285v262h23v-261c1 -133 82 -265 288 -265z" />
    <glyph glyph-name="Omega" unicode="&#x3a9;" horiz-adv-x="818" 
d="M408 691c-197 0 -332 -143 -332 -335c0 -185 115 -298 241 -332l-7 -24h-279v19h245c-116 37 -222 156 -222 337c0 204 145 355 354 355c208 -1 353 -152 353 -355c0 -181 -105 -300 -221 -337h244v-19h-279l-7 24c126 34 241 150 241 332c0 191 -135 334 -331 335z" />
    <glyph glyph-name="Iotadieresis" unicode="&#x3aa;" horiz-adv-x="381" 
d="M348 681v19h-316v-19h147v-661h-147v-20h316v20h-148v661h148zM113 793c12 0 23 -11 23 -24c0 -11 -11 -22 -23 -22s-24 8 -24 22c0 16 12 24 24 24zM269 793c12 0 23 -11 23 -24c0 -11 -11 -22 -23 -22s-24 8 -24 22c0 16 12 24 24 24z" />
    <glyph glyph-name="Upsilondieresis" unicode="&#x3ab;" horiz-adv-x="579" 
d="M46 699h-27l258 -411v-288h22v288l258 411h-27l-242 -387zM210 791c12 0 23 -11 23 -24c0 -11 -11 -22 -23 -22s-24 8 -24 22c0 16 12 24 24 24zM366 791c12 0 23 -11 23 -24c0 -11 -11 -22 -23 -22s-24 8 -24 22c0 16 12 24 24 24z" />
    <glyph glyph-name="alphatonos" unicode="&#x3ac;" 
d="M312 678l-165 -424h329c-56 144 -108 280 -164 424zM580 0l-95 233h-347l-94 -233h-24l282 710h21l281 -710h-24zM88 626h23l59 80h-30z" />
    <glyph glyph-name="epsilontonos" unicode="&#x3ad;" horiz-adv-x="571" 
d="M156 339v-318h369v-21h-390v700h388v-21h-367v-318h359v-22h-359zM40 615h-23l52 86h30z" />
    <glyph glyph-name="etatonos" unicode="&#x3ae;" horiz-adv-x="674" 
d="M157 700v-335h429v335h22v-700h-22v344h-429v-344h-21v700h21zM37 615h-23l52 86h30z" />
    <glyph glyph-name="iotatonos" unicode="&#x3af;" horiz-adv-x="470" 
d="M437 700v-19h-148v-661h148v-20h-316v20h147v661h-147v19h316zM35 615h-23l52 86h30z" />
    <glyph glyph-name="upsilondieresistonos" unicode="&#x3b0;" horiz-adv-x="577" 
d="M46 699h-27l258 -411v-288h22v288l258 411h-27l-242 -387zM334 810l-66 -99h-26l57 99h35zM195 789c12 0 23 -11 23 -24c0 -11 -11 -22 -23 -22s-24 8 -24 22c0 16 12 24 24 24zM386 789c12 0 23 -11 23 -24c0 -11 -11 -22 -23 -22s-24 8 -24 22c0 16 12 24 24 24z" />
    <glyph glyph-name="alpha" unicode="&#x3b1;" 
d="M312 678l-165 -424h329c-56 144 -108 280 -164 424zM580 0l-95 233h-347l-94 -233h-24l282 710h21l281 -710h-24z" />
    <glyph glyph-name="beta" unicode="&#x3b2;" horiz-adv-x="607" 
d="M87 677v-292h261c66 0 109 39 129 86c7 18 11 41 11 59c0 19 -4 42 -11 61c-20 47 -63 86 -129 86h-261zM65 699h283c77 0 126 -44 149 -100c8 -21 12 -44 12 -68c0 -23 -4 -47 -12 -68c-14 -35 -39 -65 -73 -84c91 -20 136 -104 136 -187c0 -95 -62 -192 -184 -192h-311
v699zM87 363v-342h289c108 0 163 85 163 170c0 86 -55 172 -163 172h-289z" />
    <glyph glyph-name="gamma" unicode="&#x3b3;" horiz-adv-x="501" 
d="M86 679v-679h-21v700h388v-21h-367z" />
    <glyph glyph-name="delta" unicode="&#x3b4;" 
d="M20 0l282 710h21l281 -710h-584zM312 678l-259 -656h517z" />
    <glyph glyph-name="epsilon" unicode="&#x3b5;" horiz-adv-x="501" 
d="M86 339v-318h369v-21h-390v700h388v-21h-367v-318h359v-22h-359z" />
    <glyph glyph-name="zeta" unicode="&#x3b6;" horiz-adv-x="593" 
d="M35 0v28l494 652h-479v20h501v-29l-494 -650h502v-21h-524z" />
    <glyph glyph-name="eta" unicode="&#x3b7;" horiz-adv-x="603" 
d="M86 700v-335h429v335h22v-700h-22v344h-429v-344h-21v700h21z" />
    <glyph glyph-name="theta" unicode="&#x3b8;" horiz-adv-x="798" 
d="M139 340v20h496v-20h-496zM732 350c0 93 -38 177 -98 238s-145 100 -238 100c-92 0 -176 -39 -237 -100c-59 -61 -98 -145 -98 -238s39 -177 98 -238c61 -61 145 -100 237 -100c93 0 178 39 238 100s98 145 98 238zM39 350c0 99 42 188 106 254s153 106 251 106
c100 0 189 -40 253 -106s105 -155 105 -254s-41 -188 -105 -254s-153 -106 -253 -106c-98 0 -187 40 -251 106s-106 155 -106 254z" />
    <glyph glyph-name="iota" unicode="&#x3b9;" horiz-adv-x="381" 
d="M348 700v-19h-148v-661h148v-20h-316v20h147v661h-147v19h316z" />
    <glyph glyph-name="kappa" unicode="&#x3ba;" horiz-adv-x="535" 
d="M64 700h22v-700h-22v700zM104 341v18l345 341h30l-354 -349l396 -351h-35z" />
    <glyph glyph-name="lambda" unicode="&#x3bb;" 
d="M579 0l-267 677l-267 -677h-25l282 710h21l281 -710h-25z" />
    <glyph glyph-name="mu" unicode="&#x3bc;" horiz-adv-x="739" 
d="M86 664v-664h-21v700h20l286 -423l288 423h20v-700h-21v665l-279 -414h-14z" />
    <glyph glyph-name="nu" unicode="&#x3bd;" horiz-adv-x="622" 
d="M87 0h-22v700h18l457 -660v660h21v-700h-20l-454 656v-656z" />
    <glyph glyph-name="xi" unicode="&#x3be;" horiz-adv-x="495" 
d="M447 679h-388v21h388v-21zM59 22h390v-22h-390v22zM437 339h-375v21h375v-21z" />
    <glyph glyph-name="omicron" unicode="&#x3bf;" horiz-adv-x="798" 
d="M732 350c0 93 -38 177 -98 238s-145 100 -238 100c-92 0 -176 -39 -237 -100c-59 -61 -98 -145 -98 -238s39 -177 98 -238c61 -61 145 -100 237 -100c93 0 178 39 238 100s98 145 98 238zM39 350c0 99 42 188 106 254s153 106 251 106c100 0 189 -40 253 -106
s105 -155 105 -254s-41 -188 -105 -254s-153 -106 -253 -106c-98 0 -187 40 -251 106s-106 155 -106 254z" />
    <glyph glyph-name="pi" unicode="&#x3c0;" horiz-adv-x="601" 
d="M65 700h472v-700h-22v679h-429v-679h-21v700z" />
    <glyph glyph-name="rho" unicode="&#x3c1;" horiz-adv-x="561" 
d="M65 700h243c140 0 211 -110 211 -218c0 -110 -71 -218 -211 -218h-221v-264h-22v700zM87 285h221c127 0 190 98 190 196s-63 197 -190 197h-221v-393z" />
    <glyph glyph-name="sigma1" unicode="&#x3c2;" horiz-adv-x="744" 
d="M698 490h-24c-16 38 -39 70 -66 98c-57 60 -138 96 -227 96c-88 0 -169 -36 -227 -96c-57 -59 -94 -141 -94 -239c0 -99 37 -177 94 -235c58 -60 139 -97 227 -97c89 0 170 37 227 97c27 27 50 58 66 97h24c-18 -42 -44 -81 -75 -113c-62 -64 -146 -103 -242 -103
c-95 0 -179 39 -242 103c-61 64 -101 142 -101 251c0 105 40 190 101 254c63 64 147 103 242 103c96 0 180 -39 242 -103c31 -32 57 -70 75 -113z" />
    <glyph glyph-name="sigma" unicode="&#x3c3;" horiz-adv-x="585" 
d="M304 366v-21l-246 -324h490v-21h-508l-12 17l256 339l-248 323l13 21h490v-22h-474z" />
    <glyph glyph-name="tau" unicode="&#x3c4;" horiz-adv-x="561" 
d="M288 0h-21v678h-240v22h501v-22h-240v-678z" />
    <glyph glyph-name="upsilon" unicode="&#x3c5;" horiz-adv-x="577" 
d="M19 699h27l242 -387l242 387h27l-258 -411v-288h-22v288z" />
    <glyph glyph-name="phi" unicode="&#x3c6;" horiz-adv-x="777" 
d="M378 638v62h22v-62c444 0 443 -573 0 -573v-65h-22v65c-446 0 -446 573 0 573zM400 85c412 0 413 532 -1 532c-1 1 1 -532 1 -532zM379 85c0 0 0 531 -1 532c-419 0 -413 -532 1 -532z" />
    <glyph glyph-name="chi" unicode="&#x3c7;" horiz-adv-x="582" 
d="M25 700h26l240 -330l241 330h25l-254 -351l254 -349h-26l-240 330l-238 -330h-28l254 349z" />
    <glyph glyph-name="psi" unicode="&#x3c8;" horiz-adv-x="762" 
d="M368 174v526h22c-1 -82 0 -526 0 -526c205 0 285 132 286 265v261h23v-261c-1 -143 -89 -286 -309 -286v-153h-22v153c-222 0 -310 142 -311 285v262h23v-261c1 -133 82 -265 288 -265z" />
    <glyph glyph-name="omega" unicode="&#x3c9;" horiz-adv-x="818" 
d="M408 691c-197 0 -332 -143 -332 -335c0 -185 115 -298 241 -332l-7 -24h-279v19h245c-116 37 -222 156 -222 337c0 204 145 355 354 355c208 -1 353 -152 353 -355c0 -181 -105 -300 -221 -337h244v-19h-279l-7 24c126 34 241 150 241 332c0 191 -135 334 -331 335z" />
    <glyph glyph-name="iotadieresis" unicode="&#x3ca;" horiz-adv-x="381" 
d="M348 681v19h-316v-19h147v-661h-147v-20h316v20h-148v661h148zM113 793c12 0 23 -11 23 -24c0 -11 -11 -22 -23 -22s-24 8 -24 22c0 16 12 24 24 24zM269 793c12 0 23 -11 23 -24c0 -11 -11 -22 -23 -22s-24 8 -24 22c0 16 12 24 24 24z" />
    <glyph glyph-name="upsilondieresis" unicode="&#x3cb;" horiz-adv-x="579" 
d="M46 699h-27l258 -411v-288h22v288l258 411h-27l-242 -387zM210 791c12 0 23 -11 23 -24c0 -11 -11 -22 -23 -22s-24 8 -24 22c0 16 12 24 24 24zM366 791c12 0 23 -11 23 -24c0 -11 -11 -22 -23 -22s-24 8 -24 22c0 16 12 24 24 24z" />
    <glyph glyph-name="omicrontonos" unicode="&#x3cc;" horiz-adv-x="798" 
d="M732 350c0 93 -38 177 -98 238s-145 100 -238 100c-92 0 -176 -39 -237 -100c-59 -61 -98 -145 -98 -238s39 -177 98 -238c61 -61 145 -100 237 -100c93 0 178 39 238 100s98 145 98 238zM39 350c0 99 42 188 106 254s153 106 251 106c100 0 189 -40 253 -106
s105 -155 105 -254s-41 -188 -105 -254s-153 -106 -253 -106c-98 0 -187 40 -251 106s-106 155 -106 254zM410 755h-24l65 80h30z" />
    <glyph glyph-name="upsilontonos" unicode="&#x3cd;" horiz-adv-x="577" 
d="M19 700h27l242 -388l242 388h27l-258 -412v-288h-22v288zM290 748h-24l65 80h30z" />
    <glyph glyph-name="omegatonos" unicode="&#x3ce;" horiz-adv-x="818" 
d="M408 691c-197 0 -332 -143 -332 -335c0 -185 115 -298 241 -332l-7 -24h-279v19h245c-116 37 -222 156 -222 337c0 204 145 355 354 355c208 -1 353 -152 353 -355c0 -181 -105 -300 -221 -337h244v-19h-279l-7 24c126 34 241 150 241 332c0 191 -135 334 -331 335z
M406 752h-24l65 80h30z" />
    <glyph glyph-name="afii10023" unicode="&#x401;" horiz-adv-x="501" 
d="M86 21v318h359v22h-359v318h367v21h-388v-700h390v21h-369zM189 795c12 0 23 -11 23 -24c0 -11 -11 -22 -23 -22s-24 8 -24 22c0 16 12 24 24 24zM345 795c12 0 23 -11 23 -24c0 -11 -11 -22 -23 -22s-24 8 -24 22c0 16 12 24 24 24z" />
    <glyph glyph-name="afii10051" unicode="&#x402;" horiz-adv-x="718" 
d="M284 0h-21v678h-240v22h501v-22h-240v-234c38 39 96 68 159 65c120 -5 215 -81 214 -215v-90c1 -140 -73 -202 -192 -205v19c105 8 170 53 170 186v90c0 196 -240 255 -351 124v-418z" />
    <glyph glyph-name="afii10052" unicode="&#x403;" horiz-adv-x="501" 
d="M86 679v-679h-21v700h388v-21h-367zM267 750h-24l65 80h30z" />
    <glyph glyph-name="afii10053" unicode="&#x404;" horiz-adv-x="744" 
d="M698 490h-24c-16 38 -39 70 -66 98c-57 60 -138 96 -227 96c-88 0 -169 -36 -227 -96c-55 -57 -92 -135 -94 -228h482v-21h-482c2 -95 39 -169 94 -225c58 -60 139 -97 227 -97c89 0 170 37 227 97c27 27 50 58 66 97h24c-18 -42 -44 -81 -75 -113
c-62 -64 -146 -103 -242 -103c-95 0 -179 39 -242 103c-61 64 -101 142 -101 251c0 105 40 190 101 254c63 64 147 103 242 103c96 0 180 -39 242 -103c31 -32 57 -70 75 -113z" />
    <glyph glyph-name="afii10054" unicode="&#x405;" horiz-adv-x="589" 
d="M500 540l-2 10c-6 27 -19 55 -37 75c-41 42 -112 63 -171 62c-65 -1 -139 -25 -180 -78c-24 -30 -32 -67 -29 -104c9 -116 121 -132 222 -143c100 -10 210 -25 233 -131c3 -14 5 -29 5 -43c0 -124 -128 -195 -248 -195c-102 0 -227 59 -239 173l-1 9l22 2l1 -9
c13 -100 126 -154 218 -154c108 0 224 63 224 175c0 11 -1 24 -4 37c-20 91 -122 105 -215 115c-107 11 -229 27 -239 163c-3 39 8 84 34 118c44 57 123 86 202 86c103 0 204 -50 223 -153l2 -12z" />
    <glyph glyph-name="afii10055" unicode="&#x406;" horiz-adv-x="381" 
d="M348 700v-19h-148v-661h148v-20h-316v20h147v661h-147v19h316z" />
    <glyph glyph-name="afii10056" unicode="&#x407;" horiz-adv-x="381" 
d="M348 681v19h-316v-19h147v-661h-147v-20h316v20h-148v661h148zM113 793c12 0 23 -11 23 -24c0 -11 -11 -22 -23 -22s-24 8 -24 22c0 16 12 24 24 24zM269 793c12 0 23 -11 23 -24c0 -11 -11 -22 -23 -22s-24 8 -24 22c0 16 12 24 24 24z" />
    <glyph glyph-name="afii10057" unicode="&#x408;" horiz-adv-x="435" 
d="M372 699v-403c0 -203 -153 -296 -344 -296v22c180 0 323 84 323 274v383h-214v20h235z" />
    <glyph glyph-name="afii10058" unicode="&#x409;" horiz-adv-x="937" 
d="M437 683l-389 -683h-24l399 700h41v-331h242c108 0 184 -65 184 -183c0 -95 -62 -186 -184 -186h-264v683h-5zM464 347v-326h242c108 0 162 79 162 164c0 89 -54 162 -162 162h-242z" />
    <glyph glyph-name="afii10059" unicode="&#x40a;" horiz-adv-x="955" 
d="M482 700v-331h242c108 0 184 -65 184 -183c0 -95 -62 -186 -184 -186h-264v348h-375v-348h-21v700h21v-331h375v331h22zM482 347v-326h242c108 0 162 79 162 164c0 89 -54 162 -162 162h-242z" />
    <glyph glyph-name="afii10060" unicode="&#x40b;" horiz-adv-x="723" 
d="M286 0h-21v678h-240v22h501v-22h-240v-234c38 39 96 68 159 65c120 -5 215 -81 214 -215v-294h-22v294c0 196 -240 255 -351 124v-418z" />
    <glyph glyph-name="afii10061" unicode="&#x40c;" horiz-adv-x="535" 
d="M64 700h22v-700h-22v700zM104 341v18l360 341h30l-369 -349l396 -351h-35zM275 749h-23l52 86h30z" />
    <glyph glyph-name="afii10062" unicode="&#x40e;" horiz-adv-x="541" 
d="M204 -1h-25l87 196l-235 505h24l223 -478l213 478h24zM171 750v23h214v-23h-214z" />
    <glyph glyph-name="afii10145" unicode="&#x40f;" horiz-adv-x="601" 
d="M284 0h-219v700h22v-679h429v679h21v-700h-232v-106h-21v106z" />
    <glyph glyph-name="bgA" unicode="&#x410;" 
d="M312 678l-165 -424h329c-56 144 -108 280 -164 424zM580 0l-95 233h-347l-94 -233h-24l282 710h21l281 -710h-24z" />
    <glyph glyph-name="afii10018" unicode="&#x411;" horiz-adv-x="607" 
d="M512 700v-21h-425v-294h289c108 0 184 -75 184 -193c0 -95 -62 -192 -184 -192h-311v700h447zM87 363v-342h289c108 0 162 85 162 170c0 89 -54 172 -162 172h-289z" />
    <glyph glyph-name="afii10019" unicode="&#x412;" horiz-adv-x="607" 
d="M87 677v-292h261c66 0 109 39 129 86c7 18 11 41 11 59c0 19 -4 42 -11 61c-20 47 -63 86 -129 86h-261zM65 699h283c77 0 126 -44 149 -100c8 -21 12 -44 12 -68c0 -23 -4 -47 -12 -68c-14 -35 -39 -65 -73 -84c91 -20 136 -104 136 -187c0 -95 -62 -192 -184 -192h-311
v699zM87 363v-342h289c108 0 163 85 163 170c0 86 -55 172 -163 172h-289z" />
    <glyph glyph-name="afii10020" unicode="&#x413;" horiz-adv-x="506" 
d="M91 679v-679h-21v700h388v-21h-367z" />
    <glyph glyph-name="afii10021" unicode="&#x414;" horiz-adv-x="676" 
d="M577 20h56v-183h-22v163h-558v-163h-21v182l38 2c68 39 82 122 92 187c8 50 12 102 16 157l21 335h378v-680zM95 20h460v660h-336l-19 -313c-4 -56 -8 -109 -16 -160c-10 -61 -24 -153 -89 -187z" />
    <glyph glyph-name="afii10022" unicode="&#x415;" horiz-adv-x="501" 
d="M86 339v-318h369v-21h-390v700h388v-21h-367v-318h359v-22h-359z" />
    <glyph glyph-name="afii10024" unicode="&#x416;" horiz-adv-x="853" 
d="M417 700h22v-700h-22v700zM457 341v18l320 341h28l-326 -349l354 -351h-33zM399 359v-18l-343 -341h-33l354 351l-326 349h28z" />
    <glyph glyph-name="afii10025" unicode="&#x417;" horiz-adv-x="561" 
d="M342 364v-1c104 -21 169 -84 169 -181c0 -103 -86 -192 -248 -192c-144 0 -215 72 -228 163l20 3c12 -78 74 -145 208 -145c151 0 225 84 225 170c0 87 -73 171 -225 171h-49v20h49c131 0 190 76 190 158c-1 191 -331 209 -373 45l-20 4c47 191 414 169 414 -50
c0 -54 -24 -140 -132 -165z" />
    <glyph glyph-name="afii10026" unicode="&#x418;" horiz-adv-x="622" 
d="M65 700h22v-656l454 656h20v-700h-21v660l-457 -660h-18v700z" />
    <glyph glyph-name="afii10027" unicode="&#x419;" horiz-adv-x="622" 
d="M65 700h22v-656l454 656h20v-700h-21v660l-457 -660h-18v700zM206 751v23h214v-23h-214z" />
    <glyph glyph-name="afii10028" unicode="&#x41a;" horiz-adv-x="535" 
d="M64 700h22v-700h-22v700zM104 341v18l360 341h30l-369 -349l396 -351h-35z" />
    <glyph glyph-name="afii10029" unicode="&#x41b;" 
d="M579 0l-267 677l-267 -677h-25l282 710h21l281 -710h-25z" />
    <glyph glyph-name="afii10030" unicode="&#x41c;" horiz-adv-x="739" 
d="M86 664v-664h-21v700h20l286 -423l288 423h20v-700h-21v665l-279 -414h-14z" />
    <glyph glyph-name="afii10031" unicode="&#x41d;" horiz-adv-x="602" 
d="M86 700v-335h429v335h22v-700h-22v344h-429v-344h-21v700h21z" />
    <glyph glyph-name="afii10032" unicode="&#x41e;" horiz-adv-x="798" 
d="M732 350c0 93 -38 177 -98 238s-145 100 -238 100c-92 0 -176 -39 -237 -100c-59 -61 -98 -145 -98 -238s39 -177 98 -238c61 -61 145 -100 237 -100c93 0 178 39 238 100s98 145 98 238zM39 350c0 99 42 188 106 254s153 106 251 106c100 0 189 -40 253 -106
s105 -155 105 -254s-41 -188 -105 -254s-153 -106 -253 -106c-98 0 -187 40 -251 106s-106 155 -106 254z" />
    <glyph glyph-name="afii10033" unicode="&#x41f;" horiz-adv-x="601" 
d="M65 700h472v-700h-22v679h-429v-679h-21v700z" />
    <glyph glyph-name="afii10034" unicode="&#x420;" horiz-adv-x="561" 
d="M65 700h243c140 0 211 -110 211 -218c0 -110 -71 -218 -211 -218h-221v-264h-22v700zM87 285h221c127 0 190 98 190 196s-63 197 -190 197h-221v-393z" />
    <glyph glyph-name="afii10035" unicode="&#x421;" horiz-adv-x="744" 
d="M698 490h-24c-16 38 -39 70 -66 98c-57 60 -138 96 -227 96c-88 0 -169 -36 -227 -96c-57 -59 -94 -141 -94 -239c0 -99 37 -177 94 -235c58 -60 139 -97 227 -97c89 0 170 37 227 97c27 27 50 58 66 97h24c-18 -42 -44 -81 -75 -113c-62 -64 -146 -103 -242 -103
c-95 0 -179 39 -242 103c-61 64 -101 142 -101 251c0 105 40 190 101 254c63 64 147 103 242 103c96 0 180 -39 242 -103c31 -32 57 -70 75 -113z" />
    <glyph glyph-name="afii10036" unicode="&#x422;" horiz-adv-x="561" 
d="M288 0h-21v678h-240v22h501v-22h-240v-678z" />
    <glyph glyph-name="afii10037" unicode="&#x423;" horiz-adv-x="541" 
d="M204 -1h-25l87 196l-235 505h24l223 -478l213 478h24z" />
    <glyph glyph-name="afii10038" unicode="&#x424;" horiz-adv-x="777" 
d="M378 638v62h22v-62c444 0 443 -573 0 -573v-65h-22v65c-446 0 -446 573 0 573zM400 85c412 0 413 532 -1 532c-1 1 1 -532 1 -532zM379 85c0 0 0 531 -1 532c-419 0 -413 -532 1 -532z" />
    <glyph glyph-name="afii10039" unicode="&#x425;" horiz-adv-x="582" 
d="M26 697h25l239 -330c80 109 162 220 241 330h24l-253 -349l253 -348h-24l-241 330l-239 -330h-25l253 348z" />
    <glyph glyph-name="afii10040" unicode="&#x426;" horiz-adv-x="595" 
d="M499 20h54v-182h-22v162h-461v700h22v-680h385v680h22v-680z" />
    <glyph glyph-name="afii10041" unicode="&#x427;" horiz-adv-x="563" 
d="M498 700v-700h-22v306c-163 -76 -410 -26 -410 180v214h22v-214c0 -191 239 -230 388 -158v372h22z" />
    <glyph glyph-name="afii10042" unicode="&#x428;" horiz-adv-x="918" 
d="M65 700h22v-680h361v680h22v-680h361v680h22v-700h-788v700z" />
    <glyph glyph-name="afii10043" unicode="&#x429;" horiz-adv-x="950" 
d="M66 700h22v-680h361v680h22v-680h361v680h22v-680h59v-182h-22v162h-825v700z" />
    <glyph glyph-name="afii10044" unicode="&#x42a;" horiz-adv-x="658" 
d="M138 363v-342h289c108 0 162 85 162 170c0 89 -54 172 -162 172h-289zM138 700v-315h289c108 0 184 -75 184 -193c0 -95 -62 -192 -184 -192h-311v680h-100v20h122z" />
    <glyph glyph-name="afii10045" unicode="&#x42b;" horiz-adv-x="727" 
d="M87 700v-315h289c108 0 184 -75 184 -193c0 -95 -62 -192 -184 -192h-311v700h22zM87 363v-342h289c108 0 162 85 162 170c0 89 -54 172 -162 172h-289zM641 0v692h22v-692h-22z" />
    <glyph glyph-name="afii10046" unicode="&#x42c;" horiz-adv-x="607" 
d="M87 700v-315h289c108 0 184 -75 184 -193c0 -95 -62 -192 -184 -192h-311v700h22zM87 363v-342h289c108 0 162 85 162 170c0 89 -54 172 -162 172h-289z" />
    <glyph glyph-name="afii10047" unicode="&#x42d;" horiz-adv-x="744" 
d="M65 490h-24c18 43 44 81 75 113c62 64 146 103 242 103c95 0 179 -39 242 -103c61 -64 101 -149 101 -254c0 -109 -40 -187 -101 -251c-63 -64 -147 -103 -242 -103c-96 0 -180 39 -242 103c-31 32 -57 71 -75 113h24c16 -39 39 -70 66 -97c57 -60 138 -97 227 -97
c88 0 169 37 227 97c55 56 92 130 94 225h-482v21h482c-2 93 -39 171 -94 228c-58 60 -139 96 -227 96c-89 0 -170 -36 -227 -96c-27 -28 -50 -60 -66 -98z" />
    <glyph glyph-name="afii10048" unicode="&#x42e;" horiz-adv-x="966" 
d="M568 710c209 -3 354 -154 354 -362c0 -41 -5 -78 -14 -112c-10 -34 -24 -64 -41 -91c-17 -26 -37 -50 -60 -69c-23 -20 -47 -36 -74 -49c-26 -14 -53 -23 -81 -30c-28 -6 -56 -9 -84 -9c-33 0 -66 4 -100 14c-109 29 -194 107 -231 214c-13 37 -19 78 -20 124h-124v-340
h-22v700h22v-341h124c2 95 34 185 102 253c67 66 156 98 249 98zM568 690c-88 0 -171 -30 -234 -93c-67 -67 -95 -156 -96 -249c1 -45 7 -87 20 -123c35 -101 113 -174 216 -204c31 -9 63 -13 94 -13c32 0 63 4 95 13c31 9 61 22 90 40c28 18 53 40 75 67s40 59 53 96
c12 37 19 78 19 124c0 195 -135 340 -332 342z" />
    <glyph glyph-name="bgQ" unicode="&#x42f;" horiz-adv-x="567" 
d="M484 0v678h-222c-127 0 -190 -92 -190 -184s63 -185 190 -185h138v-18l-321 -291h-32l320 289h-105c-141 0 -211 102 -211 205c0 102 70 206 211 206h243v-700h-21z" />
    <glyph glyph-name="bga" unicode="&#x430;" 
d="M312 678l-165 -424h329c-56 144 -108 280 -164 424zM580 0l-95 233h-347l-94 -233h-24l282 710h21l281 -710h-24z" />
    <glyph glyph-name="afii10066" unicode="&#x431;" horiz-adv-x="607" 
d="M512 700v-21h-425v-294h289c108 0 184 -75 184 -193c0 -95 -62 -192 -184 -192h-311v700h447zM87 363v-342h289c108 0 162 85 162 170c0 89 -54 172 -162 172h-289z" />
    <glyph glyph-name="afii10067" unicode="&#x432;" horiz-adv-x="607" 
d="M87 677v-292h261c66 0 109 39 129 86c7 18 11 41 11 59c0 19 -4 42 -11 61c-20 47 -63 86 -129 86h-261zM65 699h283c77 0 126 -44 149 -100c8 -21 12 -44 12 -68c0 -23 -4 -47 -12 -68c-14 -35 -39 -65 -73 -84c91 -20 136 -104 136 -187c0 -95 -62 -192 -184 -192h-311
v699zM87 363v-342h289c108 0 163 85 163 170c0 86 -55 172 -163 172h-289z" />
    <glyph glyph-name="afii10068" unicode="&#x433;" horiz-adv-x="501" 
d="M86 679v-679h-21v700h388v-21h-367z" />
    <glyph glyph-name="afii10069" unicode="&#x434;" horiz-adv-x="676" 
d="M577 20h56v-183h-22v163h-558v-163h-21v182l38 2c68 39 82 122 92 187c8 50 12 102 16 157l21 335h378v-680zM95 20h460v660h-336l-19 -313c-4 -56 -8 -109 -16 -160c-10 -61 -24 -153 -89 -187z" />
    <glyph glyph-name="afii10070" unicode="&#x435;" horiz-adv-x="501" 
d="M86 339v-318h369v-21h-390v700h388v-21h-367v-318h359v-22h-359z" />
    <glyph glyph-name="afii10072" unicode="&#x436;" horiz-adv-x="853" 
d="M417 700h22v-700h-22v700zM457 341v18l320 341h28l-326 -349l354 -351h-33zM399 359v-18l-343 -341h-33l354 351l-326 349h28z" />
    <glyph glyph-name="afii10073" unicode="&#x437;" horiz-adv-x="562" 
d="M342 364v-1c104 -21 169 -84 169 -181c0 -103 -86 -192 -248 -192c-144 0 -215 72 -228 163l20 3c12 -78 74 -145 208 -145c151 0 225 84 225 170c0 87 -73 171 -225 171h-49v20h49c131 0 190 76 190 158c-1 191 -331 209 -373 45l-20 4c47 191 414 169 414 -50
c0 -54 -24 -140 -132 -165z" />
    <glyph glyph-name="afii10074" unicode="&#x438;" horiz-adv-x="622" 
d="M65 700h22v-656l454 656h20v-700h-21v660l-457 -660h-18v700z" />
    <glyph glyph-name="afii10075" unicode="&#x439;" horiz-adv-x="622" 
d="M65 700h22v-656l454 656h20v-700h-21v660l-457 -660h-18v700zM206 751v23h214v-23h-214z" />
    <glyph glyph-name="afii10076" unicode="&#x43a;" horiz-adv-x="535" 
d="M64 700h22v-700h-22v700zM104 341v18l360 341h30l-369 -349l396 -351h-35z" />
    <glyph glyph-name="afii10077" unicode="&#x43b;" 
d="M579 0l-267 677l-267 -677h-25l282 710h21l281 -710h-25z" />
    <glyph glyph-name="afii10078" unicode="&#x43c;" horiz-adv-x="739" 
d="M86 664v-664h-21v700h20l286 -423l288 423h20v-700h-21v665l-279 -414h-14z" />
    <glyph glyph-name="afii10079" unicode="&#x43d;" horiz-adv-x="602" 
d="M86 700v-335h429v335h22v-700h-22v344h-429v-344h-21v700h21z" />
    <glyph glyph-name="afii10080" unicode="&#x43e;" horiz-adv-x="798" 
d="M732 350c0 93 -38 177 -98 238s-145 100 -238 100c-92 0 -176 -39 -237 -100c-59 -61 -98 -145 -98 -238s39 -177 98 -238c61 -61 145 -100 237 -100c93 0 178 39 238 100s98 145 98 238zM39 350c0 99 42 188 106 254s153 106 251 106c100 0 189 -40 253 -106
s105 -155 105 -254s-41 -188 -105 -254s-153 -106 -253 -106c-98 0 -187 40 -251 106s-106 155 -106 254z" />
    <glyph glyph-name="afii10081" unicode="&#x43f;" horiz-adv-x="601" 
d="M65 700h472v-700h-22v679h-429v-679h-21v700z" />
    <glyph glyph-name="afii10082" unicode="&#x440;" horiz-adv-x="561" 
d="M65 700h243c140 0 211 -110 211 -218c0 -110 -71 -218 -211 -218h-221v-264h-22v700zM87 285h221c127 0 190 98 190 196s-63 197 -190 197h-221v-393z" />
    <glyph glyph-name="afii10083" unicode="&#x441;" horiz-adv-x="744" 
d="M698 490h-24c-16 38 -39 70 -66 98c-57 60 -138 96 -227 96c-88 0 -169 -36 -227 -96c-57 -59 -94 -141 -94 -239c0 -99 37 -177 94 -235c58 -60 139 -97 227 -97c89 0 170 37 227 97c27 27 50 58 66 97h24c-18 -42 -44 -81 -75 -113c-62 -64 -146 -103 -242 -103
c-95 0 -179 39 -242 103c-61 64 -101 142 -101 251c0 105 40 190 101 254c63 64 147 103 242 103c96 0 180 -39 242 -103c31 -32 57 -70 75 -113z" />
    <glyph glyph-name="afii10084" unicode="&#x442;" horiz-adv-x="561" 
d="M288 0h-21v678h-240v22h501v-22h-240v-678z" />
    <glyph glyph-name="afii10085" unicode="&#x443;" horiz-adv-x="541" 
d="M204 -1h-25l87 196l-235 505h24l223 -478l213 478h24z" />
    <glyph glyph-name="afii10086" unicode="&#x444;" horiz-adv-x="777" 
d="M378 638v62h22v-62c444 0 443 -573 0 -573v-65h-22v65c-446 0 -446 573 0 573zM400 85c412 0 413 532 -1 532c-1 1 1 -532 1 -532zM379 85c0 0 0 531 -1 532c-419 0 -413 -532 1 -532z" />
    <glyph glyph-name="afii10087" unicode="&#x445;" horiz-adv-x="582" 
d="M26 697h25l239 -330c80 109 162 220 241 330h24l-253 -349l253 -348h-24l-241 330l-239 -330h-25l253 348z" />
    <glyph glyph-name="afii10088" unicode="&#x446;" horiz-adv-x="595" 
d="M499 20h54v-182h-22v162h-461v700h22v-680h385v680h22v-680z" />
    <glyph glyph-name="afii10089" unicode="&#x447;" horiz-adv-x="563" 
d="M498 700v-700h-22v306c-163 -76 -410 -26 -410 180v214h22v-214c0 -191 239 -230 388 -158v372h22z" />
    <glyph glyph-name="afii10090" unicode="&#x448;" horiz-adv-x="918" 
d="M65 700h22v-680h361v680h22v-680h361v680h22v-700h-788v700z" />
    <glyph glyph-name="afii10091" unicode="&#x449;" horiz-adv-x="950" 
d="M66 700h22v-680h361v680h22v-680h361v680h22v-680h59v-182h-22v162h-825v700z" />
    <glyph glyph-name="afii10092" unicode="&#x44a;" horiz-adv-x="658" 
d="M138 363v-342h289c108 0 162 85 162 170c0 89 -54 172 -162 172h-289zM138 700v-315h289c108 0 184 -75 184 -193c0 -95 -62 -192 -184 -192h-311v680h-100v20h122z" />
    <glyph glyph-name="afii10093" unicode="&#x44b;" horiz-adv-x="727" 
d="M87 700v-315h289c108 0 184 -75 184 -193c0 -95 -62 -192 -184 -192h-311v700h22zM87 363v-342h289c108 0 162 85 162 170c0 89 -54 172 -162 172h-289zM641 0v692h22v-692h-22z" />
    <glyph glyph-name="afii10094" unicode="&#x44c;" horiz-adv-x="607" 
d="M87 700v-315h289c108 0 184 -75 184 -193c0 -95 -62 -192 -184 -192h-311v700h22zM87 363v-342h289c108 0 162 85 162 170c0 89 -54 172 -162 172h-289z" />
    <glyph glyph-name="afii10095" unicode="&#x44d;" horiz-adv-x="744" 
d="M65 490h-24c18 43 44 81 75 113c62 64 146 103 242 103c95 0 179 -39 242 -103c61 -64 101 -149 101 -254c0 -109 -40 -187 -101 -251c-63 -64 -147 -103 -242 -103c-96 0 -180 39 -242 103c-31 32 -57 71 -75 113h24c16 -39 39 -70 66 -97c57 -60 138 -97 227 -97
c88 0 169 37 227 97c55 56 92 130 94 225h-482v21h482c-2 93 -39 171 -94 228c-58 60 -139 96 -227 96c-89 0 -170 -36 -227 -96c-27 -28 -50 -60 -66 -98z" />
    <glyph glyph-name="afii10096" unicode="&#x44e;" horiz-adv-x="966" 
d="M568 710c209 -3 354 -154 354 -362c0 -41 -5 -78 -14 -112c-10 -34 -24 -64 -41 -91c-17 -26 -37 -50 -60 -69c-23 -20 -47 -36 -74 -49c-26 -14 -53 -23 -81 -30c-28 -6 -56 -9 -84 -9c-33 0 -66 4 -100 14c-109 29 -194 107 -231 214c-13 37 -19 78 -20 124h-124v-340
h-22v700h22v-341h124c2 95 34 185 102 253c67 66 156 98 249 98zM568 690c-88 0 -171 -30 -234 -93c-67 -67 -95 -156 -96 -249c1 -45 7 -87 20 -123c35 -101 113 -174 216 -204c31 -9 63 -13 94 -13c32 0 63 4 95 13c31 9 61 22 90 40c28 18 53 40 75 67s40 59 53 96
c12 37 19 78 19 124c0 195 -135 340 -332 342z" />
    <glyph glyph-name="bgq" unicode="&#x44f;" horiz-adv-x="567" 
d="M484 0v678h-222c-127 0 -190 -92 -190 -184s63 -185 190 -185h138v-18l-321 -291h-32l320 289h-105c-141 0 -211 102 -211 205c0 102 70 206 211 206h243v-700h-21z" />
    <glyph glyph-name="afii10071" unicode="&#x451;" horiz-adv-x="501" 
d="M86 21v318h359v22h-359v318h367v21h-388v-700h390v21h-369zM189 795c12 0 23 -11 23 -24c0 -11 -11 -22 -23 -22s-24 8 -24 22c0 16 12 24 24 24zM345 795c12 0 23 -11 23 -24c0 -11 -11 -22 -23 -22s-24 8 -24 22c0 16 12 24 24 24z" />
    <glyph glyph-name="afii10099" unicode="&#x452;" horiz-adv-x="718" 
d="M284 0h-21v678h-240v22h501v-22h-240v-234c38 39 96 68 159 65c120 -5 215 -81 214 -215v-90c1 -140 -73 -202 -192 -205v19c105 8 170 53 170 186v90c0 196 -240 255 -351 124v-418z" />
    <glyph glyph-name="afii10100" unicode="&#x453;" horiz-adv-x="501" 
d="M86 679v-679h-21v700h388v-21h-367zM260 750h-24l65 80h30z" />
    <glyph glyph-name="afii10101" unicode="&#x454;" horiz-adv-x="744" 
d="M698 490h-24c-16 38 -39 70 -66 98c-57 60 -138 96 -227 96c-88 0 -169 -36 -227 -96c-55 -57 -92 -135 -94 -228h482v-21h-482c2 -95 39 -169 94 -225c58 -60 139 -97 227 -97c89 0 170 37 227 97c27 27 50 58 66 97h24c-18 -42 -44 -81 -75 -113
c-62 -64 -146 -103 -242 -103c-95 0 -179 39 -242 103c-61 64 -101 142 -101 251c0 105 40 190 101 254c63 64 147 103 242 103c96 0 180 -39 242 -103c31 -32 57 -70 75 -113z" />
    <glyph glyph-name="afii10102" unicode="&#x455;" horiz-adv-x="589" 
d="M500 540l-2 10c-6 27 -19 55 -37 75c-41 42 -112 63 -171 62c-65 -1 -139 -25 -180 -78c-24 -30 -32 -67 -29 -104c9 -116 121 -132 222 -143c100 -10 210 -25 233 -131c3 -14 5 -29 5 -43c0 -124 -128 -195 -248 -195c-102 0 -227 59 -239 173l-1 9l22 2l1 -9
c13 -100 126 -154 218 -154c108 0 224 63 224 175c0 11 -1 24 -4 37c-20 91 -122 105 -215 115c-107 11 -229 27 -239 163c-3 39 8 84 34 118c44 57 123 86 202 86c103 0 204 -50 223 -153l2 -12z" />
    <glyph glyph-name="afii10103" unicode="&#x456;" horiz-adv-x="381" 
d="M348 700v-19h-148v-661h148v-20h-316v20h147v661h-147v19h316z" />
    <glyph glyph-name="afii10104" unicode="&#x457;" horiz-adv-x="381" 
d="M348 681v19h-316v-19h147v-661h-147v-20h316v20h-148v661h148zM113 793c12 0 23 -11 23 -24c0 -11 -11 -22 -23 -22s-24 8 -24 22c0 16 12 24 24 24zM269 793c12 0 23 -11 23 -24c0 -11 -11 -22 -23 -22s-24 8 -24 22c0 16 12 24 24 24z" />
    <glyph glyph-name="afii10105" unicode="&#x458;" horiz-adv-x="435" 
d="M372 699v-403c0 -203 -153 -296 -344 -296v22c180 0 323 84 323 274v383h-214v20h235z" />
    <glyph glyph-name="afii10106" unicode="&#x459;" horiz-adv-x="937" 
d="M437 683l-389 -683h-24l399 700h41v-331h242c108 0 184 -65 184 -183c0 -95 -62 -186 -184 -186h-264v683h-5zM464 347v-326h242c108 0 162 79 162 164c0 89 -54 162 -162 162h-242z" />
    <glyph glyph-name="afii10107" unicode="&#x45a;" horiz-adv-x="955" 
d="M482 700v-331h242c108 0 184 -65 184 -183c0 -95 -62 -186 -184 -186h-264v348h-375v-348h-21v700h21v-331h375v331h22zM482 347v-326h242c108 0 162 79 162 164c0 89 -54 162 -162 162h-242z" />
    <glyph glyph-name="afii10108" unicode="&#x45b;" horiz-adv-x="723" 
d="M286 0h-21v678h-240v22h501v-22h-240v-234c38 39 96 68 159 65c120 -5 215 -81 214 -215v-294h-22v294c0 196 -240 255 -351 124v-418z" />
    <glyph glyph-name="afii10109" unicode="&#x45c;" horiz-adv-x="535" 
d="M64 700h22v-700h-22v700zM104 341v18l360 341h30l-369 -349l396 -351h-35zM275 749h-23l52 86h30z" />
    <glyph glyph-name="afii10110" unicode="&#x45e;" horiz-adv-x="541" 
d="M204 -1h-25l87 196l-235 505h24l223 -478l213 478h24zM171 750v23h214v-23h-214z" />
    <glyph glyph-name="afii10193" unicode="&#x45f;" horiz-adv-x="601" 
d="M284 0h-219v700h22v-679h429v679h21v-700h-232v-106h-21v106z" />
    <glyph glyph-name="afii10050" unicode="&#x490;" horiz-adv-x="501" 
d="M434 700v78h19v-99h-367v-679h-21v700h369z" />
    <glyph glyph-name="afii10098" unicode="&#x491;" horiz-adv-x="501" 
d="M434 700v78h19v-99h-367v-679h-21v700h369z" />
    <glyph glyph-name="uni1E9E" unicode="&#x1e9e;" horiz-adv-x="531" 
d="M317 378v-1c113 -13 170 -111 170 -186c0 -170 -176 -226 -315 -183v24c34 -13 52 -15 87 -15c135 0 205 79 205 172c0 87 -71 175 -205 176h-53v22h53c109 2 159 86 154 155c0 91 -79 144 -158 144c-83 0 -168 -46 -168 -150v-538h-23v538c-1 118 96 171 191 171
c92 0 182 -59 182 -166c0 -25 2 -131 -120 -163z" />
    <glyph glyph-name="fraction" unicode="&#x2044;" horiz-adv-x="206" 
d="M-67 -33h-20l348 736h21z" />
    <glyph glyph-name="zerosuperior" unicode="&#x2070;" horiz-adv-x="414" 
d="M73 638c-9 -236 271 -239 262 -5c8 245 -272 247 -262 5zM51 637c0 272 306 267 306 -2c4 -267 -312 -255 -306 2z" />
    <glyph glyph-name="foursuperior" unicode="&#x2074;" horiz-adv-x="384" 
d="M296 851v-298h46v-21h-46v-100h-22v100h-218l-16 23l221 296h35zM64 553h211v283z" />
    <glyph glyph-name="fivesuperior" unicode="&#x2075;" horiz-adv-x="388" 
d="M304 831h-189l-33 -172c98 53 255 19 255 -110c0 -89 -73 -138 -153 -137c-56 1 -100 15 -135 66l13 10c31 -44 73 -57 122 -57c83 -1 135 49 135 118c0 73 -68 116 -134 116c-41 0 -82 -11 -119 -32c-1 0 -3 1 -4 1l38 214h204v-17z" />
    <glyph glyph-name="sixsuperior" unicode="&#x2076;" horiz-adv-x="394" 
d="M256 866l-137 -187c30 16 57 23 84 23c68 0 140 -44 140 -133c0 -85 -74 -137 -147 -137s-146 50 -146 138c0 32 17 67 36 94c46 65 100 137 146 202h24zM196 682c-67 0 -125 -45 -125 -112c0 -76 55 -118 125 -118c68 0 126 42 126 118c-1 78 -59 112 -126 112z" />
    <glyph glyph-name="sevensuperior" unicode="&#x2077;" horiz-adv-x="330" 
d="M65 426l203 398h-224v20h233l14 -19l-204 -399h-22z" />
    <glyph glyph-name="eightsuperior" unicode="&#x2078;" horiz-adv-x="373" 
d="M66 749c0 72 59 108 118 108s118 -36 118 -108c0 -34 -24 -78 -72 -92c67 -15 90 -65 90 -110c-1 -83 -69 -123 -136 -123c-68 0 -135 40 -136 123c-1 43 30 102 86 111c-35 11 -68 41 -68 91zM184 840c-66 0 -100 -49 -100 -91c0 -43 34 -83 100 -83s100 40 100 83
c0 42 -34 91 -100 91zM184 648c-64 0 -116 -34 -116 -100c0 -70 57 -106 116 -106c58 0 117 36 117 106c0 63 -53 100 -117 100z" />
    <glyph glyph-name="ninesuperior" unicode="&#x2079;" horiz-adv-x="394" 
d="M140 421l137 187c-30 -16 -57 -23 -84 -23c-68 0 -140 44 -140 133c0 85 74 137 147 137s146 -50 146 -138c0 -32 -17 -67 -36 -94c-46 -65 -100 -137 -146 -202h-24zM200 605c67 0 125 45 125 112c0 76 -55 118 -125 118c-68 0 -126 -42 -126 -118
c1 -78 59 -112 126 -112z" />
    <glyph glyph-name="zeroinferior" unicode="&#x2080;" horiz-adv-x="414" 
d="M75 58c-9 -236 271 -239 262 -5c0 249 -262 248 -262 5zM53 57c0 272 306 267 306 -2c4 -267 -312 -255 -306 2z" />
    <glyph glyph-name="oneinferior" unicode="&#x2081;" horiz-adv-x="237" 
d="M146 248h11v-397h-21v352l-70 -73l-15 14z" />
    <glyph glyph-name="twoinferior" unicode="&#x2082;" horiz-adv-x="391" 
d="M277 63l-192 -185h250v-21h-269l-12 20c140 133 174 169 210 202c77 72 35 166 -66 174c-47 2 -86 -12 -119 -54l-16 12c39 52 88 64 136 62c116 -5 172 -125 78 -210z" />
    <glyph glyph-name="threeinferior" unicode="&#x2083;" horiz-adv-x="367" 
d="M315 -43c-1 -78 -72 -122 -142 -122c-51 0 -100 26 -133 73l15 11c31 -43 65 -63 120 -63c56 0 119 38 119 102c0 65 -54 102 -111 102h-37v19h37c50 0 98 26 98 83c0 59 -53 94 -106 94c-42 0 -72 -12 -100 -49l-14 11c29 39 67 58 113 58c64 0 128 -43 128 -114
c0 -44 -33 -84 -69 -92v-1c56 -17 83 -73 82 -112z" />
    <glyph glyph-name="fourinferior" unicode="&#x2084;" horiz-adv-x="384" 
d="M295 267v-298h46v-21h-46v-100h-22v100h-218l-16 23l221 296h35zM63 -31h211v281z" />
    <glyph glyph-name="fiveinferior" unicode="&#x2085;" horiz-adv-x="388" 
d="M305 258h-189l-32 -172c98 53 254 19 254 -110c0 -89 -73 -141 -153 -140c-56 1 -100 18 -135 69l13 10c31 -44 73 -60 122 -60c83 -1 135 52 135 121c0 73 -68 116 -134 116c-41 0 -82 -11 -119 -32c-1 0 -3 1 -4 1l38 215h204v-18z" />
    <glyph glyph-name="sixinferior" unicode="&#x2086;" horiz-adv-x="395" 
d="M254 279l-137 -187c30 16 57 23 84 23c68 0 140 -44 140 -133c0 -85 -74 -137 -147 -137s-146 50 -146 138c0 32 17 67 36 94c46 65 100 137 146 202h24zM194 95c-67 0 -125 -45 -125 -112c0 -76 55 -118 125 -118c68 0 126 42 126 118c-1 78 -59 112 -126 112z" />
    <glyph glyph-name="seveninferior" unicode="&#x2087;" horiz-adv-x="335" 
d="M69 -160l203 398h-224v20h233l14 -19l-204 -399h-22z" />
    <glyph glyph-name="eightinferior" unicode="&#x2088;" horiz-adv-x="371" 
d="M67 165c0 72 59 108 118 108s118 -36 118 -108c0 -34 -24 -78 -72 -92c67 -15 90 -65 90 -110c-1 -83 -69 -123 -136 -123c-68 0 -135 40 -136 123c-1 43 30 102 86 111c-35 11 -68 41 -68 91zM185 256c-66 0 -100 -49 -100 -91c0 -43 34 -83 100 -83s100 40 100 83
c0 42 -34 91 -100 91zM185 64c-64 0 -116 -34 -116 -100c0 -70 57 -106 116 -106c58 0 117 36 117 106c0 63 -53 100 -117 100z" />
    <glyph glyph-name="nineinferior" unicode="&#x2089;" horiz-adv-x="386" 
d="M136 -166l137 187c-30 -16 -57 -23 -84 -23c-68 0 -140 44 -140 133c0 85 74 137 147 137s146 -50 146 -138c0 -32 -17 -67 -36 -94c-46 -65 -100 -137 -146 -202h-24zM196 18c67 0 125 45 125 112c0 76 -55 118 -125 118c-68 0 -126 -42 -126 -118
c1 -78 59 -112 126 -112z" />
    <glyph glyph-name="afii61352" unicode="&#x2116;" horiz-adv-x="1369" 
d="M87 0h-22v700h18l457 -660v660h21v-700h-20l-454 656v-656zM1312 350c0 93 -38 177 -98 238s-145 100 -238 100c-92 0 -176 -39 -237 -100c-59 -61 -98 -145 -98 -238s39 -177 98 -238c61 -61 145 -100 237 -100c93 0 178 39 238 100s98 145 98 238zM619 350
c0 99 42 188 106 254s153 106 251 106c100 0 189 -40 253 -106s105 -155 105 -254s-41 -188 -105 -254s-153 -106 -253 -106c-98 0 -187 40 -251 106s-106 155 -106 254z" />
    <glyph glyph-name="minus" unicode="&#x2212;" horiz-adv-x="427" 
d="M51 343v21h311v-21h-311z" />
    <glyph glyph-name="infinity" unicode="&#x221e;" horiz-adv-x="344" 
d="M162 245c-56 0 -101 47 -101 104s45 103 101 103c57 0 101 -46 101 -103s-44 -104 -101 -104z" />
    <glyph glyph-name="approxequal" unicode="&#x2248;" horiz-adv-x="527" 
d="M455 413l14 -10c-62 -85 -137 -71 -214 -19c-72 50 -126 60 -192 -14l-12 10c68 89 142 70 218 19c67 -48 128 -60 186 14zM455 300l14 -10c-62 -85 -137 -71 -214 -19c-72 50 -126 60 -192 -14l-12 10c68 89 142 70 218 19c67 -48 128 -60 186 14z" />
    <glyph glyph-name="notequal" unicode="&#x2260;" horiz-adv-x="516" 
d="M116 150l75 100h-138v16h149l110 149h-259v17h270l73 104l17 -5l-70 -99h107v-17h-119l-110 -149h230v-16h-241l-76 -105c-5 3 -14 3 -18 5z" />
    <glyph glyph-name="lessequal" unicode="&#x2264;" horiz-adv-x="493" 
d="M55 5v19h379v-19h-379zM421 555v-25l-343 -179l343 -175v-25l-366 190v19z" />
    <glyph glyph-name="greaterequal" unicode="&#x2265;" horiz-adv-x="496" 
d="M434 24v-19h-379v19h379zM68 530v24l366 -195v-19l-366 -190v24l343 176z" />
    <glyph glyph-name="aring" unicode="&#xe5;" horiz-adv-x="628" 
d="M311 676l-164 -423h328c-56 143 -107 280 -164 423zM579 0l-95 232h-346l-94 -232h-23l280 708h21l281 -708h-24zM259 786c0 30 24 53 54 53c31 0 56 -23 56 -53s-25 -52 -57 -52c-29 0 -53 23 -53 52zM277 786c0 -19 16 -35 36 -35c21 0 38 16 38 35c0 20 -17 36 -38 36
c-20 0 -36 -16 -36 -36z" />
    <glyph glyph-name="Aring" unicode="&#xc5;" 
d="M312 678l-165 -424h329c-56 144 -108 280 -164 424zM580 0l-95 233h-347l-94 -233h-24l282 710h21l281 -710h-24zM258 787c0 30 24 53 54 53c31 0 56 -23 56 -53s-25 -52 -57 -52c-29 0 -53 23 -53 52zM276 787c0 -19 16 -35 36 -35c21 0 38 16 38 35c0 20 -17 36 -38 36
c-20 0 -36 -16 -36 -36z" />
    <glyph glyph-name="scaron" unicode="&#x161;" horiz-adv-x="579" 
d="M493 541l-2 10c-6 27 -19 55 -37 75c-42 43 -112 64 -173 63c-108 -2 -219 -67 -210 -184c9 -121 122 -133 222 -144c101 -10 212 -25 236 -132c3 -16 5 -29 5 -43c0 -125 -129 -197 -250 -197c-102 0 -229 59 -241 174l-1 10l23 2l1 -10c13 -100 127 -155 219 -155
c109 0 226 64 226 177c0 11 -1 23 -4 37c-20 92 -123 106 -217 116c-107 11 -227 18 -243 164c-9 140 120 206 240 206c104 0 206 -51 226 -155l2 -10zM352 817h26l-73 -67h-32l-73 67h26l63 -52z" />
    <glyph glyph-name="zcaron" unicode="&#x17e;" horiz-adv-x="594" 
d="M35 0v28l494 652h-479v20h501v-29l-494 -650h502v-21h-524zM373 817h26l-73 -67h-32l-73 67h26l63 -52z" />
    <glyph glyph-name="Ydieresis" unicode="&#x178;" horiz-adv-x="579" 
d="M46 699h-27l258 -411v-288h22v288l258 411h-27l-242 -387zM211 788c12 0 23 -11 23 -24c0 -11 -11 -22 -23 -22s-24 8 -24 22c0 16 12 24 24 24zM367 788c12 0 23 -11 23 -24c0 -11 -11 -22 -23 -22s-24 8 -24 22c0 16 12 24 24 24z" />
    <glyph glyph-name="Scaron" unicode="&#x160;" horiz-adv-x="589" 
d="M500 540l-2 10c-6 27 -19 55 -37 75c-41 42 -112 63 -171 62c-65 -1 -139 -25 -180 -78c-24 -30 -32 -67 -29 -104c9 -116 121 -132 222 -143c100 -10 210 -25 233 -131c3 -14 5 -29 5 -43c0 -124 -128 -195 -248 -195c-102 0 -227 59 -239 173l-1 9l22 2l1 -9
c13 -100 126 -154 218 -154c108 0 224 63 224 175c0 11 -1 24 -4 37c-20 91 -122 105 -215 115c-107 11 -229 27 -239 163c-3 39 8 84 34 118c44 57 123 86 202 86c103 0 204 -50 223 -153l2 -12zM362 822h26l-73 -67h-32l-73 67h26l63 -52z" />
    <glyph glyph-name="Zcaron" unicode="&#x17d;" horiz-adv-x="593" 
d="M35 0v28l494 652h-479v20h501v-29l-494 -650h502v-21h-524zM373 819h26l-73 -67h-32l-73 67h26l63 -52z" />
    <glyph glyph-name="thinspace" unicode="&#x2009;" horiz-adv-x="14" 
 />
    <glyph glyph-name="fontfabric" horiz-adv-x="1770" 
d="M1341 699h350v-176h-14c-27 98 -74 163 -180 163h-59v-674h110v-13h-207v700zM745 12h234v-13h-234v13zM1186 699h123v-13v0v-687h-32l-428 687h-104v13h215l330 -537h6v524h-110v13zM791 491c19 -46 26 -90 26 -141c0 -47 -7 -85 -26 -131c-19 -38 -38 -77 -71 -110
c-74 -74 -139 -110 -246 -110h-6v13h6c76 0 141 22 182 84c19 26 32 66 38 104c6 46 13 91 13 150c0 75 -9 170 -45 232c-31 75 -102 104 -188 104h-6v13h6c135 0 262 -84 317 -208zM248 439c6 20 15 36 25 72h7v-305h-7c-9 73 -44 152 -129 150h-65v13h57
c59 -1 92 16 112 70zM79 699h336v-169h-6c-23 87 -67 156 -182 156h-148v13z" />
    </font>
</defs>
</svg>
